M48
; DRILL file {KiCad 6.0.2+dfsg-1} date Wed 22 Jun 2022 10:26:52 BST
; FORMAT={-:-/ absolute / inch / decimal}
; #@! TF.CreationDate,2022-06-22T10:26:52+01:00
; #@! TF.GenerationSoftware,Kicad,Pcbnew,6.0.2+dfsg-1
; #@! TF.FileFunction,Plated,1,2,PTH
FMAT,2
INCH
; #@! TA.AperFunction,Plated,PTH,ViaDrill
T1C0.0157
; #@! TA.AperFunction,Plated,PTH,ComponentDrill
T2C0.0315
; #@! TA.AperFunction,Plated,PTH,ComponentDrill
T3C0.0354
; #@! TA.AperFunction,Plated,PTH,ComponentDrill
T4C0.0394
; #@! TA.AperFunction,Plated,PTH,ComponentDrill
T5C0.1378
%
G90
G05
T1
X2.7047Y-4.2874
X2.9469Y-5.3425
X2.9724Y-5.3927
X2.9803Y-4.2126
X3.0157Y-4.0669
X3.125Y-5.501
X3.1634Y-3.6211
X3.1929Y-5.1752
X3.2421Y-4.1004
X3.3189Y-4.2106
X3.5146Y-5.2231
X3.5748Y-4.4744
X3.5807Y-4.7185
X3.6378Y-4.9094
X3.6457Y-5.248
X3.6457Y-5.3622
X3.6496Y-5.1063
X3.6654Y-4.2598
X3.6969Y-4.6161
X3.7067Y-4.4843
X3.7826Y-4.1191
X3.8466Y-5.0461
X3.87Y-5.25
X3.87Y-5.38
X3.9086Y-4.5171
X3.93Y-5.1
X3.9516Y-5.2961
X3.98Y-5.2
X4.0Y-4.59
X4.0356Y-4.2741
X4.16Y-4.0
X4.17Y-4.21
X4.19Y-5.21
X4.22Y-5.39
X4.2496Y-4.0781
X4.2496Y-5.0821
X4.29Y-4.9
X4.2956Y-4.6411
X4.2986Y-5.2931
X4.31Y-5.16
X4.3726Y-4.6681
X4.3816Y-5.4101
X4.39Y-5.09
X4.44Y-5.29
X4.46Y-4.48
X4.47Y-4.29
X4.48Y-3.98
X4.48Y-4.19
X4.4806Y-5.3721
X4.4856Y-4.7161
X4.4866Y-5.1901
X4.5266Y-3.6772
X4.53Y-4.98
X4.5356Y-5.3132
X4.5446Y-5.0691
X4.5446Y-5.1191
X4.5546Y-4.7981
X4.5576Y-4.8521
X4.56Y-5.2
X4.5721Y-5.2761
X4.6292Y-4.0667
X4.6292Y-4.7144
X4.6292Y-4.7561
X4.6316Y-4.1161
X4.6316Y-4.6751
X4.6326Y-5.0301
X4.6336Y-4.2561
X4.6346Y-5.1591
X4.6566Y-4.3191
X4.6806Y-5.2171
X4.7306Y-5.1281
X4.7657Y-4.6132
X4.77Y-5.28
X4.78Y-4.97
X4.8Y-4.76
X4.8116Y-5.1151
X4.8136Y-3.9971
X4.8826Y-4.8491
X4.8886Y-4.7981
X4.9802Y-5.2242
X5.1376Y-5.1351
X5.1398Y-4.7608
X5.1956Y-5.1671
X5.2706Y-5.2242
X5.28Y-4.53
X5.3856Y-5.3716
X5.4616Y-4.5951
X5.4646Y-4.2431
X5.5236Y-4.6398
X5.5536Y-4.7291
X5.5906Y-4.9173
X5.6024Y-5.1319
X5.66Y-5.03
X5.7056Y-5.3132
X5.74Y-4.64
X5.7426Y-5.3781
X5.8116Y-4.8981
X5.82Y-4.74
X5.82Y-5.25
X5.8456Y-3.8321
X5.8866Y-3.8731
X5.9Y-5.0
X5.9856Y-5.2201
X6.0126Y-3.7311
X6.02Y-4.85
X6.0206Y-4.5088
X6.0206Y-4.5481
X6.0346Y-4.5951
X6.0706Y-3.8671
X6.08Y-4.28
X6.1496Y-4.4861
X6.1556Y-3.8801
X6.185Y-3.6467
X6.19Y-4.84
X6.2366Y-4.3421
X6.2396Y-5.2297
X6.2459Y-4.2386
X6.2716Y-3.8871
X6.2796Y-3.8441
X6.3496Y-4.2381
X6.3876Y-4.2041
X6.3896Y-5.3566
X6.4Y-4.39
X6.4096Y-4.2741
X6.4196Y-5.2297
X6.42Y-4.84
X6.48Y-4.99
X6.4801Y-4.301
X6.4886Y-5.0761
X6.53Y-5.17
X6.5366Y-5.0201
X6.5372Y-4.301
X6.5396Y-4.6861
X6.5426Y-4.6341
X6.5437Y-4.5948
X6.5446Y-4.4911
X6.5476Y-4.7421
X6.5486Y-4.5461
X6.55Y-5.27
X6.5506Y-4.8031
X6.58Y-3.84
X6.6176Y-5.1561
X6.6359Y-4.5501
X6.6359Y-4.5991
X6.6446Y-4.7001
X6.65Y-4.23
X6.6596Y-4.6391
X6.6666Y-5.2011
X6.6896Y-4.7061
X6.6946Y-4.7511
X6.7316Y-4.9971
X6.74Y-4.9
X6.7476Y-5.2281
X6.7576Y-4.5361
X6.76Y-4.32
X6.76Y-5.05
X6.7826Y-4.7261
X6.8076Y-4.6591
X6.82Y-4.3121
X6.83Y-4.82
X6.8393Y-4.6208
X6.87Y-4.34
X6.88Y-4.22
X6.9Y-4.7306
X6.93Y-4.85
X6.9536Y-4.7771
X6.9555Y-4.411
X6.97Y-5.17
X7.02Y-4.62
X7.07Y-4.72
X7.1Y-4.51
X7.1112Y-3.8189
X7.13Y-5.17
X7.16Y-4.62
X7.1981Y-4.5821
X7.2516Y-5.1721
X7.2608Y-3.6447
X7.3406Y-4.4481
X7.3429Y-5.0621
X7.36Y-4.78
X7.38Y-4.53
X7.39Y-4.62
X7.4416Y-4.7441
X7.4508Y-3.6024
X7.4735Y-4.8163
X7.4836Y-4.5621
X7.4966Y-3.9811
X7.5148Y-3.8159
X7.537Y-5.2101
X7.56Y-4.45
X7.5696Y-4.7851
X7.57Y-4.62
X7.58Y-5.0
X7.5886Y-5.0981
X7.5926Y-4.0461
X7.5956Y-4.7431
X7.5976Y-4.9301
X7.6036Y-4.5201
X7.6046Y-4.8641
X7.6316Y-4.3041
X7.6416Y-4.2051
X7.6856Y-4.9571
X7.6966Y-4.4391
X7.7087Y-4.3159
X7.7195Y-3.9242
X7.7244Y-3.6417
X7.73Y-4.75
X7.7596Y-4.8611
X7.8101Y-4.9221
X7.8396Y-4.0421
X7.8726Y-4.7561
X7.8796Y-4.6621
X7.9146Y-4.6011
X7.9156Y-4.7131
X7.9276Y-4.8201
X7.9469Y-3.8031
X8.1483Y-4.4808
X8.1526Y-4.7156
X8.1555Y-4.1988
X8.2906Y-4.5241
X8.3006Y-4.6591
X8.3346Y-3.7963
X8.376Y-4.4872
X8.3957Y-4.8091
X8.4104Y-3.7756
X8.43Y-5.07
X8.4326Y-5.1411
X8.4348Y-4.9157
X8.4446Y-5.3761
X8.49Y-5.4039
X8.5086Y-4.4091
X8.52Y-5.1
X8.562Y-4.1821
X8.5945Y-4.7333
X8.624Y-5.0994
X8.6696Y-4.4811
X8.68Y-5.39
X8.69Y-3.7864
X8.6929Y-4.4272
X8.6946Y-4.8431
X8.748Y-4.6038
X8.7598Y-4.1289
X8.7795Y-4.502
X8.812Y-4.4606
X8.8297Y-4.6407
X8.9242Y-5.0906
X8.9281Y-4.6038
X8.935Y-4.9213
X8.9636Y-4.2461
X9.0039Y-4.5994
X9.0059Y-5.0886
X9.0138Y-4.9528
X9.0226Y-4.7313
X9.0389Y-5.1865
X9.0886Y-5.0994
X9.1073Y-3.7402
X9.1211Y-4.4311
X9.1644Y-5.378
X9.1732Y-4.1506
X9.2047Y-4.498
X9.2687Y-4.8524
X9.2825Y-4.1624
X9.288Y-3.5408
X9.3287Y-4.6329
X9.3435Y-5.1919
X9.372Y-4.81
X9.4291Y-4.3848
X9.4675Y-5.122
X9.5591Y-5.4036
X9.6161Y-5.4036
X9.6368Y-5.4626
X9.6437Y-5.1033
X9.6624Y-4.06
X9.6929Y-5.1949
X9.7296Y-5.4911
X9.7303Y-5.3888
T2
X4.9274Y-4.9817
X4.9274Y-5.2817
X5.0274Y-4.9817
X5.0274Y-5.2817
X5.1274Y-4.9817
X5.1274Y-5.2817
X5.2274Y-4.9817
X5.2274Y-5.2817
X5.3274Y-4.9817
X5.3274Y-5.2817
X5.4274Y-4.9817
X5.4274Y-5.2817
X5.5274Y-4.9817
X5.5274Y-5.2817
X6.8714Y-4.9757
X6.8714Y-5.2757
X6.9714Y-4.9757
X6.9714Y-5.2757
X7.0714Y-4.9757
X7.0714Y-5.2757
X7.1714Y-4.9757
X7.1714Y-5.2757
X7.2714Y-4.9757
X7.2714Y-5.2757
X7.3714Y-4.9757
X7.3714Y-5.2757
X7.4714Y-4.9757
X7.4714Y-5.2757
X7.8514Y-3.636
X7.8514Y-3.936
X7.9514Y-3.636
X7.9514Y-3.936
X8.0514Y-3.636
X8.0514Y-3.936
X8.1514Y-3.636
X8.1514Y-3.936
X8.2514Y-3.636
X8.2514Y-3.936
X8.2884Y-4.9967
X8.2884Y-5.2967
X8.3514Y-3.636
X8.3514Y-3.936
X8.3884Y-4.9967
X8.3884Y-5.2967
X8.4514Y-3.636
X8.4514Y-3.936
X8.4884Y-4.9967
X8.4884Y-5.2967
X8.5884Y-4.9967
X8.5884Y-5.2967
X8.6884Y-4.9967
X8.6884Y-5.2967
X8.7884Y-4.9967
X8.7884Y-5.2967
X8.8884Y-4.9967
X8.8884Y-5.2967
X9.0925Y-4.9805
X9.0925Y-5.2805
X9.1925Y-4.9805
X9.1925Y-5.2805
X9.2925Y-4.9805
X9.2925Y-5.2805
X9.3925Y-4.9805
X9.3925Y-5.2805
X9.4925Y-4.9805
X9.4925Y-5.2805
X9.5925Y-4.9805
X9.5925Y-5.2805
X9.6925Y-4.9805
X9.6925Y-5.2805
T3
X2.5754Y-5.3593
X2.5833Y-4.9415
X2.5833Y-5.0915
X2.5834Y-5.2253
X2.5842Y-4.3945
X2.5843Y-4.5335
X2.5852Y-4.6722
X2.5852Y-4.8062
X2.8754Y-5.3593
X2.8833Y-4.9415
X2.8833Y-5.0915
X2.8834Y-5.2253
X2.8842Y-4.3945
X2.8843Y-4.5335
X2.8852Y-4.6722
X2.8852Y-4.8062
X3.0479Y-4.7947
X3.0479Y-4.9227
X3.0479Y-5.0507
X3.0479Y-5.1867
X3.0479Y-5.3187
X3.1419Y-4.1367
X3.1419Y-4.2707
X3.1419Y-4.4047
X3.1419Y-4.5327
X3.1419Y-4.6607
X3.3479Y-4.7947
X3.3479Y-4.9227
X3.3479Y-5.0507
X3.3479Y-5.1867
X3.3479Y-5.3187
X3.3894Y-3.6683
X3.4419Y-4.1367
X3.4419Y-4.2707
X3.4419Y-4.4047
X3.4419Y-4.5327
X3.4419Y-4.6607
X3.6894Y-3.6683
X3.7676Y-5.3791
X3.7686Y-5.2441
X3.7696Y-4.9871
X3.7696Y-5.1161
X3.8626Y-4.4601
X3.8626Y-4.5921
X3.8626Y-4.7221
X3.8686Y-4.8561
X3.9626Y-4.2041
X3.9646Y-4.3331
X4.0676Y-5.3791
X4.0686Y-5.2441
X4.0696Y-4.9871
X4.0696Y-5.1161
X4.1626Y-4.4601
X4.1626Y-4.5921
X4.1626Y-4.7221
X4.1686Y-4.8561
X4.2626Y-4.2041
X4.2646Y-4.3331
X5.0456Y-4.1391
X5.0456Y-4.4391
X5.1766Y-4.1391
X5.1766Y-4.4391
X5.3056Y-4.1391
X5.3056Y-4.4391
X5.4346Y-4.1401
X5.4346Y-4.4401
X5.5636Y-4.1401
X5.5636Y-4.4401
X5.6926Y-4.1391
X5.6926Y-4.4391
X5.8206Y-4.1391
X5.8206Y-4.4391
X5.9506Y-4.1391
X5.9506Y-4.4391
X5.9846Y-4.9951
X5.9846Y-5.2951
X6.0796Y-4.1391
X6.0796Y-4.4391
X6.1146Y-4.9931
X6.1146Y-5.2931
X6.2076Y-4.1391
X6.2076Y-4.4391
X6.2466Y-4.9951
X6.2466Y-5.2951
X6.3376Y-4.1391
X6.3376Y-4.4391
X6.3766Y-4.9951
X6.3766Y-5.2951
X6.4636Y-4.1381
X6.4636Y-4.4381
X6.5896Y-4.1381
X6.5896Y-4.4381
X6.7196Y-4.1381
X6.7196Y-4.4381
X6.8486Y-4.1371
X6.8486Y-4.4371
X6.9266Y-4.6701
X7.0246Y-4.1391
X7.0246Y-4.4391
X7.1556Y-4.1391
X7.1556Y-4.4391
X7.2266Y-4.6701
X7.3126Y-3.7461
X7.3126Y-3.8821
X7.6126Y-3.7461
X7.6126Y-3.8821
X7.7224Y-3.8313
X7.7224Y-4.1313
X7.8386Y-4.9931
X7.8386Y-5.2931
X8.1296Y-5.0021
X8.1296Y-5.3021
T4
X2.3409Y-3.9262
X2.4409Y-3.9262
X2.5902Y-3.9232
X2.6902Y-3.9232
X2.7902Y-3.9232
X2.8902Y-3.9232
X2.9902Y-3.9232
X3.8234Y-3.9394
X3.9234Y-3.9394
X4.0234Y-3.9394
X4.1234Y-3.9394
X4.2234Y-3.9394
X5.3094Y-3.9409
X5.4094Y-3.9409
X5.5094Y-3.9409
X5.6094Y-3.9409
X5.7094Y-3.9409
X5.8094Y-3.9409
X5.9094Y-3.9409
X6.0094Y-3.9409
X6.1094Y-3.9409
X6.2094Y-3.9409
X6.3094Y-3.9409
X6.4094Y-3.9409
X6.5094Y-3.9409
X6.6094Y-3.9409
X6.7094Y-3.9409
X6.8094Y-3.9409
X6.9094Y-3.9409
X8.8256Y-3.9281
X8.9256Y-3.9281
X9.0256Y-3.9281
X9.1256Y-3.9281
X9.2256Y-3.9281
X9.3256Y-3.9281
X9.4256Y-3.9281
X9.5256Y-3.9281
T5
X2.5724Y-4.1641
X7.4306Y-4.1641
T0
M30
