%TF.GenerationSoftware,KiCad,Pcbnew,6.0.2+dfsg-1*%
%TF.CreationDate,2022-05-30T16:29:05+01:00*%
%TF.ProjectId,Keyboard,4b657962-6f61-4726-942e-6b696361645f,rev?*%
%TF.SameCoordinates,Original*%
%TF.FileFunction,Soldermask,Top*%
%TF.FilePolarity,Negative*%
%FSLAX46Y46*%
G04 Gerber Fmt 4.6, Leading zero omitted, Abs format (unit mm)*
G04 Created by KiCad (PCBNEW 6.0.2+dfsg-1) date 2022-05-30 16:29:05*
%MOMM*%
%LPD*%
G01*
G04 APERTURE LIST*
%ADD10R,1.700000X1.700000*%
%ADD11O,1.700000X1.700000*%
%ADD12R,1.600000X2.400000*%
%ADD13O,1.600000X2.400000*%
%ADD14R,1.800000X1.800000*%
%ADD15O,1.800000X1.800000*%
%ADD16C,7.000000*%
G04 APERTURE END LIST*
D10*
%TO.C,J2*%
X175500000Y-100100000D03*
D11*
X172960000Y-100100000D03*
X170420000Y-100100000D03*
X167880000Y-100100000D03*
X165340000Y-100100000D03*
X162800000Y-100100000D03*
X160260000Y-100100000D03*
X157720000Y-100100000D03*
X155180000Y-100100000D03*
X152640000Y-100100000D03*
X150100000Y-100100000D03*
X147560000Y-100100000D03*
X145020000Y-100100000D03*
X142480000Y-100100000D03*
X139940000Y-100100000D03*
X137400000Y-100100000D03*
X134860000Y-100100000D03*
%TD*%
D12*
%TO.C,U4*%
X220894400Y-98454000D03*
D13*
X218354400Y-98454000D03*
X215814400Y-98454000D03*
X213274400Y-98454000D03*
X210734400Y-98454000D03*
X208194400Y-98454000D03*
X205654400Y-98454000D03*
X205654400Y-106074000D03*
X208194400Y-106074000D03*
X210734400Y-106074000D03*
X213274400Y-106074000D03*
X215814400Y-106074000D03*
X218354400Y-106074000D03*
X220894400Y-106074000D03*
%TD*%
D14*
%TO.C,D28*%
X105730800Y-113287600D03*
D15*
X98110800Y-113287600D03*
%TD*%
D14*
%TO.C,D47*%
X144592800Y-105134200D03*
D15*
X144592800Y-112754200D03*
%TD*%
D14*
%TO.C,D22*%
X170678600Y-105108800D03*
D15*
X170678600Y-112728800D03*
%TD*%
D14*
%TO.C,D1*%
X108270800Y-106785200D03*
D15*
X100650800Y-106785200D03*
%TD*%
D14*
%TO.C,D44*%
X80915000Y-122457000D03*
D15*
X73295000Y-122457000D03*
%TD*%
D14*
%TO.C,D12*%
X45837600Y-123930200D03*
D15*
X53457600Y-123930200D03*
%TD*%
D14*
%TO.C,D25*%
X158664400Y-126876600D03*
D15*
X158664400Y-134496600D03*
%TD*%
D14*
%TO.C,D41*%
X198593200Y-98250800D03*
D15*
X198593200Y-105870800D03*
%TD*%
D14*
%TO.C,D52*%
X138039600Y-105159600D03*
D15*
X138039600Y-112779600D03*
%TD*%
D14*
%TO.C,D6*%
X105730800Y-119942400D03*
D15*
X98110800Y-119942400D03*
%TD*%
D14*
%TO.C,D8*%
X50562000Y-113059000D03*
D15*
X58182000Y-113059000D03*
%TD*%
D14*
%TO.C,D31*%
X83302600Y-112551000D03*
D15*
X75682600Y-112551000D03*
%TD*%
D14*
%TO.C,D16*%
X103343200Y-133201200D03*
D15*
X95723200Y-133201200D03*
%TD*%
D14*
%TO.C,D46*%
X151146000Y-105134200D03*
D15*
X151146000Y-112754200D03*
%TD*%
D16*
%TO.C,H2*%
X65338000Y-105769200D03*
%TD*%
D14*
%TO.C,D55*%
X108321600Y-110061800D03*
D15*
X100701600Y-110061800D03*
%TD*%
D14*
%TO.C,D30*%
X83302600Y-105743800D03*
D15*
X75682600Y-105743800D03*
%TD*%
D14*
%TO.C,D20*%
X173955200Y-105083400D03*
D15*
X173955200Y-112703400D03*
%TD*%
D14*
%TO.C,D18*%
X178425600Y-105134200D03*
D15*
X178425600Y-112754200D03*
%TD*%
D14*
%TO.C,D15*%
X105883200Y-123346000D03*
D15*
X98263200Y-123346000D03*
%TD*%
D14*
%TO.C,D43*%
X105730800Y-116640400D03*
D15*
X98110800Y-116640400D03*
%TD*%
D10*
%TO.C,J5*%
X56271600Y-99882200D03*
D11*
X53731600Y-99882200D03*
X51191600Y-99882200D03*
X48651600Y-99882200D03*
X46111600Y-99882200D03*
%TD*%
D14*
%TO.C,D35*%
X155311600Y-126825800D03*
D15*
X155311600Y-134445800D03*
%TD*%
D14*
%TO.C,D56*%
X80915000Y-132413800D03*
D15*
X73295000Y-132413800D03*
%TD*%
D14*
%TO.C,D5*%
X80915000Y-125708200D03*
D15*
X73295000Y-125708200D03*
%TD*%
D14*
%TO.C,D32*%
X160975800Y-105134200D03*
D15*
X160975800Y-112754200D03*
%TD*%
D10*
%TO.C,J1*%
X38019000Y-100314000D03*
D11*
X35479000Y-100314000D03*
%TD*%
D14*
%TO.C,D9*%
X48428400Y-116665800D03*
D15*
X56048400Y-116665800D03*
%TD*%
D14*
%TO.C,D51*%
X134763000Y-105134200D03*
D15*
X134763000Y-112754200D03*
%TD*%
D14*
%TO.C,D19*%
X175936400Y-118621600D03*
D15*
X183556400Y-118621600D03*
%TD*%
D14*
%TO.C,D29*%
X103368600Y-126673400D03*
D15*
X95748600Y-126673400D03*
%TD*%
D14*
%TO.C,D39*%
X185740800Y-98606400D03*
D15*
X193360800Y-98606400D03*
%TD*%
D14*
%TO.C,D40*%
X128159000Y-105134200D03*
D15*
X128159000Y-112754200D03*
%TD*%
D14*
%TO.C,D45*%
X147844000Y-105134200D03*
D15*
X147844000Y-112754200D03*
%TD*%
D10*
%TO.C,J4*%
X107274800Y-100060000D03*
D11*
X104734800Y-100060000D03*
X102194800Y-100060000D03*
X99654800Y-100060000D03*
X97114800Y-100060000D03*
%TD*%
D14*
%TO.C,D7*%
X50511200Y-109655400D03*
D15*
X58131200Y-109655400D03*
%TD*%
D14*
%TO.C,D36*%
X157673800Y-105134200D03*
D15*
X157673800Y-112754200D03*
%TD*%
D14*
%TO.C,D27*%
X83302600Y-115802200D03*
D15*
X75682600Y-115802200D03*
%TD*%
D14*
%TO.C,D17*%
X80305400Y-93475600D03*
D15*
X72685400Y-93475600D03*
%TD*%
D14*
%TO.C,D38*%
X154422600Y-105134200D03*
D15*
X154422600Y-112754200D03*
%TD*%
D14*
%TO.C,D14*%
X43297600Y-135157000D03*
D15*
X50917600Y-135157000D03*
%TD*%
D14*
%TO.C,D37*%
X185740800Y-95152000D03*
D15*
X193360800Y-95152000D03*
%TD*%
D14*
%TO.C,D23*%
X152009600Y-126876600D03*
D15*
X152009600Y-134496600D03*
%TD*%
D14*
%TO.C,D2*%
X80915000Y-135766600D03*
D15*
X73295000Y-135766600D03*
%TD*%
D10*
%TO.C,J3*%
X258903200Y-100390200D03*
D11*
X256363200Y-100390200D03*
X253823200Y-100390200D03*
X251283200Y-100390200D03*
X248743200Y-100390200D03*
X246203200Y-100390200D03*
X243663200Y-100390200D03*
X241123200Y-100390200D03*
%TD*%
D14*
%TO.C,D21*%
X181753000Y-105134200D03*
D15*
X181753000Y-112754200D03*
%TD*%
D12*
%TO.C,U1*%
X239507600Y-134791000D03*
D13*
X242047600Y-134791000D03*
X244587600Y-134791000D03*
X247127600Y-134791000D03*
X249667600Y-134791000D03*
X252207600Y-134791000D03*
X254747600Y-134791000D03*
X254747600Y-127171000D03*
X252207600Y-127171000D03*
X249667600Y-127171000D03*
X247127600Y-127171000D03*
X244587600Y-127171000D03*
X242047600Y-127171000D03*
X239507600Y-127171000D03*
%TD*%
D14*
%TO.C,D11*%
X45837600Y-127740200D03*
D15*
X53457600Y-127740200D03*
%TD*%
D14*
%TO.C,D48*%
X206492600Y-127054400D03*
D15*
X206492600Y-134674400D03*
%TD*%
D14*
%TO.C,D54*%
X103317800Y-136630200D03*
D15*
X95697800Y-136630200D03*
%TD*%
D14*
%TO.C,D3*%
X103368600Y-129950000D03*
D15*
X95748600Y-129950000D03*
%TD*%
D14*
%TO.C,D24*%
X167376600Y-105108800D03*
D15*
X167376600Y-112728800D03*
%TD*%
D14*
%TO.C,D13*%
X43500800Y-131753400D03*
D15*
X51120800Y-131753400D03*
%TD*%
D12*
%TO.C,U3*%
X174534400Y-134003600D03*
D13*
X177074400Y-134003600D03*
X179614400Y-134003600D03*
X182154400Y-134003600D03*
X184694400Y-134003600D03*
X187234400Y-134003600D03*
X189774400Y-134003600D03*
X189774400Y-126383600D03*
X187234400Y-126383600D03*
X184694400Y-126383600D03*
X182154400Y-126383600D03*
X179614400Y-126383600D03*
X177074400Y-126383600D03*
X174534400Y-126383600D03*
%TD*%
D14*
%TO.C,D50*%
X199101200Y-126825800D03*
D15*
X199101200Y-134445800D03*
%TD*%
D16*
%TO.C,H1*%
X188738000Y-105769200D03*
%TD*%
D14*
%TO.C,D49*%
X141316200Y-105159600D03*
D15*
X141316200Y-112779600D03*
%TD*%
D14*
%TO.C,D53*%
X83302600Y-119053400D03*
D15*
X75682600Y-119053400D03*
%TD*%
D14*
%TO.C,D4*%
X83302600Y-109147400D03*
D15*
X75682600Y-109147400D03*
%TD*%
D12*
%TO.C,U2*%
X125156800Y-134156000D03*
D13*
X127696800Y-134156000D03*
X130236800Y-134156000D03*
X132776800Y-134156000D03*
X135316800Y-134156000D03*
X137856800Y-134156000D03*
X140396800Y-134156000D03*
X140396800Y-126536000D03*
X137856800Y-126536000D03*
X135316800Y-126536000D03*
X132776800Y-126536000D03*
X130236800Y-126536000D03*
X127696800Y-126536000D03*
X125156800Y-126536000D03*
%TD*%
D14*
%TO.C,D10*%
X48428400Y-120069400D03*
D15*
X56048400Y-120069400D03*
%TD*%
D14*
%TO.C,D42*%
X80915000Y-128959400D03*
D15*
X73295000Y-128959400D03*
%TD*%
D14*
%TO.C,D26*%
X161966400Y-126876600D03*
D15*
X161966400Y-134496600D03*
%TD*%
D14*
%TO.C,D33*%
X164176200Y-105108800D03*
D15*
X164176200Y-112728800D03*
%TD*%
D12*
%TO.C,U5*%
X210526200Y-134537000D03*
D13*
X213066200Y-134537000D03*
X215606200Y-134537000D03*
X218146200Y-134537000D03*
X220686200Y-134537000D03*
X223226200Y-134537000D03*
X225766200Y-134537000D03*
X225766200Y-126917000D03*
X223226200Y-126917000D03*
X220686200Y-126917000D03*
X218146200Y-126917000D03*
X215606200Y-126917000D03*
X213066200Y-126917000D03*
X210526200Y-126917000D03*
%TD*%
D14*
%TO.C,D34*%
X131486400Y-105134200D03*
D15*
X131486400Y-112754200D03*
%TD*%
M02*
