%TF.GenerationSoftware,KiCad,Pcbnew,6.0.2+dfsg-1*%
%TF.CreationDate,2022-06-22T10:26:47+01:00*%
%TF.ProjectId,Keyboard,4b657962-6f61-4726-942e-6b696361645f,2*%
%TF.SameCoordinates,Original*%
%TF.FileFunction,Legend,Bot*%
%TF.FilePolarity,Positive*%
%FSLAX46Y46*%
G04 Gerber Fmt 4.6, Leading zero omitted, Abs format (unit mm)*
G04 Created by KiCad (PCBNEW 6.0.2+dfsg-1) date 2022-06-22 10:26:47*
%MOMM*%
%LPD*%
G01*
G04 APERTURE LIST*
%ADD10C,0.150000*%
%ADD11C,0.300000*%
G04 APERTURE END LIST*
D10*
X224394400Y-90467976D02*
X224394400Y-90944166D01*
X224840114Y-90372738D02*
X223280114Y-90706071D01*
X224840114Y-91039404D01*
X224840114Y-91896547D02*
X224840114Y-91325119D01*
X224840114Y-91610833D02*
X223280114Y-91610833D01*
X223502971Y-91515595D01*
X223651542Y-91420357D01*
X223725828Y-91325119D01*
X224840114Y-92848928D02*
X224840114Y-92277500D01*
X224840114Y-92563214D02*
X223280114Y-92563214D01*
X223502971Y-92467976D01*
X223651542Y-92372738D01*
X223725828Y-92277500D01*
X225434400Y-94325119D02*
X225360114Y-94277500D01*
X225137257Y-94182261D01*
X224988685Y-94134642D01*
X224765828Y-94087023D01*
X224394400Y-94039404D01*
X224097257Y-94039404D01*
X223725828Y-94087023D01*
X223502971Y-94134642D01*
X223354400Y-94182261D01*
X223131542Y-94277500D01*
X223057257Y-94325119D01*
X224840114Y-95229880D02*
X224840114Y-94658452D01*
X224840114Y-94944166D02*
X223280114Y-94944166D01*
X223502971Y-94848928D01*
X223651542Y-94753690D01*
X223725828Y-94658452D01*
X224245828Y-95658452D02*
X224245828Y-96420357D01*
X223280114Y-97372738D02*
X223280114Y-96896547D01*
X224022971Y-96848928D01*
X223948685Y-96896547D01*
X223874400Y-96991785D01*
X223874400Y-97229880D01*
X223948685Y-97325119D01*
X224022971Y-97372738D01*
X224171542Y-97420357D01*
X224542971Y-97420357D01*
X224691542Y-97372738D01*
X224765828Y-97325119D01*
X224840114Y-97229880D01*
X224840114Y-96991785D01*
X224765828Y-96896547D01*
X224691542Y-96848928D01*
X225434400Y-97753690D02*
X225360114Y-97801309D01*
X225137257Y-97896547D01*
X224988685Y-97944166D01*
X224765828Y-97991785D01*
X224394400Y-98039404D01*
X224097257Y-98039404D01*
X223725828Y-97991785D01*
X223502971Y-97944166D01*
X223354400Y-97896547D01*
X223131542Y-97801309D01*
X223057257Y-97753690D01*
X226906000Y-90563214D02*
X226906000Y-91039404D01*
X227351714Y-90467976D02*
X225791714Y-90801309D01*
X227351714Y-91134642D01*
X227351714Y-91991785D02*
X227351714Y-91420357D01*
X227351714Y-91706071D02*
X225791714Y-91706071D01*
X226014571Y-91610833D01*
X226163142Y-91515595D01*
X226237428Y-91420357D01*
X225791714Y-92610833D02*
X225791714Y-92706071D01*
X225866000Y-92801309D01*
X225940285Y-92848928D01*
X226088857Y-92896547D01*
X226386000Y-92944166D01*
X226757428Y-92944166D01*
X227054571Y-92896547D01*
X227203142Y-92848928D01*
X227277428Y-92801309D01*
X227351714Y-92706071D01*
X227351714Y-92610833D01*
X227277428Y-92515595D01*
X227203142Y-92467976D01*
X227054571Y-92420357D01*
X226757428Y-92372738D01*
X226386000Y-92372738D01*
X226088857Y-92420357D01*
X225940285Y-92467976D01*
X225866000Y-92515595D01*
X225791714Y-92610833D01*
X227946000Y-94420357D02*
X227871714Y-94372738D01*
X227648857Y-94277500D01*
X227500285Y-94229880D01*
X227277428Y-94182261D01*
X226906000Y-94134642D01*
X226608857Y-94134642D01*
X226237428Y-94182261D01*
X226014571Y-94229880D01*
X225866000Y-94277500D01*
X225643142Y-94372738D01*
X225568857Y-94420357D01*
X227500285Y-95467976D02*
X227426000Y-95372738D01*
X227277428Y-95277500D01*
X227054571Y-95134642D01*
X226980285Y-95039404D01*
X226980285Y-94944166D01*
X227351714Y-94991785D02*
X227277428Y-94896547D01*
X227128857Y-94801309D01*
X226831714Y-94753690D01*
X226311714Y-94753690D01*
X226014571Y-94801309D01*
X225866000Y-94896547D01*
X225791714Y-94991785D01*
X225791714Y-95182261D01*
X225866000Y-95277500D01*
X226014571Y-95372738D01*
X226311714Y-95420357D01*
X226831714Y-95420357D01*
X227128857Y-95372738D01*
X227277428Y-95277500D01*
X227351714Y-95182261D01*
X227351714Y-94991785D01*
X226757428Y-95848928D02*
X226757428Y-96610833D01*
X225791714Y-96944166D02*
X225791714Y-97515595D01*
X227351714Y-97229880D02*
X225791714Y-97229880D01*
X227946000Y-97753690D02*
X227871714Y-97801309D01*
X227648857Y-97896547D01*
X227500285Y-97944166D01*
X227277428Y-97991785D01*
X226906000Y-98039404D01*
X226608857Y-98039404D01*
X226237428Y-97991785D01*
X226014571Y-97944166D01*
X225866000Y-97896547D01*
X225643142Y-97801309D01*
X225568857Y-97753690D01*
X229417600Y-90515595D02*
X229417600Y-90991785D01*
X229863314Y-90420357D02*
X228303314Y-90753690D01*
X229863314Y-91087023D01*
X228303314Y-91610833D02*
X228303314Y-91706071D01*
X228377600Y-91801309D01*
X228451885Y-91848928D01*
X228600457Y-91896547D01*
X228897600Y-91944166D01*
X229269028Y-91944166D01*
X229566171Y-91896547D01*
X229714742Y-91848928D01*
X229789028Y-91801309D01*
X229863314Y-91706071D01*
X229863314Y-91610833D01*
X229789028Y-91515595D01*
X229714742Y-91467976D01*
X229566171Y-91420357D01*
X229269028Y-91372738D01*
X228897600Y-91372738D01*
X228600457Y-91420357D01*
X228451885Y-91467976D01*
X228377600Y-91515595D01*
X228303314Y-91610833D01*
X229863314Y-92420357D02*
X229863314Y-92610833D01*
X229789028Y-92706071D01*
X229714742Y-92753690D01*
X229491885Y-92848928D01*
X229194742Y-92896547D01*
X228600457Y-92896547D01*
X228451885Y-92848928D01*
X228377600Y-92801309D01*
X228303314Y-92706071D01*
X228303314Y-92515595D01*
X228377600Y-92420357D01*
X228451885Y-92372738D01*
X228600457Y-92325119D01*
X228971885Y-92325119D01*
X229120457Y-92372738D01*
X229194742Y-92420357D01*
X229269028Y-92515595D01*
X229269028Y-92706071D01*
X229194742Y-92801309D01*
X229120457Y-92848928D01*
X228971885Y-92896547D01*
X230457600Y-94372738D02*
X230383314Y-94325119D01*
X230160457Y-94229880D01*
X230011885Y-94182261D01*
X229789028Y-94134642D01*
X229417600Y-94087023D01*
X229120457Y-94087023D01*
X228749028Y-94134642D01*
X228526171Y-94182261D01*
X228377600Y-94229880D01*
X228154742Y-94325119D01*
X228080457Y-94372738D01*
X229417600Y-94706071D02*
X229417600Y-95182261D01*
X229863314Y-94610833D02*
X228303314Y-94944166D01*
X229863314Y-95277500D01*
X229269028Y-95610833D02*
X229269028Y-96372738D01*
X228377600Y-97372738D02*
X228303314Y-97277500D01*
X228303314Y-97134642D01*
X228377600Y-96991785D01*
X228526171Y-96896547D01*
X228674742Y-96848928D01*
X228971885Y-96801309D01*
X229194742Y-96801309D01*
X229491885Y-96848928D01*
X229640457Y-96896547D01*
X229789028Y-96991785D01*
X229863314Y-97134642D01*
X229863314Y-97229880D01*
X229789028Y-97372738D01*
X229714742Y-97420357D01*
X229194742Y-97420357D01*
X229194742Y-97229880D01*
X230457600Y-97753690D02*
X230383314Y-97801309D01*
X230160457Y-97896547D01*
X230011885Y-97944166D01*
X229789028Y-97991785D01*
X229417600Y-98039404D01*
X229120457Y-98039404D01*
X228749028Y-97991785D01*
X228526171Y-97944166D01*
X228377600Y-97896547D01*
X228154742Y-97801309D01*
X228080457Y-97753690D01*
X231929200Y-90467976D02*
X231929200Y-90944166D01*
X232374914Y-90372738D02*
X230814914Y-90706071D01*
X232374914Y-91039404D01*
X232374914Y-91896547D02*
X232374914Y-91325119D01*
X232374914Y-91610833D02*
X230814914Y-91610833D01*
X231037771Y-91515595D01*
X231186342Y-91420357D01*
X231260628Y-91325119D01*
X230963485Y-92277500D02*
X230889200Y-92325119D01*
X230814914Y-92420357D01*
X230814914Y-92658452D01*
X230889200Y-92753690D01*
X230963485Y-92801309D01*
X231112057Y-92848928D01*
X231260628Y-92848928D01*
X231483485Y-92801309D01*
X232374914Y-92229880D01*
X232374914Y-92848928D01*
X232969200Y-94325119D02*
X232894914Y-94277500D01*
X232672057Y-94182261D01*
X232523485Y-94134642D01*
X232300628Y-94087023D01*
X231929200Y-94039404D01*
X231632057Y-94039404D01*
X231260628Y-94087023D01*
X231037771Y-94134642D01*
X230889200Y-94182261D01*
X230666342Y-94277500D01*
X230592057Y-94325119D01*
X230814914Y-95134642D02*
X230814914Y-94944166D01*
X230889200Y-94848928D01*
X230963485Y-94801309D01*
X231186342Y-94706071D01*
X231483485Y-94658452D01*
X232077771Y-94658452D01*
X232226342Y-94706071D01*
X232300628Y-94753690D01*
X232374914Y-94848928D01*
X232374914Y-95039404D01*
X232300628Y-95134642D01*
X232226342Y-95182261D01*
X232077771Y-95229880D01*
X231706342Y-95229880D01*
X231557771Y-95182261D01*
X231483485Y-95134642D01*
X231409200Y-95039404D01*
X231409200Y-94848928D01*
X231483485Y-94753690D01*
X231557771Y-94706071D01*
X231706342Y-94658452D01*
X231780628Y-95658452D02*
X231780628Y-96420357D01*
X230814914Y-97087023D02*
X230814914Y-97182261D01*
X230889200Y-97277500D01*
X230963485Y-97325119D01*
X231112057Y-97372738D01*
X231409200Y-97420357D01*
X231780628Y-97420357D01*
X232077771Y-97372738D01*
X232226342Y-97325119D01*
X232300628Y-97277500D01*
X232374914Y-97182261D01*
X232374914Y-97087023D01*
X232300628Y-96991785D01*
X232226342Y-96944166D01*
X232077771Y-96896547D01*
X231780628Y-96848928D01*
X231409200Y-96848928D01*
X231112057Y-96896547D01*
X230963485Y-96944166D01*
X230889200Y-96991785D01*
X230814914Y-97087023D01*
X232969200Y-97753690D02*
X232894914Y-97801309D01*
X232672057Y-97896547D01*
X232523485Y-97944166D01*
X232300628Y-97991785D01*
X231929200Y-98039404D01*
X231632057Y-98039404D01*
X231260628Y-97991785D01*
X231037771Y-97944166D01*
X230889200Y-97896547D01*
X230666342Y-97801309D01*
X230592057Y-97753690D01*
X234440800Y-90515595D02*
X234440800Y-90991785D01*
X234886514Y-90420357D02*
X233326514Y-90753690D01*
X234886514Y-91087023D01*
X234886514Y-91944166D02*
X234886514Y-91372738D01*
X234886514Y-91658452D02*
X233326514Y-91658452D01*
X233549371Y-91563214D01*
X233697942Y-91467976D01*
X233772228Y-91372738D01*
X233326514Y-92277500D02*
X233326514Y-92896547D01*
X233920800Y-92563214D01*
X233920800Y-92706071D01*
X233995085Y-92801309D01*
X234069371Y-92848928D01*
X234217942Y-92896547D01*
X234589371Y-92896547D01*
X234737942Y-92848928D01*
X234812228Y-92801309D01*
X234886514Y-92706071D01*
X234886514Y-92420357D01*
X234812228Y-92325119D01*
X234737942Y-92277500D01*
X235480800Y-94372738D02*
X235406514Y-94325119D01*
X235183657Y-94229880D01*
X235035085Y-94182261D01*
X234812228Y-94134642D01*
X234440800Y-94087023D01*
X234143657Y-94087023D01*
X233772228Y-94134642D01*
X233549371Y-94182261D01*
X233400800Y-94229880D01*
X233177942Y-94325119D01*
X233103657Y-94372738D01*
X234886514Y-94753690D02*
X233326514Y-94753690D01*
X233326514Y-95134642D01*
X233400800Y-95229880D01*
X233475085Y-95277500D01*
X233623657Y-95325119D01*
X233846514Y-95325119D01*
X233995085Y-95277500D01*
X234069371Y-95229880D01*
X234143657Y-95134642D01*
X234143657Y-94753690D01*
X234069371Y-95753690D02*
X234069371Y-96515595D01*
X234515085Y-96515595D02*
X234515085Y-95753690D01*
X234143657Y-97182261D02*
X234886514Y-97182261D01*
X233326514Y-96848928D02*
X234143657Y-97182261D01*
X233326514Y-97515595D01*
X235480800Y-97753690D02*
X235406514Y-97801309D01*
X235183657Y-97896547D01*
X235035085Y-97944166D01*
X234812228Y-97991785D01*
X234440800Y-98039404D01*
X234143657Y-98039404D01*
X233772228Y-97991785D01*
X233549371Y-97944166D01*
X233400800Y-97896547D01*
X233177942Y-97801309D01*
X233103657Y-97753690D01*
X236952400Y-89563214D02*
X236952400Y-90039404D01*
X237398114Y-89467976D02*
X235838114Y-89801309D01*
X237398114Y-90134642D01*
X235838114Y-90658452D02*
X235838114Y-90753690D01*
X235912400Y-90848928D01*
X235986685Y-90896547D01*
X236135257Y-90944166D01*
X236432400Y-90991785D01*
X236803828Y-90991785D01*
X237100971Y-90944166D01*
X237249542Y-90896547D01*
X237323828Y-90848928D01*
X237398114Y-90753690D01*
X237398114Y-90658452D01*
X237323828Y-90563214D01*
X237249542Y-90515595D01*
X237100971Y-90467976D01*
X236803828Y-90420357D01*
X236432400Y-90420357D01*
X236135257Y-90467976D01*
X235986685Y-90515595D01*
X235912400Y-90563214D01*
X235838114Y-90658452D01*
X236506685Y-91563214D02*
X236432400Y-91467976D01*
X236358114Y-91420357D01*
X236209542Y-91372738D01*
X236135257Y-91372738D01*
X235986685Y-91420357D01*
X235912400Y-91467976D01*
X235838114Y-91563214D01*
X235838114Y-91753690D01*
X235912400Y-91848928D01*
X235986685Y-91896547D01*
X236135257Y-91944166D01*
X236209542Y-91944166D01*
X236358114Y-91896547D01*
X236432400Y-91848928D01*
X236506685Y-91753690D01*
X236506685Y-91563214D01*
X236580971Y-91467976D01*
X236655257Y-91420357D01*
X236803828Y-91372738D01*
X237100971Y-91372738D01*
X237249542Y-91420357D01*
X237323828Y-91467976D01*
X237398114Y-91563214D01*
X237398114Y-91753690D01*
X237323828Y-91848928D01*
X237249542Y-91896547D01*
X237100971Y-91944166D01*
X236803828Y-91944166D01*
X236655257Y-91896547D01*
X236580971Y-91848928D01*
X236506685Y-91753690D01*
X237992400Y-93420357D02*
X237918114Y-93372738D01*
X237695257Y-93277500D01*
X237546685Y-93229880D01*
X237323828Y-93182261D01*
X236952400Y-93134642D01*
X236655257Y-93134642D01*
X236283828Y-93182261D01*
X236060971Y-93229880D01*
X235912400Y-93277500D01*
X235689542Y-93372738D01*
X235615257Y-93420357D01*
X237249542Y-94372738D02*
X237323828Y-94325119D01*
X237398114Y-94182261D01*
X237398114Y-94087023D01*
X237323828Y-93944166D01*
X237175257Y-93848928D01*
X237026685Y-93801309D01*
X236729542Y-93753690D01*
X236506685Y-93753690D01*
X236209542Y-93801309D01*
X236060971Y-93848928D01*
X235912400Y-93944166D01*
X235838114Y-94087023D01*
X235838114Y-94182261D01*
X235912400Y-94325119D01*
X235986685Y-94372738D01*
X237323828Y-94753690D02*
X237398114Y-94896547D01*
X237398114Y-95134642D01*
X237323828Y-95229880D01*
X237249542Y-95277500D01*
X237100971Y-95325119D01*
X236952400Y-95325119D01*
X236803828Y-95277500D01*
X236729542Y-95229880D01*
X236655257Y-95134642D01*
X236580971Y-94944166D01*
X236506685Y-94848928D01*
X236432400Y-94801309D01*
X236283828Y-94753690D01*
X236135257Y-94753690D01*
X235986685Y-94801309D01*
X235912400Y-94848928D01*
X235838114Y-94944166D01*
X235838114Y-95182261D01*
X235912400Y-95325119D01*
X236803828Y-95753690D02*
X236803828Y-96515595D01*
X235838114Y-96848928D02*
X237398114Y-97182261D01*
X235838114Y-97515595D01*
X237992400Y-97753690D02*
X237918114Y-97801309D01*
X237695257Y-97896547D01*
X237546685Y-97944166D01*
X237323828Y-97991785D01*
X236952400Y-98039404D01*
X236655257Y-98039404D01*
X236283828Y-97991785D01*
X236060971Y-97944166D01*
X235912400Y-97896547D01*
X235689542Y-97801309D01*
X235615257Y-97753690D01*
X239464000Y-89515595D02*
X239464000Y-89991785D01*
X239909714Y-89420357D02*
X238349714Y-89753690D01*
X239909714Y-90087023D01*
X239909714Y-90944166D02*
X239909714Y-90372738D01*
X239909714Y-90658452D02*
X238349714Y-90658452D01*
X238572571Y-90563214D01*
X238721142Y-90467976D01*
X238795428Y-90372738D01*
X238869714Y-91801309D02*
X239909714Y-91801309D01*
X238275428Y-91563214D02*
X239389714Y-91325119D01*
X239389714Y-91944166D01*
X240504000Y-93372738D02*
X240429714Y-93325119D01*
X240206857Y-93229880D01*
X240058285Y-93182261D01*
X239835428Y-93134642D01*
X239464000Y-93087023D01*
X239166857Y-93087023D01*
X238795428Y-93134642D01*
X238572571Y-93182261D01*
X238424000Y-93229880D01*
X238201142Y-93325119D01*
X238126857Y-93372738D01*
X239092571Y-93753690D02*
X239092571Y-94087023D01*
X239909714Y-94229880D02*
X239909714Y-93753690D01*
X238349714Y-93753690D01*
X238349714Y-94229880D01*
X238869714Y-94658452D02*
X239909714Y-94658452D01*
X239018285Y-94658452D02*
X238944000Y-94706071D01*
X238869714Y-94801309D01*
X238869714Y-94944166D01*
X238944000Y-95039404D01*
X239092571Y-95087023D01*
X239909714Y-95087023D01*
X239315428Y-95563214D02*
X239315428Y-96325119D01*
X239909714Y-96801309D02*
X238349714Y-96801309D01*
X239092571Y-96801309D02*
X239092571Y-97372738D01*
X239909714Y-97372738D02*
X238349714Y-97372738D01*
X240504000Y-97753690D02*
X240429714Y-97801309D01*
X240206857Y-97896547D01*
X240058285Y-97944166D01*
X239835428Y-97991785D01*
X239464000Y-98039404D01*
X239166857Y-98039404D01*
X238795428Y-97991785D01*
X238572571Y-97944166D01*
X238424000Y-97896547D01*
X238201142Y-97801309D01*
X238126857Y-97753690D01*
X241975600Y-89420357D02*
X241975600Y-89896547D01*
X242421314Y-89325119D02*
X240861314Y-89658452D01*
X242421314Y-89991785D01*
X242421314Y-90848928D02*
X242421314Y-90277500D01*
X242421314Y-90563214D02*
X240861314Y-90563214D01*
X241084171Y-90467976D01*
X241232742Y-90372738D01*
X241307028Y-90277500D01*
X240861314Y-91753690D02*
X240861314Y-91277500D01*
X241604171Y-91229880D01*
X241529885Y-91277500D01*
X241455600Y-91372738D01*
X241455600Y-91610833D01*
X241529885Y-91706071D01*
X241604171Y-91753690D01*
X241752742Y-91801309D01*
X242124171Y-91801309D01*
X242272742Y-91753690D01*
X242347028Y-91706071D01*
X242421314Y-91610833D01*
X242421314Y-91372738D01*
X242347028Y-91277500D01*
X242272742Y-91229880D01*
X243015600Y-93277500D02*
X242941314Y-93229880D01*
X242718457Y-93134642D01*
X242569885Y-93087023D01*
X242347028Y-93039404D01*
X241975600Y-92991785D01*
X241678457Y-92991785D01*
X241307028Y-93039404D01*
X241084171Y-93087023D01*
X240935600Y-93134642D01*
X240712742Y-93229880D01*
X240638457Y-93277500D01*
X242347028Y-93610833D02*
X242421314Y-93753690D01*
X242421314Y-93991785D01*
X242347028Y-94087023D01*
X242272742Y-94134642D01*
X242124171Y-94182261D01*
X241975600Y-94182261D01*
X241827028Y-94134642D01*
X241752742Y-94087023D01*
X241678457Y-93991785D01*
X241604171Y-93801309D01*
X241529885Y-93706071D01*
X241455600Y-93658452D01*
X241307028Y-93610833D01*
X241158457Y-93610833D01*
X241009885Y-93658452D01*
X240935600Y-93706071D01*
X240861314Y-93801309D01*
X240861314Y-94039404D01*
X240935600Y-94182261D01*
X242421314Y-94610833D02*
X240861314Y-94610833D01*
X240861314Y-94991785D01*
X240935600Y-95087023D01*
X241009885Y-95134642D01*
X241158457Y-95182261D01*
X241381314Y-95182261D01*
X241529885Y-95134642D01*
X241604171Y-95087023D01*
X241678457Y-94991785D01*
X241678457Y-94610833D01*
X241827028Y-95610833D02*
X241827028Y-96372738D01*
X241604171Y-97182261D02*
X241678457Y-97325119D01*
X241752742Y-97372738D01*
X241901314Y-97420357D01*
X242124171Y-97420357D01*
X242272742Y-97372738D01*
X242347028Y-97325119D01*
X242421314Y-97229880D01*
X242421314Y-96848928D01*
X240861314Y-96848928D01*
X240861314Y-97182261D01*
X240935600Y-97277500D01*
X241009885Y-97325119D01*
X241158457Y-97372738D01*
X241307028Y-97372738D01*
X241455600Y-97325119D01*
X241529885Y-97277500D01*
X241604171Y-97182261D01*
X241604171Y-96848928D01*
X243015600Y-97753690D02*
X242941314Y-97801309D01*
X242718457Y-97896547D01*
X242569885Y-97944166D01*
X242347028Y-97991785D01*
X241975600Y-98039404D01*
X241678457Y-98039404D01*
X241307028Y-97991785D01*
X241084171Y-97944166D01*
X240935600Y-97896547D01*
X240712742Y-97801309D01*
X240638457Y-97753690D01*
X134202914Y-96457261D02*
X135762914Y-96123928D01*
X134202914Y-95790595D01*
X135614342Y-94885833D02*
X135688628Y-94933452D01*
X135762914Y-95076309D01*
X135762914Y-95171547D01*
X135688628Y-95314404D01*
X135540057Y-95409642D01*
X135391485Y-95457261D01*
X135094342Y-95504880D01*
X134871485Y-95504880D01*
X134574342Y-95457261D01*
X134425771Y-95409642D01*
X134277200Y-95314404D01*
X134202914Y-95171547D01*
X134202914Y-95076309D01*
X134277200Y-94933452D01*
X134351485Y-94885833D01*
X135614342Y-93885833D02*
X135688628Y-93933452D01*
X135762914Y-94076309D01*
X135762914Y-94171547D01*
X135688628Y-94314404D01*
X135540057Y-94409642D01*
X135391485Y-94457261D01*
X135094342Y-94504880D01*
X134871485Y-94504880D01*
X134574342Y-94457261D01*
X134425771Y-94409642D01*
X134277200Y-94314404D01*
X134202914Y-94171547D01*
X134202914Y-94076309D01*
X134277200Y-93933452D01*
X134351485Y-93885833D01*
X136714514Y-96123928D02*
X136714514Y-96028690D01*
X136788800Y-95933452D01*
X136863085Y-95885833D01*
X137011657Y-95838214D01*
X137308800Y-95790595D01*
X137680228Y-95790595D01*
X137977371Y-95838214D01*
X138125942Y-95885833D01*
X138200228Y-95933452D01*
X138274514Y-96028690D01*
X138274514Y-96123928D01*
X138200228Y-96219166D01*
X138125942Y-96266785D01*
X137977371Y-96314404D01*
X137680228Y-96362023D01*
X137308800Y-96362023D01*
X137011657Y-96314404D01*
X136863085Y-96266785D01*
X136788800Y-96219166D01*
X136714514Y-96123928D01*
X137234514Y-95457261D02*
X138274514Y-95219166D01*
X137234514Y-94981071D01*
X139226114Y-96171547D02*
X139597542Y-96171547D01*
X139448971Y-96409642D02*
X139597542Y-96171547D01*
X139448971Y-95933452D01*
X139894685Y-96314404D02*
X139597542Y-96171547D01*
X139894685Y-96028690D01*
X141737714Y-96362023D02*
X142034857Y-96362023D01*
X141737714Y-95981071D02*
X142034857Y-95981071D01*
X145735028Y-96266785D02*
X145809314Y-96266785D01*
X145957885Y-96314404D01*
X146032171Y-96362023D01*
X148172342Y-96314404D02*
X148246628Y-96266785D01*
X148320914Y-96314404D01*
X148246628Y-96362023D01*
X148172342Y-96314404D01*
X148320914Y-96314404D01*
X149198228Y-95600119D02*
X151203942Y-96457261D01*
X152526971Y-96314404D02*
X152526971Y-95552500D01*
X152972685Y-95552500D02*
X152972685Y-96314404D01*
X154815714Y-96314404D02*
X155261428Y-95552500D01*
X155707142Y-96314404D01*
X157327314Y-95552500D02*
X157773028Y-96314404D01*
X158218742Y-95552500D01*
X160284628Y-96314404D02*
X160284628Y-95552500D01*
X162796228Y-96314404D02*
X162796228Y-95552500D01*
X163390514Y-95933452D02*
X162201942Y-95933452D01*
X164416400Y-95790595D02*
X164342114Y-95885833D01*
X164342114Y-96028690D01*
X164416400Y-96171547D01*
X164564971Y-96266785D01*
X164713542Y-96314404D01*
X165010685Y-96362023D01*
X165233542Y-96362023D01*
X165530685Y-96314404D01*
X165679257Y-96266785D01*
X165827828Y-96171547D01*
X165902114Y-96028690D01*
X165902114Y-95933452D01*
X165827828Y-95790595D01*
X165753542Y-95742976D01*
X165233542Y-95742976D01*
X165233542Y-95933452D01*
X165902114Y-95314404D02*
X164862114Y-95314404D01*
X165159257Y-95314404D02*
X165010685Y-95266785D01*
X164936400Y-95219166D01*
X164862114Y-95123928D01*
X164862114Y-95028690D01*
X165902114Y-94266785D02*
X165084971Y-94266785D01*
X164936400Y-94314404D01*
X164862114Y-94409642D01*
X164862114Y-94600119D01*
X164936400Y-94695357D01*
X165827828Y-94266785D02*
X165902114Y-94362023D01*
X165902114Y-94600119D01*
X165827828Y-94695357D01*
X165679257Y-94742976D01*
X165530685Y-94742976D01*
X165382114Y-94695357D01*
X165307828Y-94600119D01*
X165307828Y-94362023D01*
X165233542Y-94266785D01*
X164862114Y-93790595D02*
X166422114Y-93790595D01*
X164936400Y-93790595D02*
X164862114Y-93695357D01*
X164862114Y-93504880D01*
X164936400Y-93409642D01*
X165010685Y-93362023D01*
X165159257Y-93314404D01*
X165604971Y-93314404D01*
X165753542Y-93362023D01*
X165827828Y-93409642D01*
X165902114Y-93504880D01*
X165902114Y-93695357D01*
X165827828Y-93790595D01*
X165902114Y-92885833D02*
X164342114Y-92885833D01*
X165902114Y-92457261D02*
X165084971Y-92457261D01*
X164936400Y-92504880D01*
X164862114Y-92600119D01*
X164862114Y-92742976D01*
X164936400Y-92838214D01*
X165010685Y-92885833D01*
X168413714Y-96314404D02*
X166853714Y-96314404D01*
X167373714Y-95838214D02*
X168413714Y-95838214D01*
X167522285Y-95838214D02*
X167448000Y-95790595D01*
X167373714Y-95695357D01*
X167373714Y-95552500D01*
X167448000Y-95457261D01*
X167596571Y-95409642D01*
X168413714Y-95409642D01*
X167373714Y-95028690D02*
X168413714Y-94790595D01*
X167373714Y-94552500D01*
X169365314Y-96457261D02*
X169365314Y-95885833D01*
X170925314Y-96171547D02*
X169365314Y-96171547D01*
X170925314Y-95552500D02*
X169885314Y-95552500D01*
X170182457Y-95552500D02*
X170033885Y-95504880D01*
X169959600Y-95457261D01*
X169885314Y-95362023D01*
X169885314Y-95266785D01*
X169885314Y-94504880D02*
X170925314Y-94504880D01*
X169885314Y-94933452D02*
X170702457Y-94933452D01*
X170851028Y-94885833D01*
X170925314Y-94790595D01*
X170925314Y-94647738D01*
X170851028Y-94552500D01*
X170776742Y-94504880D01*
X170851028Y-93647738D02*
X170925314Y-93742976D01*
X170925314Y-93933452D01*
X170851028Y-94028690D01*
X170702457Y-94076309D01*
X170108171Y-94076309D01*
X169959600Y-94028690D01*
X169885314Y-93933452D01*
X169885314Y-93742976D01*
X169959600Y-93647738D01*
X170108171Y-93600119D01*
X170256742Y-93600119D01*
X170405314Y-94076309D01*
X173288342Y-95742976D02*
X173362628Y-95790595D01*
X173436914Y-95933452D01*
X173436914Y-96028690D01*
X173362628Y-96171547D01*
X173214057Y-96266785D01*
X173065485Y-96314404D01*
X172768342Y-96362023D01*
X172545485Y-96362023D01*
X172248342Y-96314404D01*
X172099771Y-96266785D01*
X171951200Y-96171547D01*
X171876914Y-96028690D01*
X171876914Y-95933452D01*
X171951200Y-95790595D01*
X172025485Y-95742976D01*
X173436914Y-94885833D02*
X172619771Y-94885833D01*
X172471200Y-94933452D01*
X172396914Y-95028690D01*
X172396914Y-95219166D01*
X172471200Y-95314404D01*
X173362628Y-94885833D02*
X173436914Y-94981071D01*
X173436914Y-95219166D01*
X173362628Y-95314404D01*
X173214057Y-95362023D01*
X173065485Y-95362023D01*
X172916914Y-95314404D01*
X172842628Y-95219166D01*
X172842628Y-94981071D01*
X172768342Y-94885833D01*
X172396914Y-94409642D02*
X173956914Y-94409642D01*
X172471200Y-94409642D02*
X172396914Y-94314404D01*
X172396914Y-94123928D01*
X172471200Y-94028690D01*
X172545485Y-93981071D01*
X172694057Y-93933452D01*
X173139771Y-93933452D01*
X173288342Y-93981071D01*
X173362628Y-94028690D01*
X173436914Y-94123928D01*
X173436914Y-94314404D01*
X173362628Y-94409642D01*
X173362628Y-93552500D02*
X173436914Y-93457261D01*
X173436914Y-93266785D01*
X173362628Y-93171547D01*
X173214057Y-93123928D01*
X173139771Y-93123928D01*
X172991200Y-93171547D01*
X172916914Y-93266785D01*
X172916914Y-93409642D01*
X172842628Y-93504880D01*
X172694057Y-93552500D01*
X172619771Y-93552500D01*
X172471200Y-93504880D01*
X172396914Y-93409642D01*
X172396914Y-93266785D01*
X172471200Y-93171547D01*
X175131371Y-96314404D02*
X175131371Y-95981071D01*
X175948514Y-95838214D02*
X175948514Y-96314404D01*
X174388514Y-96314404D01*
X174388514Y-95838214D01*
X175948514Y-95504880D02*
X174908514Y-94981071D01*
X174908514Y-95504880D02*
X175948514Y-94981071D01*
X174908514Y-94742976D02*
X174908514Y-94362023D01*
X174388514Y-94600119D02*
X175725657Y-94600119D01*
X175874228Y-94552500D01*
X175948514Y-94457261D01*
X175948514Y-94362023D01*
X175874228Y-93647738D02*
X175948514Y-93742976D01*
X175948514Y-93933452D01*
X175874228Y-94028690D01*
X175725657Y-94076309D01*
X175131371Y-94076309D01*
X174982800Y-94028690D01*
X174908514Y-93933452D01*
X174908514Y-93742976D01*
X174982800Y-93647738D01*
X175131371Y-93600119D01*
X175279942Y-93600119D01*
X175428514Y-94076309D01*
X174908514Y-93171547D02*
X175948514Y-93171547D01*
X175057085Y-93171547D02*
X174982800Y-93123928D01*
X174908514Y-93028690D01*
X174908514Y-92885833D01*
X174982800Y-92790595D01*
X175131371Y-92742976D01*
X175948514Y-92742976D01*
X175948514Y-91838214D02*
X174388514Y-91838214D01*
X175874228Y-91838214D02*
X175948514Y-91933452D01*
X175948514Y-92123928D01*
X175874228Y-92219166D01*
X175799942Y-92266785D01*
X175651371Y-92314404D01*
X175205657Y-92314404D01*
X175057085Y-92266785D01*
X174982800Y-92219166D01*
X174908514Y-92123928D01*
X174908514Y-91933452D01*
X174982800Y-91838214D01*
X98072190Y-98020095D02*
X96522190Y-98020095D01*
X96522190Y-97782000D01*
X96596000Y-97639142D01*
X96743619Y-97543904D01*
X96891238Y-97496285D01*
X97186476Y-97448666D01*
X97407904Y-97448666D01*
X97703142Y-97496285D01*
X97850761Y-97543904D01*
X97998380Y-97639142D01*
X98072190Y-97782000D01*
X98072190Y-98020095D01*
X97038857Y-96591523D02*
X98072190Y-96591523D01*
X96448380Y-96829619D02*
X97555523Y-97067714D01*
X97555523Y-96448666D01*
X100567690Y-98020095D02*
X99017690Y-98020095D01*
X99017690Y-97782000D01*
X99091500Y-97639142D01*
X99239119Y-97543904D01*
X99386738Y-97496285D01*
X99681976Y-97448666D01*
X99903404Y-97448666D01*
X100198642Y-97496285D01*
X100346261Y-97543904D01*
X100493880Y-97639142D01*
X100567690Y-97782000D01*
X100567690Y-98020095D01*
X99017690Y-97115333D02*
X99017690Y-96496285D01*
X99608166Y-96829619D01*
X99608166Y-96686761D01*
X99681976Y-96591523D01*
X99755785Y-96543904D01*
X99903404Y-96496285D01*
X100272452Y-96496285D01*
X100420071Y-96543904D01*
X100493880Y-96591523D01*
X100567690Y-96686761D01*
X100567690Y-96972476D01*
X100493880Y-97067714D01*
X100420071Y-97115333D01*
X103063190Y-98020095D02*
X101513190Y-98020095D01*
X101513190Y-97782000D01*
X101587000Y-97639142D01*
X101734619Y-97543904D01*
X101882238Y-97496285D01*
X102177476Y-97448666D01*
X102398904Y-97448666D01*
X102694142Y-97496285D01*
X102841761Y-97543904D01*
X102989380Y-97639142D01*
X103063190Y-97782000D01*
X103063190Y-98020095D01*
X101660809Y-97067714D02*
X101587000Y-97020095D01*
X101513190Y-96924857D01*
X101513190Y-96686761D01*
X101587000Y-96591523D01*
X101660809Y-96543904D01*
X101808428Y-96496285D01*
X101956047Y-96496285D01*
X102177476Y-96543904D01*
X103063190Y-97115333D01*
X103063190Y-96496285D01*
X105558690Y-98020095D02*
X104008690Y-98020095D01*
X104008690Y-97782000D01*
X104082500Y-97639142D01*
X104230119Y-97543904D01*
X104377738Y-97496285D01*
X104672976Y-97448666D01*
X104894404Y-97448666D01*
X105189642Y-97496285D01*
X105337261Y-97543904D01*
X105484880Y-97639142D01*
X105558690Y-97782000D01*
X105558690Y-98020095D01*
X105558690Y-96496285D02*
X105558690Y-97067714D01*
X105558690Y-96782000D02*
X104008690Y-96782000D01*
X104230119Y-96877238D01*
X104377738Y-96972476D01*
X104451547Y-97067714D01*
X108054190Y-98020095D02*
X106504190Y-98020095D01*
X106504190Y-97782000D01*
X106578000Y-97639142D01*
X106725619Y-97543904D01*
X106873238Y-97496285D01*
X107168476Y-97448666D01*
X107389904Y-97448666D01*
X107685142Y-97496285D01*
X107832761Y-97543904D01*
X107980380Y-97639142D01*
X108054190Y-97782000D01*
X108054190Y-98020095D01*
X106504190Y-96829619D02*
X106504190Y-96734380D01*
X106578000Y-96639142D01*
X106651809Y-96591523D01*
X106799428Y-96543904D01*
X107094666Y-96496285D01*
X107463714Y-96496285D01*
X107758952Y-96543904D01*
X107906571Y-96591523D01*
X107980380Y-96639142D01*
X108054190Y-96734380D01*
X108054190Y-96829619D01*
X107980380Y-96924857D01*
X107906571Y-96972476D01*
X107758952Y-97020095D01*
X107463714Y-97067714D01*
X107094666Y-97067714D01*
X106799428Y-97020095D01*
X106651809Y-96972476D01*
X106578000Y-96924857D01*
X106504190Y-96829619D01*
X64619047Y-91592857D02*
X64573809Y-91545238D01*
X64438095Y-91497619D01*
X64347619Y-91497619D01*
X64211904Y-91545238D01*
X64121428Y-91640476D01*
X64076190Y-91735714D01*
X64030952Y-91926190D01*
X64030952Y-92069047D01*
X64076190Y-92259523D01*
X64121428Y-92354761D01*
X64211904Y-92450000D01*
X64347619Y-92497619D01*
X64438095Y-92497619D01*
X64573809Y-92450000D01*
X64619047Y-92402380D01*
X65161904Y-91497619D02*
X65071428Y-91545238D01*
X65026190Y-91592857D01*
X64980952Y-91688095D01*
X64980952Y-91973809D01*
X65026190Y-92069047D01*
X65071428Y-92116666D01*
X65161904Y-92164285D01*
X65297619Y-92164285D01*
X65388095Y-92116666D01*
X65433333Y-92069047D01*
X65478571Y-91973809D01*
X65478571Y-91688095D01*
X65433333Y-91592857D01*
X65388095Y-91545238D01*
X65297619Y-91497619D01*
X65161904Y-91497619D01*
X65885714Y-91497619D02*
X65885714Y-92164285D01*
X65885714Y-92069047D02*
X65930952Y-92116666D01*
X66021428Y-92164285D01*
X66157142Y-92164285D01*
X66247619Y-92116666D01*
X66292857Y-92021428D01*
X66292857Y-91497619D01*
X66292857Y-92021428D02*
X66338095Y-92116666D01*
X66428571Y-92164285D01*
X66564285Y-92164285D01*
X66654761Y-92116666D01*
X66700000Y-92021428D01*
X66700000Y-91497619D01*
X67876190Y-91497619D02*
X67876190Y-92497619D01*
X68102380Y-92497619D01*
X68238095Y-92450000D01*
X68328571Y-92354761D01*
X68373809Y-92259523D01*
X68419047Y-92069047D01*
X68419047Y-91926190D01*
X68373809Y-91735714D01*
X68328571Y-91640476D01*
X68238095Y-91545238D01*
X68102380Y-91497619D01*
X67876190Y-91497619D01*
X68826190Y-92164285D02*
X68826190Y-91497619D01*
X68826190Y-92069047D02*
X68871428Y-92116666D01*
X68961904Y-92164285D01*
X69097619Y-92164285D01*
X69188095Y-92116666D01*
X69233333Y-92021428D01*
X69233333Y-91497619D01*
X70409523Y-92497619D02*
X70409523Y-91688095D01*
X70454761Y-91592857D01*
X70500000Y-91545238D01*
X70590476Y-91497619D01*
X70771428Y-91497619D01*
X70861904Y-91545238D01*
X70907142Y-91592857D01*
X70952380Y-91688095D01*
X70952380Y-92497619D01*
X71404761Y-92164285D02*
X71404761Y-91164285D01*
X71404761Y-92116666D02*
X71495238Y-92164285D01*
X71676190Y-92164285D01*
X71766666Y-92116666D01*
X71811904Y-92069047D01*
X71857142Y-91973809D01*
X71857142Y-91688095D01*
X71811904Y-91592857D01*
X71766666Y-91545238D01*
X71676190Y-91497619D01*
X71495238Y-91497619D01*
X71404761Y-91545238D01*
X73530952Y-91497619D02*
X73214285Y-91973809D01*
X72988095Y-91497619D02*
X72988095Y-92497619D01*
X73350000Y-92497619D01*
X73440476Y-92450000D01*
X73485714Y-92402380D01*
X73530952Y-92307142D01*
X73530952Y-92164285D01*
X73485714Y-92069047D01*
X73440476Y-92021428D01*
X73350000Y-91973809D01*
X72988095Y-91973809D01*
X73938095Y-91497619D02*
X73938095Y-92164285D01*
X73938095Y-92497619D02*
X73892857Y-92450000D01*
X73938095Y-92402380D01*
X73983333Y-92450000D01*
X73938095Y-92497619D01*
X73938095Y-92402380D01*
X75566666Y-91497619D02*
X75114285Y-91497619D01*
X75114285Y-92497619D01*
X75747619Y-92164285D02*
X76109523Y-92164285D01*
X75883333Y-91497619D02*
X75883333Y-92354761D01*
X75928571Y-92450000D01*
X76019047Y-92497619D01*
X76109523Y-92497619D01*
D11*
X58603571Y-95492857D02*
X59746428Y-95492857D01*
X59175000Y-94921428D02*
X59175000Y-96064285D01*
X61603571Y-95492857D02*
X62746428Y-95492857D01*
M02*
