%TF.GenerationSoftware,KiCad,Pcbnew,6.0.2+dfsg-1*%
%TF.CreationDate,2022-06-22T10:26:47+01:00*%
%TF.ProjectId,Keyboard,4b657962-6f61-4726-942e-6b696361645f,2*%
%TF.SameCoordinates,Original*%
%TF.FileFunction,Legend,Top*%
%TF.FilePolarity,Positive*%
%FSLAX46Y46*%
G04 Gerber Fmt 4.6, Leading zero omitted, Abs format (unit mm)*
G04 Created by KiCad (PCBNEW 6.0.2+dfsg-1) date 2022-06-22 10:26:47*
%MOMM*%
%LPD*%
G01*
G04 APERTURE LIST*
%ADD10C,0.150000*%
%ADD11C,0.120000*%
G04 APERTURE END LIST*
D10*
X218250000Y-105392380D02*
X218916666Y-105392380D01*
X218250000Y-106392380D01*
X218916666Y-106392380D01*
X219202380Y-105392380D02*
X219869047Y-106392380D01*
X219869047Y-105392380D02*
X219202380Y-106392380D01*
X220964285Y-106344761D02*
X221107142Y-106392380D01*
X221345238Y-106392380D01*
X221440476Y-106344761D01*
X221488095Y-106297142D01*
X221535714Y-106201904D01*
X221535714Y-106106666D01*
X221488095Y-106011428D01*
X221440476Y-105963809D01*
X221345238Y-105916190D01*
X221154761Y-105868571D01*
X221059523Y-105820952D01*
X221011904Y-105773333D01*
X220964285Y-105678095D01*
X220964285Y-105582857D01*
X221011904Y-105487619D01*
X221059523Y-105440000D01*
X221154761Y-105392380D01*
X221392857Y-105392380D01*
X221535714Y-105440000D01*
X221964285Y-105725714D02*
X221964285Y-106725714D01*
X221964285Y-105773333D02*
X222059523Y-105725714D01*
X222250000Y-105725714D01*
X222345238Y-105773333D01*
X222392857Y-105820952D01*
X222440476Y-105916190D01*
X222440476Y-106201904D01*
X222392857Y-106297142D01*
X222345238Y-106344761D01*
X222250000Y-106392380D01*
X222059523Y-106392380D01*
X221964285Y-106344761D01*
X223250000Y-106344761D02*
X223154761Y-106392380D01*
X222964285Y-106392380D01*
X222869047Y-106344761D01*
X222821428Y-106249523D01*
X222821428Y-105868571D01*
X222869047Y-105773333D01*
X222964285Y-105725714D01*
X223154761Y-105725714D01*
X223250000Y-105773333D01*
X223297619Y-105868571D01*
X223297619Y-105963809D01*
X222821428Y-106059047D01*
X224154761Y-106344761D02*
X224059523Y-106392380D01*
X223869047Y-106392380D01*
X223773809Y-106344761D01*
X223726190Y-106297142D01*
X223678571Y-106201904D01*
X223678571Y-105916190D01*
X223726190Y-105820952D01*
X223773809Y-105773333D01*
X223869047Y-105725714D01*
X224059523Y-105725714D01*
X224154761Y-105773333D01*
X224440476Y-105725714D02*
X224821428Y-105725714D01*
X224583333Y-105392380D02*
X224583333Y-106249523D01*
X224630952Y-106344761D01*
X224726190Y-106392380D01*
X224821428Y-106392380D01*
X225154761Y-106392380D02*
X225154761Y-105725714D01*
X225154761Y-105916190D02*
X225202380Y-105820952D01*
X225250000Y-105773333D01*
X225345238Y-105725714D01*
X225440476Y-105725714D01*
X226202380Y-105725714D02*
X226202380Y-106392380D01*
X225773809Y-105725714D02*
X225773809Y-106249523D01*
X225821428Y-106344761D01*
X225916666Y-106392380D01*
X226059523Y-106392380D01*
X226154761Y-106344761D01*
X226202380Y-106297142D01*
X226678571Y-106392380D02*
X226678571Y-105725714D01*
X226678571Y-105820952D02*
X226726190Y-105773333D01*
X226821428Y-105725714D01*
X226964285Y-105725714D01*
X227059523Y-105773333D01*
X227107142Y-105868571D01*
X227107142Y-106392380D01*
X227107142Y-105868571D02*
X227154761Y-105773333D01*
X227250000Y-105725714D01*
X227392857Y-105725714D01*
X227488095Y-105773333D01*
X227535714Y-105868571D01*
X227535714Y-106392380D01*
X229345238Y-106297142D02*
X229297619Y-106344761D01*
X229154761Y-106392380D01*
X229059523Y-106392380D01*
X228916666Y-106344761D01*
X228821428Y-106249523D01*
X228773809Y-106154285D01*
X228726190Y-105963809D01*
X228726190Y-105820952D01*
X228773809Y-105630476D01*
X228821428Y-105535238D01*
X228916666Y-105440000D01*
X229059523Y-105392380D01*
X229154761Y-105392380D01*
X229297619Y-105440000D01*
X229345238Y-105487619D01*
X229916666Y-106392380D02*
X229821428Y-106344761D01*
X229773809Y-106297142D01*
X229726190Y-106201904D01*
X229726190Y-105916190D01*
X229773809Y-105820952D01*
X229821428Y-105773333D01*
X229916666Y-105725714D01*
X230059523Y-105725714D01*
X230154761Y-105773333D01*
X230202380Y-105820952D01*
X230250000Y-105916190D01*
X230250000Y-106201904D01*
X230202380Y-106297142D01*
X230154761Y-106344761D01*
X230059523Y-106392380D01*
X229916666Y-106392380D01*
X230678571Y-106392380D02*
X230678571Y-105725714D01*
X230678571Y-105820952D02*
X230726190Y-105773333D01*
X230821428Y-105725714D01*
X230964285Y-105725714D01*
X231059523Y-105773333D01*
X231107142Y-105868571D01*
X231107142Y-106392380D01*
X231107142Y-105868571D02*
X231154761Y-105773333D01*
X231250000Y-105725714D01*
X231392857Y-105725714D01*
X231488095Y-105773333D01*
X231535714Y-105868571D01*
X231535714Y-106392380D01*
X232011904Y-105725714D02*
X232011904Y-106725714D01*
X232011904Y-105773333D02*
X232107142Y-105725714D01*
X232297619Y-105725714D01*
X232392857Y-105773333D01*
X232440476Y-105820952D01*
X232488095Y-105916190D01*
X232488095Y-106201904D01*
X232440476Y-106297142D01*
X232392857Y-106344761D01*
X232297619Y-106392380D01*
X232107142Y-106392380D01*
X232011904Y-106344761D01*
X233059523Y-106392380D02*
X232964285Y-106344761D01*
X232916666Y-106297142D01*
X232869047Y-106201904D01*
X232869047Y-105916190D01*
X232916666Y-105820952D01*
X232964285Y-105773333D01*
X233059523Y-105725714D01*
X233202380Y-105725714D01*
X233297619Y-105773333D01*
X233345238Y-105820952D01*
X233392857Y-105916190D01*
X233392857Y-106201904D01*
X233345238Y-106297142D01*
X233297619Y-106344761D01*
X233202380Y-106392380D01*
X233059523Y-106392380D01*
X233773809Y-106344761D02*
X233869047Y-106392380D01*
X234059523Y-106392380D01*
X234154761Y-106344761D01*
X234202380Y-106249523D01*
X234202380Y-106201904D01*
X234154761Y-106106666D01*
X234059523Y-106059047D01*
X233916666Y-106059047D01*
X233821428Y-106011428D01*
X233773809Y-105916190D01*
X233773809Y-105868571D01*
X233821428Y-105773333D01*
X233916666Y-105725714D01*
X234059523Y-105725714D01*
X234154761Y-105773333D01*
X234630952Y-106392380D02*
X234630952Y-105725714D01*
X234630952Y-105392380D02*
X234583333Y-105440000D01*
X234630952Y-105487619D01*
X234678571Y-105440000D01*
X234630952Y-105392380D01*
X234630952Y-105487619D01*
X234964285Y-105725714D02*
X235345238Y-105725714D01*
X235107142Y-105392380D02*
X235107142Y-106249523D01*
X235154761Y-106344761D01*
X235250000Y-106392380D01*
X235345238Y-106392380D01*
X236059523Y-106344761D02*
X235964285Y-106392380D01*
X235773809Y-106392380D01*
X235678571Y-106344761D01*
X235630952Y-106249523D01*
X235630952Y-105868571D01*
X235678571Y-105773333D01*
X235773809Y-105725714D01*
X235964285Y-105725714D01*
X236059523Y-105773333D01*
X236107142Y-105868571D01*
X236107142Y-105963809D01*
X235630952Y-106059047D01*
X237297619Y-106392380D02*
X237297619Y-105392380D01*
X237392857Y-106011428D02*
X237678571Y-106392380D01*
X237678571Y-105725714D02*
X237297619Y-106106666D01*
X238488095Y-106344761D02*
X238392857Y-106392380D01*
X238202380Y-106392380D01*
X238107142Y-106344761D01*
X238059523Y-106249523D01*
X238059523Y-105868571D01*
X238107142Y-105773333D01*
X238202380Y-105725714D01*
X238392857Y-105725714D01*
X238488095Y-105773333D01*
X238535714Y-105868571D01*
X238535714Y-105963809D01*
X238059523Y-106059047D01*
X238869047Y-105725714D02*
X239107142Y-106392380D01*
X239345238Y-105725714D02*
X239107142Y-106392380D01*
X239011904Y-106630476D01*
X238964285Y-106678095D01*
X238869047Y-106725714D01*
X240916666Y-105725714D02*
X240916666Y-106535238D01*
X240869047Y-106630476D01*
X240821428Y-106678095D01*
X240726190Y-106725714D01*
X240583333Y-106725714D01*
X240488095Y-106678095D01*
X240916666Y-106344761D02*
X240821428Y-106392380D01*
X240630952Y-106392380D01*
X240535714Y-106344761D01*
X240488095Y-106297142D01*
X240440476Y-106201904D01*
X240440476Y-105916190D01*
X240488095Y-105820952D01*
X240535714Y-105773333D01*
X240630952Y-105725714D01*
X240821428Y-105725714D01*
X240916666Y-105773333D01*
X241773809Y-106344761D02*
X241678571Y-106392380D01*
X241488095Y-106392380D01*
X241392857Y-106344761D01*
X241345238Y-106249523D01*
X241345238Y-105868571D01*
X241392857Y-105773333D01*
X241488095Y-105725714D01*
X241678571Y-105725714D01*
X241773809Y-105773333D01*
X241821428Y-105868571D01*
X241821428Y-105963809D01*
X241345238Y-106059047D01*
X242250000Y-105725714D02*
X242250000Y-106392380D01*
X242250000Y-105820952D02*
X242297619Y-105773333D01*
X242392857Y-105725714D01*
X242535714Y-105725714D01*
X242630952Y-105773333D01*
X242678571Y-105868571D01*
X242678571Y-106392380D01*
X243535714Y-106344761D02*
X243440476Y-106392380D01*
X243250000Y-106392380D01*
X243154761Y-106344761D01*
X243107142Y-106249523D01*
X243107142Y-105868571D01*
X243154761Y-105773333D01*
X243250000Y-105725714D01*
X243440476Y-105725714D01*
X243535714Y-105773333D01*
X243583333Y-105868571D01*
X243583333Y-105963809D01*
X243107142Y-106059047D01*
X244011904Y-106392380D02*
X244011904Y-105725714D01*
X244011904Y-105916190D02*
X244059523Y-105820952D01*
X244107142Y-105773333D01*
X244202380Y-105725714D01*
X244297619Y-105725714D01*
X245059523Y-106392380D02*
X245059523Y-105868571D01*
X245011904Y-105773333D01*
X244916666Y-105725714D01*
X244726190Y-105725714D01*
X244630952Y-105773333D01*
X245059523Y-106344761D02*
X244964285Y-106392380D01*
X244726190Y-106392380D01*
X244630952Y-106344761D01*
X244583333Y-106249523D01*
X244583333Y-106154285D01*
X244630952Y-106059047D01*
X244726190Y-106011428D01*
X244964285Y-106011428D01*
X245059523Y-105963809D01*
X245392857Y-105725714D02*
X245773809Y-105725714D01*
X245535714Y-105392380D02*
X245535714Y-106249523D01*
X245583333Y-106344761D01*
X245678571Y-106392380D01*
X245773809Y-106392380D01*
X246250000Y-106392380D02*
X246154761Y-106344761D01*
X246107142Y-106297142D01*
X246059523Y-106201904D01*
X246059523Y-105916190D01*
X246107142Y-105820952D01*
X246154761Y-105773333D01*
X246250000Y-105725714D01*
X246392857Y-105725714D01*
X246488095Y-105773333D01*
X246535714Y-105820952D01*
X246583333Y-105916190D01*
X246583333Y-106201904D01*
X246535714Y-106297142D01*
X246488095Y-106344761D01*
X246392857Y-106392380D01*
X246250000Y-106392380D01*
X247011904Y-106392380D02*
X247011904Y-105725714D01*
X247011904Y-105916190D02*
X247059523Y-105820952D01*
X247107142Y-105773333D01*
X247202380Y-105725714D01*
X247297619Y-105725714D01*
X227964285Y-108660000D02*
X227869047Y-108612380D01*
X227726190Y-108612380D01*
X227583333Y-108660000D01*
X227488095Y-108755238D01*
X227440476Y-108850476D01*
X227392857Y-109040952D01*
X227392857Y-109183809D01*
X227440476Y-109374285D01*
X227488095Y-109469523D01*
X227583333Y-109564761D01*
X227726190Y-109612380D01*
X227821428Y-109612380D01*
X227964285Y-109564761D01*
X228011904Y-109517142D01*
X228011904Y-109183809D01*
X227821428Y-109183809D01*
X228440476Y-109612380D02*
X228440476Y-108612380D01*
X228678571Y-108612380D01*
X228821428Y-108660000D01*
X228916666Y-108755238D01*
X228964285Y-108850476D01*
X229011904Y-109040952D01*
X229011904Y-109183809D01*
X228964285Y-109374285D01*
X228916666Y-109469523D01*
X228821428Y-109564761D01*
X228678571Y-109612380D01*
X228440476Y-109612380D01*
X229392857Y-109564761D02*
X229535714Y-109612380D01*
X229773809Y-109612380D01*
X229869047Y-109564761D01*
X229916666Y-109517142D01*
X229964285Y-109421904D01*
X229964285Y-109326666D01*
X229916666Y-109231428D01*
X229869047Y-109183809D01*
X229773809Y-109136190D01*
X229583333Y-109088571D01*
X229488095Y-109040952D01*
X229440476Y-108993333D01*
X229392857Y-108898095D01*
X229392857Y-108802857D01*
X229440476Y-108707619D01*
X229488095Y-108660000D01*
X229583333Y-108612380D01*
X229821428Y-108612380D01*
X229964285Y-108660000D01*
X231154761Y-109612380D02*
X231154761Y-108612380D01*
X231488095Y-109326666D01*
X231821428Y-108612380D01*
X231821428Y-109612380D01*
X232726190Y-109612380D02*
X232726190Y-109088571D01*
X232678571Y-108993333D01*
X232583333Y-108945714D01*
X232392857Y-108945714D01*
X232297619Y-108993333D01*
X232726190Y-109564761D02*
X232630952Y-109612380D01*
X232392857Y-109612380D01*
X232297619Y-109564761D01*
X232250000Y-109469523D01*
X232250000Y-109374285D01*
X232297619Y-109279047D01*
X232392857Y-109231428D01*
X232630952Y-109231428D01*
X232726190Y-109183809D01*
X233107142Y-108945714D02*
X233345238Y-109612380D01*
X233583333Y-108945714D02*
X233345238Y-109612380D01*
X233250000Y-109850476D01*
X233202380Y-109898095D01*
X233107142Y-109945714D01*
X234678571Y-108707619D02*
X234726190Y-108660000D01*
X234821428Y-108612380D01*
X235059523Y-108612380D01*
X235154761Y-108660000D01*
X235202380Y-108707619D01*
X235250000Y-108802857D01*
X235250000Y-108898095D01*
X235202380Y-109040952D01*
X234630952Y-109612380D01*
X235250000Y-109612380D01*
X235869047Y-108612380D02*
X235964285Y-108612380D01*
X236059523Y-108660000D01*
X236107142Y-108707619D01*
X236154761Y-108802857D01*
X236202380Y-108993333D01*
X236202380Y-109231428D01*
X236154761Y-109421904D01*
X236107142Y-109517142D01*
X236059523Y-109564761D01*
X235964285Y-109612380D01*
X235869047Y-109612380D01*
X235773809Y-109564761D01*
X235726190Y-109517142D01*
X235678571Y-109421904D01*
X235630952Y-109231428D01*
X235630952Y-108993333D01*
X235678571Y-108802857D01*
X235726190Y-108707619D01*
X235773809Y-108660000D01*
X235869047Y-108612380D01*
X236583333Y-108707619D02*
X236630952Y-108660000D01*
X236726190Y-108612380D01*
X236964285Y-108612380D01*
X237059523Y-108660000D01*
X237107142Y-108707619D01*
X237154761Y-108802857D01*
X237154761Y-108898095D01*
X237107142Y-109040952D01*
X236535714Y-109612380D01*
X237154761Y-109612380D01*
X237535714Y-108707619D02*
X237583333Y-108660000D01*
X237678571Y-108612380D01*
X237916666Y-108612380D01*
X238011904Y-108660000D01*
X238059523Y-108707619D01*
X238107142Y-108802857D01*
X238107142Y-108898095D01*
X238059523Y-109040952D01*
X237488095Y-109612380D01*
X238107142Y-109612380D01*
%TO.C,U4*%
X207005380Y-97053904D02*
X207814904Y-97053904D01*
X207910142Y-97006285D01*
X207957761Y-96958666D01*
X208005380Y-96863428D01*
X208005380Y-96672952D01*
X207957761Y-96577714D01*
X207910142Y-96530095D01*
X207814904Y-96482476D01*
X207005380Y-96482476D01*
X207338714Y-95577714D02*
X208005380Y-95577714D01*
X206957761Y-95815809D02*
X207672047Y-96053904D01*
X207672047Y-95434857D01*
X216447380Y-98807857D02*
X216447380Y-98141190D01*
X217447380Y-98569761D01*
X216780714Y-97331666D02*
X217447380Y-97331666D01*
X216399761Y-97569761D02*
X217114047Y-97807857D01*
X217114047Y-97188809D01*
X217447380Y-96331666D02*
X217447380Y-96807857D01*
X216447380Y-96807857D01*
X217399761Y-96045952D02*
X217447380Y-95903095D01*
X217447380Y-95665000D01*
X217399761Y-95569761D01*
X217352142Y-95522142D01*
X217256904Y-95474523D01*
X217161666Y-95474523D01*
X217066428Y-95522142D01*
X217018809Y-95569761D01*
X216971190Y-95665000D01*
X216923571Y-95855476D01*
X216875952Y-95950714D01*
X216828333Y-95998333D01*
X216733095Y-96045952D01*
X216637857Y-96045952D01*
X216542619Y-95998333D01*
X216495000Y-95950714D01*
X216447380Y-95855476D01*
X216447380Y-95617380D01*
X216495000Y-95474523D01*
X216447380Y-95141190D02*
X216447380Y-94522142D01*
X216828333Y-94855476D01*
X216828333Y-94712619D01*
X216875952Y-94617380D01*
X216923571Y-94569761D01*
X217018809Y-94522142D01*
X217256904Y-94522142D01*
X217352142Y-94569761D01*
X217399761Y-94617380D01*
X217447380Y-94712619D01*
X217447380Y-94998333D01*
X217399761Y-95093571D01*
X217352142Y-95141190D01*
X216542619Y-94141190D02*
X216495000Y-94093571D01*
X216447380Y-93998333D01*
X216447380Y-93760238D01*
X216495000Y-93665000D01*
X216542619Y-93617380D01*
X216637857Y-93569761D01*
X216733095Y-93569761D01*
X216875952Y-93617380D01*
X217447380Y-94188809D01*
X217447380Y-93569761D01*
%TO.C,D28*%
X100630314Y-113892380D02*
X100630314Y-112892380D01*
X100868409Y-112892380D01*
X101011266Y-112940000D01*
X101106504Y-113035238D01*
X101154123Y-113130476D01*
X101201742Y-113320952D01*
X101201742Y-113463809D01*
X101154123Y-113654285D01*
X101106504Y-113749523D01*
X101011266Y-113844761D01*
X100868409Y-113892380D01*
X100630314Y-113892380D01*
X101582695Y-112987619D02*
X101630314Y-112940000D01*
X101725552Y-112892380D01*
X101963647Y-112892380D01*
X102058885Y-112940000D01*
X102106504Y-112987619D01*
X102154123Y-113082857D01*
X102154123Y-113178095D01*
X102106504Y-113320952D01*
X101535076Y-113892380D01*
X102154123Y-113892380D01*
X102725552Y-113320952D02*
X102630314Y-113273333D01*
X102582695Y-113225714D01*
X102535076Y-113130476D01*
X102535076Y-113082857D01*
X102582695Y-112987619D01*
X102630314Y-112940000D01*
X102725552Y-112892380D01*
X102916028Y-112892380D01*
X103011266Y-112940000D01*
X103058885Y-112987619D01*
X103106504Y-113082857D01*
X103106504Y-113130476D01*
X103058885Y-113225714D01*
X103011266Y-113273333D01*
X102916028Y-113320952D01*
X102725552Y-113320952D01*
X102630314Y-113368571D01*
X102582695Y-113416190D01*
X102535076Y-113511428D01*
X102535076Y-113701904D01*
X102582695Y-113797142D01*
X102630314Y-113844761D01*
X102725552Y-113892380D01*
X102916028Y-113892380D01*
X103011266Y-113844761D01*
X103058885Y-113797142D01*
X103106504Y-113701904D01*
X103106504Y-113511428D01*
X103058885Y-113416190D01*
X103011266Y-113368571D01*
X102916028Y-113320952D01*
%TO.C,D47*%
X145146780Y-110285485D02*
X144146780Y-110285485D01*
X144146780Y-110047390D01*
X144194400Y-109904533D01*
X144289638Y-109809295D01*
X144384876Y-109761676D01*
X144575352Y-109714057D01*
X144718209Y-109714057D01*
X144908685Y-109761676D01*
X145003923Y-109809295D01*
X145099161Y-109904533D01*
X145146780Y-110047390D01*
X145146780Y-110285485D01*
X144480114Y-108856914D02*
X145146780Y-108856914D01*
X144099161Y-109095009D02*
X144813447Y-109333104D01*
X144813447Y-108714057D01*
X144146780Y-108428342D02*
X144146780Y-107761676D01*
X145146780Y-108190247D01*
%TO.C,D22*%
X171283380Y-110387085D02*
X170283380Y-110387085D01*
X170283380Y-110148990D01*
X170331000Y-110006133D01*
X170426238Y-109910895D01*
X170521476Y-109863276D01*
X170711952Y-109815657D01*
X170854809Y-109815657D01*
X171045285Y-109863276D01*
X171140523Y-109910895D01*
X171235761Y-110006133D01*
X171283380Y-110148990D01*
X171283380Y-110387085D01*
X170378619Y-109434704D02*
X170331000Y-109387085D01*
X170283380Y-109291847D01*
X170283380Y-109053752D01*
X170331000Y-108958514D01*
X170378619Y-108910895D01*
X170473857Y-108863276D01*
X170569095Y-108863276D01*
X170711952Y-108910895D01*
X171283380Y-109482323D01*
X171283380Y-108863276D01*
X170378619Y-108482323D02*
X170331000Y-108434704D01*
X170283380Y-108339466D01*
X170283380Y-108101371D01*
X170331000Y-108006133D01*
X170378619Y-107958514D01*
X170473857Y-107910895D01*
X170569095Y-107910895D01*
X170711952Y-107958514D01*
X171283380Y-108529942D01*
X171283380Y-107910895D01*
%TO.C,D1*%
X103443304Y-107542380D02*
X103443304Y-106542380D01*
X103681400Y-106542380D01*
X103824257Y-106590000D01*
X103919495Y-106685238D01*
X103967114Y-106780476D01*
X104014733Y-106970952D01*
X104014733Y-107113809D01*
X103967114Y-107304285D01*
X103919495Y-107399523D01*
X103824257Y-107494761D01*
X103681400Y-107542380D01*
X103443304Y-107542380D01*
X104967114Y-107542380D02*
X104395685Y-107542380D01*
X104681400Y-107542380D02*
X104681400Y-106542380D01*
X104586161Y-106685238D01*
X104490923Y-106780476D01*
X104395685Y-106828095D01*
%TO.C,D44*%
X79707114Y-122186580D02*
X79707114Y-121186580D01*
X79945209Y-121186580D01*
X80088066Y-121234200D01*
X80183304Y-121329438D01*
X80230923Y-121424676D01*
X80278542Y-121615152D01*
X80278542Y-121758009D01*
X80230923Y-121948485D01*
X80183304Y-122043723D01*
X80088066Y-122138961D01*
X79945209Y-122186580D01*
X79707114Y-122186580D01*
X81135685Y-121519914D02*
X81135685Y-122186580D01*
X80897590Y-121138961D02*
X80659495Y-121853247D01*
X81278542Y-121853247D01*
X82088066Y-121519914D02*
X82088066Y-122186580D01*
X81849971Y-121138961D02*
X81611876Y-121853247D01*
X82230923Y-121853247D01*
%TO.C,D12*%
X68591714Y-126018180D02*
X68591714Y-125018180D01*
X68829809Y-125018180D01*
X68972666Y-125065800D01*
X69067904Y-125161038D01*
X69115523Y-125256276D01*
X69163142Y-125446752D01*
X69163142Y-125589609D01*
X69115523Y-125780085D01*
X69067904Y-125875323D01*
X68972666Y-125970561D01*
X68829809Y-126018180D01*
X68591714Y-126018180D01*
X70115523Y-126018180D02*
X69544095Y-126018180D01*
X69829809Y-126018180D02*
X69829809Y-125018180D01*
X69734571Y-125161038D01*
X69639333Y-125256276D01*
X69544095Y-125303895D01*
X70496476Y-125113419D02*
X70544095Y-125065800D01*
X70639333Y-125018180D01*
X70877428Y-125018180D01*
X70972666Y-125065800D01*
X71020285Y-125113419D01*
X71067904Y-125208657D01*
X71067904Y-125303895D01*
X71020285Y-125446752D01*
X70448857Y-126018180D01*
X71067904Y-126018180D01*
%TO.C,D25*%
X159065980Y-132231085D02*
X158065980Y-132231085D01*
X158065980Y-131992990D01*
X158113600Y-131850133D01*
X158208838Y-131754895D01*
X158304076Y-131707276D01*
X158494552Y-131659657D01*
X158637409Y-131659657D01*
X158827885Y-131707276D01*
X158923123Y-131754895D01*
X159018361Y-131850133D01*
X159065980Y-131992990D01*
X159065980Y-132231085D01*
X158161219Y-131278704D02*
X158113600Y-131231085D01*
X158065980Y-131135847D01*
X158065980Y-130897752D01*
X158113600Y-130802514D01*
X158161219Y-130754895D01*
X158256457Y-130707276D01*
X158351695Y-130707276D01*
X158494552Y-130754895D01*
X159065980Y-131326323D01*
X159065980Y-130707276D01*
X158065980Y-129802514D02*
X158065980Y-130278704D01*
X158542171Y-130326323D01*
X158494552Y-130278704D01*
X158446933Y-130183466D01*
X158446933Y-129945371D01*
X158494552Y-129850133D01*
X158542171Y-129802514D01*
X158637409Y-129754895D01*
X158875504Y-129754895D01*
X158970742Y-129802514D01*
X159018361Y-129850133D01*
X159065980Y-129945371D01*
X159065980Y-130183466D01*
X159018361Y-130278704D01*
X158970742Y-130326323D01*
%TO.C,D41*%
X196322980Y-102059885D02*
X195322980Y-102059885D01*
X195322980Y-101821790D01*
X195370600Y-101678933D01*
X195465838Y-101583695D01*
X195561076Y-101536076D01*
X195751552Y-101488457D01*
X195894409Y-101488457D01*
X196084885Y-101536076D01*
X196180123Y-101583695D01*
X196275361Y-101678933D01*
X196322980Y-101821790D01*
X196322980Y-102059885D01*
X195656314Y-100631314D02*
X196322980Y-100631314D01*
X195275361Y-100869409D02*
X195989647Y-101107504D01*
X195989647Y-100488457D01*
X196322980Y-99583695D02*
X196322980Y-100155123D01*
X196322980Y-99869409D02*
X195322980Y-99869409D01*
X195465838Y-99964647D01*
X195561076Y-100059885D01*
X195608695Y-100155123D01*
%TO.C,D52*%
X138568180Y-110463285D02*
X137568180Y-110463285D01*
X137568180Y-110225190D01*
X137615800Y-110082333D01*
X137711038Y-109987095D01*
X137806276Y-109939476D01*
X137996752Y-109891857D01*
X138139609Y-109891857D01*
X138330085Y-109939476D01*
X138425323Y-109987095D01*
X138520561Y-110082333D01*
X138568180Y-110225190D01*
X138568180Y-110463285D01*
X137568180Y-108987095D02*
X137568180Y-109463285D01*
X138044371Y-109510904D01*
X137996752Y-109463285D01*
X137949133Y-109368047D01*
X137949133Y-109129952D01*
X137996752Y-109034714D01*
X138044371Y-108987095D01*
X138139609Y-108939476D01*
X138377704Y-108939476D01*
X138472942Y-108987095D01*
X138520561Y-109034714D01*
X138568180Y-109129952D01*
X138568180Y-109368047D01*
X138520561Y-109463285D01*
X138472942Y-109510904D01*
X137663419Y-108558523D02*
X137615800Y-108510904D01*
X137568180Y-108415666D01*
X137568180Y-108177571D01*
X137615800Y-108082333D01*
X137663419Y-108034714D01*
X137758657Y-107987095D01*
X137853895Y-107987095D01*
X137996752Y-108034714D01*
X138568180Y-108606142D01*
X138568180Y-107987095D01*
%TO.C,D6*%
X100928704Y-120445580D02*
X100928704Y-119445580D01*
X101166800Y-119445580D01*
X101309657Y-119493200D01*
X101404895Y-119588438D01*
X101452514Y-119683676D01*
X101500133Y-119874152D01*
X101500133Y-120017009D01*
X101452514Y-120207485D01*
X101404895Y-120302723D01*
X101309657Y-120397961D01*
X101166800Y-120445580D01*
X100928704Y-120445580D01*
X102357276Y-119445580D02*
X102166800Y-119445580D01*
X102071561Y-119493200D01*
X102023942Y-119540819D01*
X101928704Y-119683676D01*
X101881085Y-119874152D01*
X101881085Y-120255104D01*
X101928704Y-120350342D01*
X101976323Y-120397961D01*
X102071561Y-120445580D01*
X102262038Y-120445580D01*
X102357276Y-120397961D01*
X102404895Y-120350342D01*
X102452514Y-120255104D01*
X102452514Y-120017009D01*
X102404895Y-119921771D01*
X102357276Y-119874152D01*
X102262038Y-119826533D01*
X102071561Y-119826533D01*
X101976323Y-119874152D01*
X101928704Y-119921771D01*
X101881085Y-120017009D01*
%TO.C,D8*%
X69219904Y-115424580D02*
X69219904Y-114424580D01*
X69458000Y-114424580D01*
X69600857Y-114472200D01*
X69696095Y-114567438D01*
X69743714Y-114662676D01*
X69791333Y-114853152D01*
X69791333Y-114996009D01*
X69743714Y-115186485D01*
X69696095Y-115281723D01*
X69600857Y-115376961D01*
X69458000Y-115424580D01*
X69219904Y-115424580D01*
X70362761Y-114853152D02*
X70267523Y-114805533D01*
X70219904Y-114757914D01*
X70172285Y-114662676D01*
X70172285Y-114615057D01*
X70219904Y-114519819D01*
X70267523Y-114472200D01*
X70362761Y-114424580D01*
X70553238Y-114424580D01*
X70648476Y-114472200D01*
X70696095Y-114519819D01*
X70743714Y-114615057D01*
X70743714Y-114662676D01*
X70696095Y-114757914D01*
X70648476Y-114805533D01*
X70553238Y-114853152D01*
X70362761Y-114853152D01*
X70267523Y-114900771D01*
X70219904Y-114948390D01*
X70172285Y-115043628D01*
X70172285Y-115234104D01*
X70219904Y-115329342D01*
X70267523Y-115376961D01*
X70362761Y-115424580D01*
X70553238Y-115424580D01*
X70648476Y-115376961D01*
X70696095Y-115329342D01*
X70743714Y-115234104D01*
X70743714Y-115043628D01*
X70696095Y-114948390D01*
X70648476Y-114900771D01*
X70553238Y-114853152D01*
%TO.C,D31*%
X82221714Y-112305980D02*
X82221714Y-111305980D01*
X82459809Y-111305980D01*
X82602666Y-111353600D01*
X82697904Y-111448838D01*
X82745523Y-111544076D01*
X82793142Y-111734552D01*
X82793142Y-111877409D01*
X82745523Y-112067885D01*
X82697904Y-112163123D01*
X82602666Y-112258361D01*
X82459809Y-112305980D01*
X82221714Y-112305980D01*
X83126476Y-111305980D02*
X83745523Y-111305980D01*
X83412190Y-111686933D01*
X83555047Y-111686933D01*
X83650285Y-111734552D01*
X83697904Y-111782171D01*
X83745523Y-111877409D01*
X83745523Y-112115504D01*
X83697904Y-112210742D01*
X83650285Y-112258361D01*
X83555047Y-112305980D01*
X83269333Y-112305980D01*
X83174095Y-112258361D01*
X83126476Y-112210742D01*
X84697904Y-112305980D02*
X84126476Y-112305980D01*
X84412190Y-112305980D02*
X84412190Y-111305980D01*
X84316952Y-111448838D01*
X84221714Y-111544076D01*
X84126476Y-111591695D01*
%TO.C,D16*%
X98039514Y-133602780D02*
X98039514Y-132602780D01*
X98277609Y-132602780D01*
X98420466Y-132650400D01*
X98515704Y-132745638D01*
X98563323Y-132840876D01*
X98610942Y-133031352D01*
X98610942Y-133174209D01*
X98563323Y-133364685D01*
X98515704Y-133459923D01*
X98420466Y-133555161D01*
X98277609Y-133602780D01*
X98039514Y-133602780D01*
X99563323Y-133602780D02*
X98991895Y-133602780D01*
X99277609Y-133602780D02*
X99277609Y-132602780D01*
X99182371Y-132745638D01*
X99087133Y-132840876D01*
X98991895Y-132888495D01*
X100420466Y-132602780D02*
X100229990Y-132602780D01*
X100134752Y-132650400D01*
X100087133Y-132698019D01*
X99991895Y-132840876D01*
X99944276Y-133031352D01*
X99944276Y-133412304D01*
X99991895Y-133507542D01*
X100039514Y-133555161D01*
X100134752Y-133602780D01*
X100325228Y-133602780D01*
X100420466Y-133555161D01*
X100468085Y-133507542D01*
X100515704Y-133412304D01*
X100515704Y-133174209D01*
X100468085Y-133078971D01*
X100420466Y-133031352D01*
X100325228Y-132983733D01*
X100134752Y-132983733D01*
X100039514Y-133031352D01*
X99991895Y-133078971D01*
X99944276Y-133174209D01*
%TO.C,D46*%
X151572980Y-110437885D02*
X150572980Y-110437885D01*
X150572980Y-110199790D01*
X150620600Y-110056933D01*
X150715838Y-109961695D01*
X150811076Y-109914076D01*
X151001552Y-109866457D01*
X151144409Y-109866457D01*
X151334885Y-109914076D01*
X151430123Y-109961695D01*
X151525361Y-110056933D01*
X151572980Y-110199790D01*
X151572980Y-110437885D01*
X150906314Y-109009314D02*
X151572980Y-109009314D01*
X150525361Y-109247409D02*
X151239647Y-109485504D01*
X151239647Y-108866457D01*
X150572980Y-108056933D02*
X150572980Y-108247409D01*
X150620600Y-108342647D01*
X150668219Y-108390266D01*
X150811076Y-108485504D01*
X151001552Y-108533123D01*
X151382504Y-108533123D01*
X151477742Y-108485504D01*
X151525361Y-108437885D01*
X151572980Y-108342647D01*
X151572980Y-108152171D01*
X151525361Y-108056933D01*
X151477742Y-108009314D01*
X151382504Y-107961695D01*
X151144409Y-107961695D01*
X151049171Y-108009314D01*
X151001552Y-108056933D01*
X150953933Y-108152171D01*
X150953933Y-108342647D01*
X151001552Y-108437885D01*
X151049171Y-108485504D01*
X151144409Y-108533123D01*
%TO.C,H2*%
X64576095Y-101721580D02*
X64576095Y-100721580D01*
X64576095Y-101197771D02*
X65147523Y-101197771D01*
X65147523Y-101721580D02*
X65147523Y-100721580D01*
X65576095Y-100816819D02*
X65623714Y-100769200D01*
X65718952Y-100721580D01*
X65957047Y-100721580D01*
X66052285Y-100769200D01*
X66099904Y-100816819D01*
X66147523Y-100912057D01*
X66147523Y-101007295D01*
X66099904Y-101150152D01*
X65528476Y-101721580D01*
X66147523Y-101721580D01*
%TO.C,D55*%
X102890914Y-110590380D02*
X102890914Y-109590380D01*
X103129009Y-109590380D01*
X103271866Y-109638000D01*
X103367104Y-109733238D01*
X103414723Y-109828476D01*
X103462342Y-110018952D01*
X103462342Y-110161809D01*
X103414723Y-110352285D01*
X103367104Y-110447523D01*
X103271866Y-110542761D01*
X103129009Y-110590380D01*
X102890914Y-110590380D01*
X104367104Y-109590380D02*
X103890914Y-109590380D01*
X103843295Y-110066571D01*
X103890914Y-110018952D01*
X103986152Y-109971333D01*
X104224247Y-109971333D01*
X104319485Y-110018952D01*
X104367104Y-110066571D01*
X104414723Y-110161809D01*
X104414723Y-110399904D01*
X104367104Y-110495142D01*
X104319485Y-110542761D01*
X104224247Y-110590380D01*
X103986152Y-110590380D01*
X103890914Y-110542761D01*
X103843295Y-110495142D01*
X105319485Y-109590380D02*
X104843295Y-109590380D01*
X104795676Y-110066571D01*
X104843295Y-110018952D01*
X104938533Y-109971333D01*
X105176628Y-109971333D01*
X105271866Y-110018952D01*
X105319485Y-110066571D01*
X105367104Y-110161809D01*
X105367104Y-110399904D01*
X105319485Y-110495142D01*
X105271866Y-110542761D01*
X105176628Y-110590380D01*
X104938533Y-110590380D01*
X104843295Y-110542761D01*
X104795676Y-110495142D01*
%TO.C,D30*%
X82120114Y-105600380D02*
X82120114Y-104600380D01*
X82358209Y-104600380D01*
X82501066Y-104648000D01*
X82596304Y-104743238D01*
X82643923Y-104838476D01*
X82691542Y-105028952D01*
X82691542Y-105171809D01*
X82643923Y-105362285D01*
X82596304Y-105457523D01*
X82501066Y-105552761D01*
X82358209Y-105600380D01*
X82120114Y-105600380D01*
X83024876Y-104600380D02*
X83643923Y-104600380D01*
X83310590Y-104981333D01*
X83453447Y-104981333D01*
X83548685Y-105028952D01*
X83596304Y-105076571D01*
X83643923Y-105171809D01*
X83643923Y-105409904D01*
X83596304Y-105505142D01*
X83548685Y-105552761D01*
X83453447Y-105600380D01*
X83167733Y-105600380D01*
X83072495Y-105552761D01*
X83024876Y-105505142D01*
X84262971Y-104600380D02*
X84358209Y-104600380D01*
X84453447Y-104648000D01*
X84501066Y-104695619D01*
X84548685Y-104790857D01*
X84596304Y-104981333D01*
X84596304Y-105219428D01*
X84548685Y-105409904D01*
X84501066Y-105505142D01*
X84453447Y-105552761D01*
X84358209Y-105600380D01*
X84262971Y-105600380D01*
X84167733Y-105552761D01*
X84120114Y-105505142D01*
X84072495Y-105409904D01*
X84024876Y-105219428D01*
X84024876Y-104981333D01*
X84072495Y-104790857D01*
X84120114Y-104695619D01*
X84167733Y-104648000D01*
X84262971Y-104600380D01*
%TO.C,D20*%
X174534580Y-110209285D02*
X173534580Y-110209285D01*
X173534580Y-109971190D01*
X173582200Y-109828333D01*
X173677438Y-109733095D01*
X173772676Y-109685476D01*
X173963152Y-109637857D01*
X174106009Y-109637857D01*
X174296485Y-109685476D01*
X174391723Y-109733095D01*
X174486961Y-109828333D01*
X174534580Y-109971190D01*
X174534580Y-110209285D01*
X173629819Y-109256904D02*
X173582200Y-109209285D01*
X173534580Y-109114047D01*
X173534580Y-108875952D01*
X173582200Y-108780714D01*
X173629819Y-108733095D01*
X173725057Y-108685476D01*
X173820295Y-108685476D01*
X173963152Y-108733095D01*
X174534580Y-109304523D01*
X174534580Y-108685476D01*
X173534580Y-108066428D02*
X173534580Y-107971190D01*
X173582200Y-107875952D01*
X173629819Y-107828333D01*
X173725057Y-107780714D01*
X173915533Y-107733095D01*
X174153628Y-107733095D01*
X174344104Y-107780714D01*
X174439342Y-107828333D01*
X174486961Y-107875952D01*
X174534580Y-107971190D01*
X174534580Y-108066428D01*
X174486961Y-108161666D01*
X174439342Y-108209285D01*
X174344104Y-108256904D01*
X174153628Y-108304523D01*
X173915533Y-108304523D01*
X173725057Y-108256904D01*
X173629819Y-108209285D01*
X173582200Y-108161666D01*
X173534580Y-108066428D01*
%TO.C,D18*%
X179131980Y-110590285D02*
X178131980Y-110590285D01*
X178131980Y-110352190D01*
X178179600Y-110209333D01*
X178274838Y-110114095D01*
X178370076Y-110066476D01*
X178560552Y-110018857D01*
X178703409Y-110018857D01*
X178893885Y-110066476D01*
X178989123Y-110114095D01*
X179084361Y-110209333D01*
X179131980Y-110352190D01*
X179131980Y-110590285D01*
X179131980Y-109066476D02*
X179131980Y-109637904D01*
X179131980Y-109352190D02*
X178131980Y-109352190D01*
X178274838Y-109447428D01*
X178370076Y-109542666D01*
X178417695Y-109637904D01*
X178560552Y-108495047D02*
X178512933Y-108590285D01*
X178465314Y-108637904D01*
X178370076Y-108685523D01*
X178322457Y-108685523D01*
X178227219Y-108637904D01*
X178179600Y-108590285D01*
X178131980Y-108495047D01*
X178131980Y-108304571D01*
X178179600Y-108209333D01*
X178227219Y-108161714D01*
X178322457Y-108114095D01*
X178370076Y-108114095D01*
X178465314Y-108161714D01*
X178512933Y-108209333D01*
X178560552Y-108304571D01*
X178560552Y-108495047D01*
X178608171Y-108590285D01*
X178655790Y-108637904D01*
X178751028Y-108685523D01*
X178941504Y-108685523D01*
X179036742Y-108637904D01*
X179084361Y-108590285D01*
X179131980Y-108495047D01*
X179131980Y-108304571D01*
X179084361Y-108209333D01*
X179036742Y-108161714D01*
X178941504Y-108114095D01*
X178751028Y-108114095D01*
X178655790Y-108161714D01*
X178608171Y-108209333D01*
X178560552Y-108304571D01*
%TO.C,D15*%
X100376314Y-123976180D02*
X100376314Y-122976180D01*
X100614409Y-122976180D01*
X100757266Y-123023800D01*
X100852504Y-123119038D01*
X100900123Y-123214276D01*
X100947742Y-123404752D01*
X100947742Y-123547609D01*
X100900123Y-123738085D01*
X100852504Y-123833323D01*
X100757266Y-123928561D01*
X100614409Y-123976180D01*
X100376314Y-123976180D01*
X101900123Y-123976180D02*
X101328695Y-123976180D01*
X101614409Y-123976180D02*
X101614409Y-122976180D01*
X101519171Y-123119038D01*
X101423933Y-123214276D01*
X101328695Y-123261895D01*
X102804885Y-122976180D02*
X102328695Y-122976180D01*
X102281076Y-123452371D01*
X102328695Y-123404752D01*
X102423933Y-123357133D01*
X102662028Y-123357133D01*
X102757266Y-123404752D01*
X102804885Y-123452371D01*
X102852504Y-123547609D01*
X102852504Y-123785704D01*
X102804885Y-123880942D01*
X102757266Y-123928561D01*
X102662028Y-123976180D01*
X102423933Y-123976180D01*
X102328695Y-123928561D01*
X102281076Y-123880942D01*
%TO.C,D43*%
X100655714Y-117270580D02*
X100655714Y-116270580D01*
X100893809Y-116270580D01*
X101036666Y-116318200D01*
X101131904Y-116413438D01*
X101179523Y-116508676D01*
X101227142Y-116699152D01*
X101227142Y-116842009D01*
X101179523Y-117032485D01*
X101131904Y-117127723D01*
X101036666Y-117222961D01*
X100893809Y-117270580D01*
X100655714Y-117270580D01*
X102084285Y-116603914D02*
X102084285Y-117270580D01*
X101846190Y-116222961D02*
X101608095Y-116937247D01*
X102227142Y-116937247D01*
X102512857Y-116270580D02*
X103131904Y-116270580D01*
X102798571Y-116651533D01*
X102941428Y-116651533D01*
X103036666Y-116699152D01*
X103084285Y-116746771D01*
X103131904Y-116842009D01*
X103131904Y-117080104D01*
X103084285Y-117175342D01*
X103036666Y-117222961D01*
X102941428Y-117270580D01*
X102655714Y-117270580D01*
X102560476Y-117222961D01*
X102512857Y-117175342D01*
%TO.C,J5*%
X78172380Y-95603333D02*
X78886666Y-95603333D01*
X79029523Y-95650952D01*
X79124761Y-95746190D01*
X79172380Y-95889047D01*
X79172380Y-95984285D01*
X78172380Y-94650952D02*
X78172380Y-95127142D01*
X78648571Y-95174761D01*
X78600952Y-95127142D01*
X78553333Y-95031904D01*
X78553333Y-94793809D01*
X78600952Y-94698571D01*
X78648571Y-94650952D01*
X78743809Y-94603333D01*
X78981904Y-94603333D01*
X79077142Y-94650952D01*
X79124761Y-94698571D01*
X79172380Y-94793809D01*
X79172380Y-95031904D01*
X79124761Y-95127142D01*
X79077142Y-95174761D01*
X68530952Y-102082142D02*
X68483333Y-102129761D01*
X68340476Y-102177380D01*
X68245238Y-102177380D01*
X68102380Y-102129761D01*
X68007142Y-102034523D01*
X67959523Y-101939285D01*
X67911904Y-101748809D01*
X67911904Y-101605952D01*
X67959523Y-101415476D01*
X68007142Y-101320238D01*
X68102380Y-101225000D01*
X68245238Y-101177380D01*
X68340476Y-101177380D01*
X68483333Y-101225000D01*
X68530952Y-101272619D01*
X69388095Y-101510714D02*
X69388095Y-102177380D01*
X68959523Y-101510714D02*
X68959523Y-102034523D01*
X69007142Y-102129761D01*
X69102380Y-102177380D01*
X69245238Y-102177380D01*
X69340476Y-102129761D01*
X69388095Y-102082142D01*
X69864285Y-102177380D02*
X69864285Y-101510714D01*
X69864285Y-101701190D02*
X69911904Y-101605952D01*
X69959523Y-101558333D01*
X70054761Y-101510714D01*
X70150000Y-101510714D01*
X70435714Y-102129761D02*
X70530952Y-102177380D01*
X70721428Y-102177380D01*
X70816666Y-102129761D01*
X70864285Y-102034523D01*
X70864285Y-101986904D01*
X70816666Y-101891666D01*
X70721428Y-101844047D01*
X70578571Y-101844047D01*
X70483333Y-101796428D01*
X70435714Y-101701190D01*
X70435714Y-101653571D01*
X70483333Y-101558333D01*
X70578571Y-101510714D01*
X70721428Y-101510714D01*
X70816666Y-101558333D01*
X71435714Y-102177380D02*
X71340476Y-102129761D01*
X71292857Y-102082142D01*
X71245238Y-101986904D01*
X71245238Y-101701190D01*
X71292857Y-101605952D01*
X71340476Y-101558333D01*
X71435714Y-101510714D01*
X71578571Y-101510714D01*
X71673809Y-101558333D01*
X71721428Y-101605952D01*
X71769047Y-101701190D01*
X71769047Y-101986904D01*
X71721428Y-102082142D01*
X71673809Y-102129761D01*
X71578571Y-102177380D01*
X71435714Y-102177380D01*
X72197619Y-102177380D02*
X72197619Y-101510714D01*
X72197619Y-101701190D02*
X72245238Y-101605952D01*
X72292857Y-101558333D01*
X72388095Y-101510714D01*
X72483333Y-101510714D01*
X73578571Y-102177380D02*
X73578571Y-101177380D01*
X73673809Y-101796428D02*
X73959523Y-102177380D01*
X73959523Y-101510714D02*
X73578571Y-101891666D01*
X74769047Y-102129761D02*
X74673809Y-102177380D01*
X74483333Y-102177380D01*
X74388095Y-102129761D01*
X74340476Y-102034523D01*
X74340476Y-101653571D01*
X74388095Y-101558333D01*
X74483333Y-101510714D01*
X74673809Y-101510714D01*
X74769047Y-101558333D01*
X74816666Y-101653571D01*
X74816666Y-101748809D01*
X74340476Y-101844047D01*
X75150000Y-101510714D02*
X75388095Y-102177380D01*
X75626190Y-101510714D02*
X75388095Y-102177380D01*
X75292857Y-102415476D01*
X75245238Y-102463095D01*
X75150000Y-102510714D01*
X75959523Y-102129761D02*
X76054761Y-102177380D01*
X76245238Y-102177380D01*
X76340476Y-102129761D01*
X76388095Y-102034523D01*
X76388095Y-101986904D01*
X76340476Y-101891666D01*
X76245238Y-101844047D01*
X76102380Y-101844047D01*
X76007142Y-101796428D01*
X75959523Y-101701190D01*
X75959523Y-101653571D01*
X76007142Y-101558333D01*
X76102380Y-101510714D01*
X76245238Y-101510714D01*
X76340476Y-101558333D01*
%TO.C,D35*%
X155941780Y-132205685D02*
X154941780Y-132205685D01*
X154941780Y-131967590D01*
X154989400Y-131824733D01*
X155084638Y-131729495D01*
X155179876Y-131681876D01*
X155370352Y-131634257D01*
X155513209Y-131634257D01*
X155703685Y-131681876D01*
X155798923Y-131729495D01*
X155894161Y-131824733D01*
X155941780Y-131967590D01*
X155941780Y-132205685D01*
X154941780Y-131300923D02*
X154941780Y-130681876D01*
X155322733Y-131015209D01*
X155322733Y-130872352D01*
X155370352Y-130777114D01*
X155417971Y-130729495D01*
X155513209Y-130681876D01*
X155751304Y-130681876D01*
X155846542Y-130729495D01*
X155894161Y-130777114D01*
X155941780Y-130872352D01*
X155941780Y-131158066D01*
X155894161Y-131253304D01*
X155846542Y-131300923D01*
X154941780Y-129777114D02*
X154941780Y-130253304D01*
X155417971Y-130300923D01*
X155370352Y-130253304D01*
X155322733Y-130158066D01*
X155322733Y-129919971D01*
X155370352Y-129824733D01*
X155417971Y-129777114D01*
X155513209Y-129729495D01*
X155751304Y-129729495D01*
X155846542Y-129777114D01*
X155894161Y-129824733D01*
X155941780Y-129919971D01*
X155941780Y-130158066D01*
X155894161Y-130253304D01*
X155846542Y-130300923D01*
%TO.C,D56*%
X79503914Y-132422780D02*
X79503914Y-131422780D01*
X79742009Y-131422780D01*
X79884866Y-131470400D01*
X79980104Y-131565638D01*
X80027723Y-131660876D01*
X80075342Y-131851352D01*
X80075342Y-131994209D01*
X80027723Y-132184685D01*
X79980104Y-132279923D01*
X79884866Y-132375161D01*
X79742009Y-132422780D01*
X79503914Y-132422780D01*
X80980104Y-131422780D02*
X80503914Y-131422780D01*
X80456295Y-131898971D01*
X80503914Y-131851352D01*
X80599152Y-131803733D01*
X80837247Y-131803733D01*
X80932485Y-131851352D01*
X80980104Y-131898971D01*
X81027723Y-131994209D01*
X81027723Y-132232304D01*
X80980104Y-132327542D01*
X80932485Y-132375161D01*
X80837247Y-132422780D01*
X80599152Y-132422780D01*
X80503914Y-132375161D01*
X80456295Y-132327542D01*
X81884866Y-131422780D02*
X81694390Y-131422780D01*
X81599152Y-131470400D01*
X81551533Y-131518019D01*
X81456295Y-131660876D01*
X81408676Y-131851352D01*
X81408676Y-132232304D01*
X81456295Y-132327542D01*
X81503914Y-132375161D01*
X81599152Y-132422780D01*
X81789628Y-132422780D01*
X81884866Y-132375161D01*
X81932485Y-132327542D01*
X81980104Y-132232304D01*
X81980104Y-131994209D01*
X81932485Y-131898971D01*
X81884866Y-131851352D01*
X81789628Y-131803733D01*
X81599152Y-131803733D01*
X81503914Y-131851352D01*
X81456295Y-131898971D01*
X81408676Y-131994209D01*
%TO.C,D5*%
X80056304Y-125437780D02*
X80056304Y-124437780D01*
X80294400Y-124437780D01*
X80437257Y-124485400D01*
X80532495Y-124580638D01*
X80580114Y-124675876D01*
X80627733Y-124866352D01*
X80627733Y-125009209D01*
X80580114Y-125199685D01*
X80532495Y-125294923D01*
X80437257Y-125390161D01*
X80294400Y-125437780D01*
X80056304Y-125437780D01*
X81532495Y-124437780D02*
X81056304Y-124437780D01*
X81008685Y-124913971D01*
X81056304Y-124866352D01*
X81151542Y-124818733D01*
X81389638Y-124818733D01*
X81484876Y-124866352D01*
X81532495Y-124913971D01*
X81580114Y-125009209D01*
X81580114Y-125247304D01*
X81532495Y-125342542D01*
X81484876Y-125390161D01*
X81389638Y-125437780D01*
X81151542Y-125437780D01*
X81056304Y-125390161D01*
X81008685Y-125342542D01*
%TO.C,D32*%
X161555180Y-110590285D02*
X160555180Y-110590285D01*
X160555180Y-110352190D01*
X160602800Y-110209333D01*
X160698038Y-110114095D01*
X160793276Y-110066476D01*
X160983752Y-110018857D01*
X161126609Y-110018857D01*
X161317085Y-110066476D01*
X161412323Y-110114095D01*
X161507561Y-110209333D01*
X161555180Y-110352190D01*
X161555180Y-110590285D01*
X160555180Y-109685523D02*
X160555180Y-109066476D01*
X160936133Y-109399809D01*
X160936133Y-109256952D01*
X160983752Y-109161714D01*
X161031371Y-109114095D01*
X161126609Y-109066476D01*
X161364704Y-109066476D01*
X161459942Y-109114095D01*
X161507561Y-109161714D01*
X161555180Y-109256952D01*
X161555180Y-109542666D01*
X161507561Y-109637904D01*
X161459942Y-109685523D01*
X160650419Y-108685523D02*
X160602800Y-108637904D01*
X160555180Y-108542666D01*
X160555180Y-108304571D01*
X160602800Y-108209333D01*
X160650419Y-108161714D01*
X160745657Y-108114095D01*
X160840895Y-108114095D01*
X160983752Y-108161714D01*
X161555180Y-108733142D01*
X161555180Y-108114095D01*
%TO.C,J1*%
X58623809Y-102177380D02*
X58623809Y-101177380D01*
X59004761Y-101177380D01*
X59100000Y-101225000D01*
X59147619Y-101272619D01*
X59195238Y-101367857D01*
X59195238Y-101510714D01*
X59147619Y-101605952D01*
X59100000Y-101653571D01*
X59004761Y-101701190D01*
X58623809Y-101701190D01*
X59766666Y-102177380D02*
X59671428Y-102129761D01*
X59623809Y-102082142D01*
X59576190Y-101986904D01*
X59576190Y-101701190D01*
X59623809Y-101605952D01*
X59671428Y-101558333D01*
X59766666Y-101510714D01*
X59909523Y-101510714D01*
X60004761Y-101558333D01*
X60052380Y-101605952D01*
X60100000Y-101701190D01*
X60100000Y-101986904D01*
X60052380Y-102082142D01*
X60004761Y-102129761D01*
X59909523Y-102177380D01*
X59766666Y-102177380D01*
X60433333Y-101510714D02*
X60623809Y-102177380D01*
X60814285Y-101701190D01*
X61004761Y-102177380D01*
X61195238Y-101510714D01*
X61957142Y-102129761D02*
X61861904Y-102177380D01*
X61671428Y-102177380D01*
X61576190Y-102129761D01*
X61528571Y-102034523D01*
X61528571Y-101653571D01*
X61576190Y-101558333D01*
X61671428Y-101510714D01*
X61861904Y-101510714D01*
X61957142Y-101558333D01*
X62004761Y-101653571D01*
X62004761Y-101748809D01*
X61528571Y-101844047D01*
X62433333Y-102177380D02*
X62433333Y-101510714D01*
X62433333Y-101701190D02*
X62480952Y-101605952D01*
X62528571Y-101558333D01*
X62623809Y-101510714D01*
X62719047Y-101510714D01*
%TO.C,D9*%
X69092504Y-119203580D02*
X69092504Y-118203580D01*
X69330600Y-118203580D01*
X69473457Y-118251200D01*
X69568695Y-118346438D01*
X69616314Y-118441676D01*
X69663933Y-118632152D01*
X69663933Y-118775009D01*
X69616314Y-118965485D01*
X69568695Y-119060723D01*
X69473457Y-119155961D01*
X69330600Y-119203580D01*
X69092504Y-119203580D01*
X70140123Y-119203580D02*
X70330600Y-119203580D01*
X70425838Y-119155961D01*
X70473457Y-119108342D01*
X70568695Y-118965485D01*
X70616314Y-118775009D01*
X70616314Y-118394057D01*
X70568695Y-118298819D01*
X70521076Y-118251200D01*
X70425838Y-118203580D01*
X70235361Y-118203580D01*
X70140123Y-118251200D01*
X70092504Y-118298819D01*
X70044885Y-118394057D01*
X70044885Y-118632152D01*
X70092504Y-118727390D01*
X70140123Y-118775009D01*
X70235361Y-118822628D01*
X70425838Y-118822628D01*
X70521076Y-118775009D01*
X70568695Y-118727390D01*
X70616314Y-118632152D01*
%TO.C,D51*%
X135418580Y-110488685D02*
X134418580Y-110488685D01*
X134418580Y-110250590D01*
X134466200Y-110107733D01*
X134561438Y-110012495D01*
X134656676Y-109964876D01*
X134847152Y-109917257D01*
X134990009Y-109917257D01*
X135180485Y-109964876D01*
X135275723Y-110012495D01*
X135370961Y-110107733D01*
X135418580Y-110250590D01*
X135418580Y-110488685D01*
X134418580Y-109012495D02*
X134418580Y-109488685D01*
X134894771Y-109536304D01*
X134847152Y-109488685D01*
X134799533Y-109393447D01*
X134799533Y-109155352D01*
X134847152Y-109060114D01*
X134894771Y-109012495D01*
X134990009Y-108964876D01*
X135228104Y-108964876D01*
X135323342Y-109012495D01*
X135370961Y-109060114D01*
X135418580Y-109155352D01*
X135418580Y-109393447D01*
X135370961Y-109488685D01*
X135323342Y-109536304D01*
X135418580Y-108012495D02*
X135418580Y-108583923D01*
X135418580Y-108298209D02*
X134418580Y-108298209D01*
X134561438Y-108393447D01*
X134656676Y-108488685D01*
X134704295Y-108583923D01*
%TO.C,D19*%
X178836914Y-119404180D02*
X178836914Y-118404180D01*
X179075009Y-118404180D01*
X179217866Y-118451800D01*
X179313104Y-118547038D01*
X179360723Y-118642276D01*
X179408342Y-118832752D01*
X179408342Y-118975609D01*
X179360723Y-119166085D01*
X179313104Y-119261323D01*
X179217866Y-119356561D01*
X179075009Y-119404180D01*
X178836914Y-119404180D01*
X180360723Y-119404180D02*
X179789295Y-119404180D01*
X180075009Y-119404180D02*
X180075009Y-118404180D01*
X179979771Y-118547038D01*
X179884533Y-118642276D01*
X179789295Y-118689895D01*
X180836914Y-119404180D02*
X181027390Y-119404180D01*
X181122628Y-119356561D01*
X181170247Y-119308942D01*
X181265485Y-119166085D01*
X181313104Y-118975609D01*
X181313104Y-118594657D01*
X181265485Y-118499419D01*
X181217866Y-118451800D01*
X181122628Y-118404180D01*
X180932152Y-118404180D01*
X180836914Y-118451800D01*
X180789295Y-118499419D01*
X180741676Y-118594657D01*
X180741676Y-118832752D01*
X180789295Y-118927990D01*
X180836914Y-118975609D01*
X180932152Y-119023228D01*
X181122628Y-119023228D01*
X181217866Y-118975609D01*
X181265485Y-118927990D01*
X181313104Y-118832752D01*
%TO.C,D29*%
X98318914Y-127227380D02*
X98318914Y-126227380D01*
X98557009Y-126227380D01*
X98699866Y-126275000D01*
X98795104Y-126370238D01*
X98842723Y-126465476D01*
X98890342Y-126655952D01*
X98890342Y-126798809D01*
X98842723Y-126989285D01*
X98795104Y-127084523D01*
X98699866Y-127179761D01*
X98557009Y-127227380D01*
X98318914Y-127227380D01*
X99271295Y-126322619D02*
X99318914Y-126275000D01*
X99414152Y-126227380D01*
X99652247Y-126227380D01*
X99747485Y-126275000D01*
X99795104Y-126322619D01*
X99842723Y-126417857D01*
X99842723Y-126513095D01*
X99795104Y-126655952D01*
X99223676Y-127227380D01*
X99842723Y-127227380D01*
X100318914Y-127227380D02*
X100509390Y-127227380D01*
X100604628Y-127179761D01*
X100652247Y-127132142D01*
X100747485Y-126989285D01*
X100795104Y-126798809D01*
X100795104Y-126417857D01*
X100747485Y-126322619D01*
X100699866Y-126275000D01*
X100604628Y-126227380D01*
X100414152Y-126227380D01*
X100318914Y-126275000D01*
X100271295Y-126322619D01*
X100223676Y-126417857D01*
X100223676Y-126655952D01*
X100271295Y-126751190D01*
X100318914Y-126798809D01*
X100414152Y-126846428D01*
X100604628Y-126846428D01*
X100699866Y-126798809D01*
X100747485Y-126751190D01*
X100795104Y-126655952D01*
%TO.C,D39*%
X188742914Y-99160380D02*
X188742914Y-98160380D01*
X188981009Y-98160380D01*
X189123866Y-98208000D01*
X189219104Y-98303238D01*
X189266723Y-98398476D01*
X189314342Y-98588952D01*
X189314342Y-98731809D01*
X189266723Y-98922285D01*
X189219104Y-99017523D01*
X189123866Y-99112761D01*
X188981009Y-99160380D01*
X188742914Y-99160380D01*
X189647676Y-98160380D02*
X190266723Y-98160380D01*
X189933390Y-98541333D01*
X190076247Y-98541333D01*
X190171485Y-98588952D01*
X190219104Y-98636571D01*
X190266723Y-98731809D01*
X190266723Y-98969904D01*
X190219104Y-99065142D01*
X190171485Y-99112761D01*
X190076247Y-99160380D01*
X189790533Y-99160380D01*
X189695295Y-99112761D01*
X189647676Y-99065142D01*
X190742914Y-99160380D02*
X190933390Y-99160380D01*
X191028628Y-99112761D01*
X191076247Y-99065142D01*
X191171485Y-98922285D01*
X191219104Y-98731809D01*
X191219104Y-98350857D01*
X191171485Y-98255619D01*
X191123866Y-98208000D01*
X191028628Y-98160380D01*
X190838152Y-98160380D01*
X190742914Y-98208000D01*
X190695295Y-98255619D01*
X190647676Y-98350857D01*
X190647676Y-98588952D01*
X190695295Y-98684190D01*
X190742914Y-98731809D01*
X190838152Y-98779428D01*
X191028628Y-98779428D01*
X191123866Y-98731809D01*
X191171485Y-98684190D01*
X191219104Y-98588952D01*
%TO.C,D40*%
X128712980Y-110488685D02*
X127712980Y-110488685D01*
X127712980Y-110250590D01*
X127760600Y-110107733D01*
X127855838Y-110012495D01*
X127951076Y-109964876D01*
X128141552Y-109917257D01*
X128284409Y-109917257D01*
X128474885Y-109964876D01*
X128570123Y-110012495D01*
X128665361Y-110107733D01*
X128712980Y-110250590D01*
X128712980Y-110488685D01*
X128046314Y-109060114D02*
X128712980Y-109060114D01*
X127665361Y-109298209D02*
X128379647Y-109536304D01*
X128379647Y-108917257D01*
X127712980Y-108345828D02*
X127712980Y-108250590D01*
X127760600Y-108155352D01*
X127808219Y-108107733D01*
X127903457Y-108060114D01*
X128093933Y-108012495D01*
X128332028Y-108012495D01*
X128522504Y-108060114D01*
X128617742Y-108107733D01*
X128665361Y-108155352D01*
X128712980Y-108250590D01*
X128712980Y-108345828D01*
X128665361Y-108441066D01*
X128617742Y-108488685D01*
X128522504Y-108536304D01*
X128332028Y-108583923D01*
X128093933Y-108583923D01*
X127903457Y-108536304D01*
X127808219Y-108488685D01*
X127760600Y-108441066D01*
X127712980Y-108345828D01*
%TO.C,J2*%
X177722380Y-96053333D02*
X178436666Y-96053333D01*
X178579523Y-96100952D01*
X178674761Y-96196190D01*
X178722380Y-96339047D01*
X178722380Y-96434285D01*
X177817619Y-95624761D02*
X177770000Y-95577142D01*
X177722380Y-95481904D01*
X177722380Y-95243809D01*
X177770000Y-95148571D01*
X177817619Y-95100952D01*
X177912857Y-95053333D01*
X178008095Y-95053333D01*
X178150952Y-95100952D01*
X178722380Y-95672380D01*
X178722380Y-95053333D01*
%TO.C,D45*%
X148448780Y-110387085D02*
X147448780Y-110387085D01*
X147448780Y-110148990D01*
X147496400Y-110006133D01*
X147591638Y-109910895D01*
X147686876Y-109863276D01*
X147877352Y-109815657D01*
X148020209Y-109815657D01*
X148210685Y-109863276D01*
X148305923Y-109910895D01*
X148401161Y-110006133D01*
X148448780Y-110148990D01*
X148448780Y-110387085D01*
X147782114Y-108958514D02*
X148448780Y-108958514D01*
X147401161Y-109196609D02*
X148115447Y-109434704D01*
X148115447Y-108815657D01*
X147448780Y-107958514D02*
X147448780Y-108434704D01*
X147924971Y-108482323D01*
X147877352Y-108434704D01*
X147829733Y-108339466D01*
X147829733Y-108101371D01*
X147877352Y-108006133D01*
X147924971Y-107958514D01*
X148020209Y-107910895D01*
X148258304Y-107910895D01*
X148353542Y-107958514D01*
X148401161Y-108006133D01*
X148448780Y-108101371D01*
X148448780Y-108339466D01*
X148401161Y-108434704D01*
X148353542Y-108482323D01*
%TO.C,J4*%
X109497180Y-96013333D02*
X110211466Y-96013333D01*
X110354323Y-96060952D01*
X110449561Y-96156190D01*
X110497180Y-96299047D01*
X110497180Y-96394285D01*
X109830514Y-95108571D02*
X110497180Y-95108571D01*
X109449561Y-95346666D02*
X110163847Y-95584761D01*
X110163847Y-94965714D01*
X95843057Y-103097380D02*
X95843057Y-102097380D01*
X96414485Y-103097380D02*
X95985914Y-102525952D01*
X96414485Y-102097380D02*
X95843057Y-102668809D01*
X97224009Y-103049761D02*
X97128771Y-103097380D01*
X96938295Y-103097380D01*
X96843057Y-103049761D01*
X96795438Y-102954523D01*
X96795438Y-102573571D01*
X96843057Y-102478333D01*
X96938295Y-102430714D01*
X97128771Y-102430714D01*
X97224009Y-102478333D01*
X97271628Y-102573571D01*
X97271628Y-102668809D01*
X96795438Y-102764047D01*
X97604961Y-102430714D02*
X97843057Y-103097380D01*
X98081152Y-102430714D02*
X97843057Y-103097380D01*
X97747819Y-103335476D01*
X97700200Y-103383095D01*
X97604961Y-103430714D01*
X98462104Y-103097380D02*
X98462104Y-102097380D01*
X98462104Y-102478333D02*
X98557342Y-102430714D01*
X98747819Y-102430714D01*
X98843057Y-102478333D01*
X98890676Y-102525952D01*
X98938295Y-102621190D01*
X98938295Y-102906904D01*
X98890676Y-103002142D01*
X98843057Y-103049761D01*
X98747819Y-103097380D01*
X98557342Y-103097380D01*
X98462104Y-103049761D01*
X99509723Y-103097380D02*
X99414485Y-103049761D01*
X99366866Y-103002142D01*
X99319247Y-102906904D01*
X99319247Y-102621190D01*
X99366866Y-102525952D01*
X99414485Y-102478333D01*
X99509723Y-102430714D01*
X99652580Y-102430714D01*
X99747819Y-102478333D01*
X99795438Y-102525952D01*
X99843057Y-102621190D01*
X99843057Y-102906904D01*
X99795438Y-103002142D01*
X99747819Y-103049761D01*
X99652580Y-103097380D01*
X99509723Y-103097380D01*
X100700200Y-103097380D02*
X100700200Y-102573571D01*
X100652580Y-102478333D01*
X100557342Y-102430714D01*
X100366866Y-102430714D01*
X100271628Y-102478333D01*
X100700200Y-103049761D02*
X100604961Y-103097380D01*
X100366866Y-103097380D01*
X100271628Y-103049761D01*
X100224009Y-102954523D01*
X100224009Y-102859285D01*
X100271628Y-102764047D01*
X100366866Y-102716428D01*
X100604961Y-102716428D01*
X100700200Y-102668809D01*
X101176390Y-103097380D02*
X101176390Y-102430714D01*
X101176390Y-102621190D02*
X101224009Y-102525952D01*
X101271628Y-102478333D01*
X101366866Y-102430714D01*
X101462104Y-102430714D01*
X102224009Y-103097380D02*
X102224009Y-102097380D01*
X102224009Y-103049761D02*
X102128771Y-103097380D01*
X101938295Y-103097380D01*
X101843057Y-103049761D01*
X101795438Y-103002142D01*
X101747819Y-102906904D01*
X101747819Y-102621190D01*
X101795438Y-102525952D01*
X101843057Y-102478333D01*
X101938295Y-102430714D01*
X102128771Y-102430714D01*
X102224009Y-102478333D01*
X104033533Y-103002142D02*
X103985914Y-103049761D01*
X103843057Y-103097380D01*
X103747819Y-103097380D01*
X103604961Y-103049761D01*
X103509723Y-102954523D01*
X103462104Y-102859285D01*
X103414485Y-102668809D01*
X103414485Y-102525952D01*
X103462104Y-102335476D01*
X103509723Y-102240238D01*
X103604961Y-102145000D01*
X103747819Y-102097380D01*
X103843057Y-102097380D01*
X103985914Y-102145000D01*
X104033533Y-102192619D01*
X104604961Y-103097380D02*
X104509723Y-103049761D01*
X104462104Y-103002142D01*
X104414485Y-102906904D01*
X104414485Y-102621190D01*
X104462104Y-102525952D01*
X104509723Y-102478333D01*
X104604961Y-102430714D01*
X104747819Y-102430714D01*
X104843057Y-102478333D01*
X104890676Y-102525952D01*
X104938295Y-102621190D01*
X104938295Y-102906904D01*
X104890676Y-103002142D01*
X104843057Y-103049761D01*
X104747819Y-103097380D01*
X104604961Y-103097380D01*
X105509723Y-103097380D02*
X105414485Y-103049761D01*
X105366866Y-102954523D01*
X105366866Y-102097380D01*
X106319247Y-102430714D02*
X106319247Y-103097380D01*
X105890676Y-102430714D02*
X105890676Y-102954523D01*
X105938295Y-103049761D01*
X106033533Y-103097380D01*
X106176390Y-103097380D01*
X106271628Y-103049761D01*
X106319247Y-103002142D01*
X106795438Y-103097380D02*
X106795438Y-102430714D01*
X106795438Y-102525952D02*
X106843057Y-102478333D01*
X106938295Y-102430714D01*
X107081152Y-102430714D01*
X107176390Y-102478333D01*
X107224009Y-102573571D01*
X107224009Y-103097380D01*
X107224009Y-102573571D02*
X107271628Y-102478333D01*
X107366866Y-102430714D01*
X107509723Y-102430714D01*
X107604961Y-102478333D01*
X107652580Y-102573571D01*
X107652580Y-103097380D01*
X108128771Y-102430714D02*
X108128771Y-103097380D01*
X108128771Y-102525952D02*
X108176390Y-102478333D01*
X108271628Y-102430714D01*
X108414485Y-102430714D01*
X108509723Y-102478333D01*
X108557342Y-102573571D01*
X108557342Y-103097380D01*
%TO.C,D7*%
X68711104Y-112323780D02*
X68711104Y-111323780D01*
X68949200Y-111323780D01*
X69092057Y-111371400D01*
X69187295Y-111466638D01*
X69234914Y-111561876D01*
X69282533Y-111752352D01*
X69282533Y-111895209D01*
X69234914Y-112085685D01*
X69187295Y-112180923D01*
X69092057Y-112276161D01*
X68949200Y-112323780D01*
X68711104Y-112323780D01*
X69615866Y-111323780D02*
X70282533Y-111323780D01*
X69853961Y-112323780D01*
%TO.C,D36*%
X158329380Y-110488685D02*
X157329380Y-110488685D01*
X157329380Y-110250590D01*
X157377000Y-110107733D01*
X157472238Y-110012495D01*
X157567476Y-109964876D01*
X157757952Y-109917257D01*
X157900809Y-109917257D01*
X158091285Y-109964876D01*
X158186523Y-110012495D01*
X158281761Y-110107733D01*
X158329380Y-110250590D01*
X158329380Y-110488685D01*
X157329380Y-109583923D02*
X157329380Y-108964876D01*
X157710333Y-109298209D01*
X157710333Y-109155352D01*
X157757952Y-109060114D01*
X157805571Y-109012495D01*
X157900809Y-108964876D01*
X158138904Y-108964876D01*
X158234142Y-109012495D01*
X158281761Y-109060114D01*
X158329380Y-109155352D01*
X158329380Y-109441066D01*
X158281761Y-109536304D01*
X158234142Y-109583923D01*
X157329380Y-108107733D02*
X157329380Y-108298209D01*
X157377000Y-108393447D01*
X157424619Y-108441066D01*
X157567476Y-108536304D01*
X157757952Y-108583923D01*
X158138904Y-108583923D01*
X158234142Y-108536304D01*
X158281761Y-108488685D01*
X158329380Y-108393447D01*
X158329380Y-108202971D01*
X158281761Y-108107733D01*
X158234142Y-108060114D01*
X158138904Y-108012495D01*
X157900809Y-108012495D01*
X157805571Y-108060114D01*
X157757952Y-108107733D01*
X157710333Y-108202971D01*
X157710333Y-108393447D01*
X157757952Y-108488685D01*
X157805571Y-108536304D01*
X157900809Y-108583923D01*
%TO.C,D27*%
X82145514Y-115557180D02*
X82145514Y-114557180D01*
X82383609Y-114557180D01*
X82526466Y-114604800D01*
X82621704Y-114700038D01*
X82669323Y-114795276D01*
X82716942Y-114985752D01*
X82716942Y-115128609D01*
X82669323Y-115319085D01*
X82621704Y-115414323D01*
X82526466Y-115509561D01*
X82383609Y-115557180D01*
X82145514Y-115557180D01*
X83097895Y-114652419D02*
X83145514Y-114604800D01*
X83240752Y-114557180D01*
X83478847Y-114557180D01*
X83574085Y-114604800D01*
X83621704Y-114652419D01*
X83669323Y-114747657D01*
X83669323Y-114842895D01*
X83621704Y-114985752D01*
X83050276Y-115557180D01*
X83669323Y-115557180D01*
X84002657Y-114557180D02*
X84669323Y-114557180D01*
X84240752Y-115557180D01*
%TO.C,D17*%
X88355514Y-93576580D02*
X88355514Y-92576580D01*
X88593609Y-92576580D01*
X88736466Y-92624200D01*
X88831704Y-92719438D01*
X88879323Y-92814676D01*
X88926942Y-93005152D01*
X88926942Y-93148009D01*
X88879323Y-93338485D01*
X88831704Y-93433723D01*
X88736466Y-93528961D01*
X88593609Y-93576580D01*
X88355514Y-93576580D01*
X89879323Y-93576580D02*
X89307895Y-93576580D01*
X89593609Y-93576580D02*
X89593609Y-92576580D01*
X89498371Y-92719438D01*
X89403133Y-92814676D01*
X89307895Y-92862295D01*
X90212657Y-92576580D02*
X90879323Y-92576580D01*
X90450752Y-93576580D01*
%TO.C,D38*%
X155255980Y-110590285D02*
X154255980Y-110590285D01*
X154255980Y-110352190D01*
X154303600Y-110209333D01*
X154398838Y-110114095D01*
X154494076Y-110066476D01*
X154684552Y-110018857D01*
X154827409Y-110018857D01*
X155017885Y-110066476D01*
X155113123Y-110114095D01*
X155208361Y-110209333D01*
X155255980Y-110352190D01*
X155255980Y-110590285D01*
X154255980Y-109685523D02*
X154255980Y-109066476D01*
X154636933Y-109399809D01*
X154636933Y-109256952D01*
X154684552Y-109161714D01*
X154732171Y-109114095D01*
X154827409Y-109066476D01*
X155065504Y-109066476D01*
X155160742Y-109114095D01*
X155208361Y-109161714D01*
X155255980Y-109256952D01*
X155255980Y-109542666D01*
X155208361Y-109637904D01*
X155160742Y-109685523D01*
X154684552Y-108495047D02*
X154636933Y-108590285D01*
X154589314Y-108637904D01*
X154494076Y-108685523D01*
X154446457Y-108685523D01*
X154351219Y-108637904D01*
X154303600Y-108590285D01*
X154255980Y-108495047D01*
X154255980Y-108304571D01*
X154303600Y-108209333D01*
X154351219Y-108161714D01*
X154446457Y-108114095D01*
X154494076Y-108114095D01*
X154589314Y-108161714D01*
X154636933Y-108209333D01*
X154684552Y-108304571D01*
X154684552Y-108495047D01*
X154732171Y-108590285D01*
X154779790Y-108637904D01*
X154875028Y-108685523D01*
X155065504Y-108685523D01*
X155160742Y-108637904D01*
X155208361Y-108590285D01*
X155255980Y-108495047D01*
X155255980Y-108304571D01*
X155208361Y-108209333D01*
X155160742Y-108161714D01*
X155065504Y-108114095D01*
X154875028Y-108114095D01*
X154779790Y-108161714D01*
X154732171Y-108209333D01*
X154684552Y-108304571D01*
%TO.C,D14*%
X68239314Y-136958380D02*
X68239314Y-135958380D01*
X68477409Y-135958380D01*
X68620266Y-136006000D01*
X68715504Y-136101238D01*
X68763123Y-136196476D01*
X68810742Y-136386952D01*
X68810742Y-136529809D01*
X68763123Y-136720285D01*
X68715504Y-136815523D01*
X68620266Y-136910761D01*
X68477409Y-136958380D01*
X68239314Y-136958380D01*
X69763123Y-136958380D02*
X69191695Y-136958380D01*
X69477409Y-136958380D02*
X69477409Y-135958380D01*
X69382171Y-136101238D01*
X69286933Y-136196476D01*
X69191695Y-136244095D01*
X70620266Y-136291714D02*
X70620266Y-136958380D01*
X70382171Y-135910761D02*
X70144076Y-136625047D01*
X70763123Y-136625047D01*
%TO.C,D37*%
X188488914Y-95782180D02*
X188488914Y-94782180D01*
X188727009Y-94782180D01*
X188869866Y-94829800D01*
X188965104Y-94925038D01*
X189012723Y-95020276D01*
X189060342Y-95210752D01*
X189060342Y-95353609D01*
X189012723Y-95544085D01*
X188965104Y-95639323D01*
X188869866Y-95734561D01*
X188727009Y-95782180D01*
X188488914Y-95782180D01*
X189393676Y-94782180D02*
X190012723Y-94782180D01*
X189679390Y-95163133D01*
X189822247Y-95163133D01*
X189917485Y-95210752D01*
X189965104Y-95258371D01*
X190012723Y-95353609D01*
X190012723Y-95591704D01*
X189965104Y-95686942D01*
X189917485Y-95734561D01*
X189822247Y-95782180D01*
X189536533Y-95782180D01*
X189441295Y-95734561D01*
X189393676Y-95686942D01*
X190346057Y-94782180D02*
X191012723Y-94782180D01*
X190584152Y-95782180D01*
%TO.C,D23*%
X152690580Y-132027885D02*
X151690580Y-132027885D01*
X151690580Y-131789790D01*
X151738200Y-131646933D01*
X151833438Y-131551695D01*
X151928676Y-131504076D01*
X152119152Y-131456457D01*
X152262009Y-131456457D01*
X152452485Y-131504076D01*
X152547723Y-131551695D01*
X152642961Y-131646933D01*
X152690580Y-131789790D01*
X152690580Y-132027885D01*
X151785819Y-131075504D02*
X151738200Y-131027885D01*
X151690580Y-130932647D01*
X151690580Y-130694552D01*
X151738200Y-130599314D01*
X151785819Y-130551695D01*
X151881057Y-130504076D01*
X151976295Y-130504076D01*
X152119152Y-130551695D01*
X152690580Y-131123123D01*
X152690580Y-130504076D01*
X151690580Y-130170742D02*
X151690580Y-129551695D01*
X152071533Y-129885028D01*
X152071533Y-129742171D01*
X152119152Y-129646933D01*
X152166771Y-129599314D01*
X152262009Y-129551695D01*
X152500104Y-129551695D01*
X152595342Y-129599314D01*
X152642961Y-129646933D01*
X152690580Y-129742171D01*
X152690580Y-130027885D01*
X152642961Y-130123123D01*
X152595342Y-130170742D01*
%TO.C,D2*%
X80488104Y-135445380D02*
X80488104Y-134445380D01*
X80726200Y-134445380D01*
X80869057Y-134493000D01*
X80964295Y-134588238D01*
X81011914Y-134683476D01*
X81059533Y-134873952D01*
X81059533Y-135016809D01*
X81011914Y-135207285D01*
X80964295Y-135302523D01*
X80869057Y-135397761D01*
X80726200Y-135445380D01*
X80488104Y-135445380D01*
X81440485Y-134540619D02*
X81488104Y-134493000D01*
X81583342Y-134445380D01*
X81821438Y-134445380D01*
X81916676Y-134493000D01*
X81964295Y-134540619D01*
X82011914Y-134635857D01*
X82011914Y-134731095D01*
X81964295Y-134873952D01*
X81392866Y-135445380D01*
X82011914Y-135445380D01*
%TO.C,J3*%
X227900380Y-102761580D02*
X227900380Y-101761580D01*
X228471809Y-102761580D02*
X228043238Y-102190152D01*
X228471809Y-101761580D02*
X227900380Y-102333009D01*
X229281333Y-102713961D02*
X229186095Y-102761580D01*
X228995619Y-102761580D01*
X228900380Y-102713961D01*
X228852761Y-102618723D01*
X228852761Y-102237771D01*
X228900380Y-102142533D01*
X228995619Y-102094914D01*
X229186095Y-102094914D01*
X229281333Y-102142533D01*
X229328952Y-102237771D01*
X229328952Y-102333009D01*
X228852761Y-102428247D01*
X229662285Y-102094914D02*
X229900380Y-102761580D01*
X230138476Y-102094914D02*
X229900380Y-102761580D01*
X229805142Y-102999676D01*
X229757523Y-103047295D01*
X229662285Y-103094914D01*
X230519428Y-102761580D02*
X230519428Y-101761580D01*
X230519428Y-102142533D02*
X230614666Y-102094914D01*
X230805142Y-102094914D01*
X230900380Y-102142533D01*
X230948000Y-102190152D01*
X230995619Y-102285390D01*
X230995619Y-102571104D01*
X230948000Y-102666342D01*
X230900380Y-102713961D01*
X230805142Y-102761580D01*
X230614666Y-102761580D01*
X230519428Y-102713961D01*
X231567047Y-102761580D02*
X231471809Y-102713961D01*
X231424190Y-102666342D01*
X231376571Y-102571104D01*
X231376571Y-102285390D01*
X231424190Y-102190152D01*
X231471809Y-102142533D01*
X231567047Y-102094914D01*
X231709904Y-102094914D01*
X231805142Y-102142533D01*
X231852761Y-102190152D01*
X231900380Y-102285390D01*
X231900380Y-102571104D01*
X231852761Y-102666342D01*
X231805142Y-102713961D01*
X231709904Y-102761580D01*
X231567047Y-102761580D01*
X232757523Y-102761580D02*
X232757523Y-102237771D01*
X232709904Y-102142533D01*
X232614666Y-102094914D01*
X232424190Y-102094914D01*
X232328952Y-102142533D01*
X232757523Y-102713961D02*
X232662285Y-102761580D01*
X232424190Y-102761580D01*
X232328952Y-102713961D01*
X232281333Y-102618723D01*
X232281333Y-102523485D01*
X232328952Y-102428247D01*
X232424190Y-102380628D01*
X232662285Y-102380628D01*
X232757523Y-102333009D01*
X233233714Y-102761580D02*
X233233714Y-102094914D01*
X233233714Y-102285390D02*
X233281333Y-102190152D01*
X233328952Y-102142533D01*
X233424190Y-102094914D01*
X233519428Y-102094914D01*
X234281333Y-102761580D02*
X234281333Y-101761580D01*
X234281333Y-102713961D02*
X234186095Y-102761580D01*
X233995619Y-102761580D01*
X233900380Y-102713961D01*
X233852761Y-102666342D01*
X233805142Y-102571104D01*
X233805142Y-102285390D01*
X233852761Y-102190152D01*
X233900380Y-102142533D01*
X233995619Y-102094914D01*
X234186095Y-102094914D01*
X234281333Y-102142533D01*
X236090857Y-102761580D02*
X235757523Y-102285390D01*
X235519428Y-102761580D02*
X235519428Y-101761580D01*
X235900380Y-101761580D01*
X235995619Y-101809200D01*
X236043238Y-101856819D01*
X236090857Y-101952057D01*
X236090857Y-102094914D01*
X236043238Y-102190152D01*
X235995619Y-102237771D01*
X235900380Y-102285390D01*
X235519428Y-102285390D01*
X236662285Y-102761580D02*
X236567047Y-102713961D01*
X236519428Y-102666342D01*
X236471809Y-102571104D01*
X236471809Y-102285390D01*
X236519428Y-102190152D01*
X236567047Y-102142533D01*
X236662285Y-102094914D01*
X236805142Y-102094914D01*
X236900380Y-102142533D01*
X236948000Y-102190152D01*
X236995619Y-102285390D01*
X236995619Y-102571104D01*
X236948000Y-102666342D01*
X236900380Y-102713961D01*
X236805142Y-102761580D01*
X236662285Y-102761580D01*
X237328952Y-102094914D02*
X237519428Y-102761580D01*
X237709904Y-102285390D01*
X237900380Y-102761580D01*
X238090857Y-102094914D01*
%TO.C,D21*%
X182256180Y-110590285D02*
X181256180Y-110590285D01*
X181256180Y-110352190D01*
X181303800Y-110209333D01*
X181399038Y-110114095D01*
X181494276Y-110066476D01*
X181684752Y-110018857D01*
X181827609Y-110018857D01*
X182018085Y-110066476D01*
X182113323Y-110114095D01*
X182208561Y-110209333D01*
X182256180Y-110352190D01*
X182256180Y-110590285D01*
X181351419Y-109637904D02*
X181303800Y-109590285D01*
X181256180Y-109495047D01*
X181256180Y-109256952D01*
X181303800Y-109161714D01*
X181351419Y-109114095D01*
X181446657Y-109066476D01*
X181541895Y-109066476D01*
X181684752Y-109114095D01*
X182256180Y-109685523D01*
X182256180Y-109066476D01*
X182256180Y-108114095D02*
X182256180Y-108685523D01*
X182256180Y-108399809D02*
X181256180Y-108399809D01*
X181399038Y-108495047D01*
X181494276Y-108590285D01*
X181541895Y-108685523D01*
%TO.C,U1*%
X237417780Y-131011104D02*
X238227304Y-131011104D01*
X238322542Y-130963485D01*
X238370161Y-130915866D01*
X238417780Y-130820628D01*
X238417780Y-130630152D01*
X238370161Y-130534914D01*
X238322542Y-130487295D01*
X238227304Y-130439676D01*
X237417780Y-130439676D01*
X238417780Y-129439676D02*
X238417780Y-130011104D01*
X238417780Y-129725390D02*
X237417780Y-129725390D01*
X237560638Y-129820628D01*
X237655876Y-129915866D01*
X237703495Y-130011104D01*
X247972380Y-132957857D02*
X247972380Y-132291190D01*
X248972380Y-132719761D01*
X248305714Y-131481666D02*
X248972380Y-131481666D01*
X247924761Y-131719761D02*
X248639047Y-131957857D01*
X248639047Y-131338809D01*
X248972380Y-130481666D02*
X248972380Y-130957857D01*
X247972380Y-130957857D01*
X248924761Y-130195952D02*
X248972380Y-130053095D01*
X248972380Y-129815000D01*
X248924761Y-129719761D01*
X248877142Y-129672142D01*
X248781904Y-129624523D01*
X248686666Y-129624523D01*
X248591428Y-129672142D01*
X248543809Y-129719761D01*
X248496190Y-129815000D01*
X248448571Y-130005476D01*
X248400952Y-130100714D01*
X248353333Y-130148333D01*
X248258095Y-130195952D01*
X248162857Y-130195952D01*
X248067619Y-130148333D01*
X248020000Y-130100714D01*
X247972380Y-130005476D01*
X247972380Y-129767380D01*
X248020000Y-129624523D01*
X247972380Y-129291190D02*
X247972380Y-128672142D01*
X248353333Y-129005476D01*
X248353333Y-128862619D01*
X248400952Y-128767380D01*
X248448571Y-128719761D01*
X248543809Y-128672142D01*
X248781904Y-128672142D01*
X248877142Y-128719761D01*
X248924761Y-128767380D01*
X248972380Y-128862619D01*
X248972380Y-129148333D01*
X248924761Y-129243571D01*
X248877142Y-129291190D01*
X248067619Y-128291190D02*
X248020000Y-128243571D01*
X247972380Y-128148333D01*
X247972380Y-127910238D01*
X248020000Y-127815000D01*
X248067619Y-127767380D01*
X248162857Y-127719761D01*
X248258095Y-127719761D01*
X248400952Y-127767380D01*
X248972380Y-128338809D01*
X248972380Y-127719761D01*
%TO.C,D11*%
X68540914Y-129904380D02*
X68540914Y-128904380D01*
X68779009Y-128904380D01*
X68921866Y-128952000D01*
X69017104Y-129047238D01*
X69064723Y-129142476D01*
X69112342Y-129332952D01*
X69112342Y-129475809D01*
X69064723Y-129666285D01*
X69017104Y-129761523D01*
X68921866Y-129856761D01*
X68779009Y-129904380D01*
X68540914Y-129904380D01*
X70064723Y-129904380D02*
X69493295Y-129904380D01*
X69779009Y-129904380D02*
X69779009Y-128904380D01*
X69683771Y-129047238D01*
X69588533Y-129142476D01*
X69493295Y-129190095D01*
X71017104Y-129904380D02*
X70445676Y-129904380D01*
X70731390Y-129904380D02*
X70731390Y-128904380D01*
X70636152Y-129047238D01*
X70540914Y-129142476D01*
X70445676Y-129190095D01*
%TO.C,D48*%
X206970380Y-132459685D02*
X205970380Y-132459685D01*
X205970380Y-132221590D01*
X206018000Y-132078733D01*
X206113238Y-131983495D01*
X206208476Y-131935876D01*
X206398952Y-131888257D01*
X206541809Y-131888257D01*
X206732285Y-131935876D01*
X206827523Y-131983495D01*
X206922761Y-132078733D01*
X206970380Y-132221590D01*
X206970380Y-132459685D01*
X206303714Y-131031114D02*
X206970380Y-131031114D01*
X205922761Y-131269209D02*
X206637047Y-131507304D01*
X206637047Y-130888257D01*
X206398952Y-130364447D02*
X206351333Y-130459685D01*
X206303714Y-130507304D01*
X206208476Y-130554923D01*
X206160857Y-130554923D01*
X206065619Y-130507304D01*
X206018000Y-130459685D01*
X205970380Y-130364447D01*
X205970380Y-130173971D01*
X206018000Y-130078733D01*
X206065619Y-130031114D01*
X206160857Y-129983495D01*
X206208476Y-129983495D01*
X206303714Y-130031114D01*
X206351333Y-130078733D01*
X206398952Y-130173971D01*
X206398952Y-130364447D01*
X206446571Y-130459685D01*
X206494190Y-130507304D01*
X206589428Y-130554923D01*
X206779904Y-130554923D01*
X206875142Y-130507304D01*
X206922761Y-130459685D01*
X206970380Y-130364447D01*
X206970380Y-130173971D01*
X206922761Y-130078733D01*
X206875142Y-130031114D01*
X206779904Y-129983495D01*
X206589428Y-129983495D01*
X206494190Y-130031114D01*
X206446571Y-130078733D01*
X206398952Y-130173971D01*
%TO.C,D54*%
X98344314Y-137133380D02*
X98344314Y-136133380D01*
X98582409Y-136133380D01*
X98725266Y-136181000D01*
X98820504Y-136276238D01*
X98868123Y-136371476D01*
X98915742Y-136561952D01*
X98915742Y-136704809D01*
X98868123Y-136895285D01*
X98820504Y-136990523D01*
X98725266Y-137085761D01*
X98582409Y-137133380D01*
X98344314Y-137133380D01*
X99820504Y-136133380D02*
X99344314Y-136133380D01*
X99296695Y-136609571D01*
X99344314Y-136561952D01*
X99439552Y-136514333D01*
X99677647Y-136514333D01*
X99772885Y-136561952D01*
X99820504Y-136609571D01*
X99868123Y-136704809D01*
X99868123Y-136942904D01*
X99820504Y-137038142D01*
X99772885Y-137085761D01*
X99677647Y-137133380D01*
X99439552Y-137133380D01*
X99344314Y-137085761D01*
X99296695Y-137038142D01*
X100725266Y-136466714D02*
X100725266Y-137133380D01*
X100487171Y-136085761D02*
X100249076Y-136800047D01*
X100868123Y-136800047D01*
%TO.C,D3*%
X98642704Y-130402380D02*
X98642704Y-129402380D01*
X98880800Y-129402380D01*
X99023657Y-129450000D01*
X99118895Y-129545238D01*
X99166514Y-129640476D01*
X99214133Y-129830952D01*
X99214133Y-129973809D01*
X99166514Y-130164285D01*
X99118895Y-130259523D01*
X99023657Y-130354761D01*
X98880800Y-130402380D01*
X98642704Y-130402380D01*
X99547466Y-129402380D02*
X100166514Y-129402380D01*
X99833180Y-129783333D01*
X99976038Y-129783333D01*
X100071276Y-129830952D01*
X100118895Y-129878571D01*
X100166514Y-129973809D01*
X100166514Y-130211904D01*
X100118895Y-130307142D01*
X100071276Y-130354761D01*
X99976038Y-130402380D01*
X99690323Y-130402380D01*
X99595085Y-130354761D01*
X99547466Y-130307142D01*
%TO.C,D24*%
X167803580Y-110514085D02*
X166803580Y-110514085D01*
X166803580Y-110275990D01*
X166851200Y-110133133D01*
X166946438Y-110037895D01*
X167041676Y-109990276D01*
X167232152Y-109942657D01*
X167375009Y-109942657D01*
X167565485Y-109990276D01*
X167660723Y-110037895D01*
X167755961Y-110133133D01*
X167803580Y-110275990D01*
X167803580Y-110514085D01*
X166898819Y-109561704D02*
X166851200Y-109514085D01*
X166803580Y-109418847D01*
X166803580Y-109180752D01*
X166851200Y-109085514D01*
X166898819Y-109037895D01*
X166994057Y-108990276D01*
X167089295Y-108990276D01*
X167232152Y-109037895D01*
X167803580Y-109609323D01*
X167803580Y-108990276D01*
X167136914Y-108133133D02*
X167803580Y-108133133D01*
X166755961Y-108371228D02*
X167470247Y-108609323D01*
X167470247Y-107990276D01*
%TO.C,D13*%
X68518714Y-133122980D02*
X68518714Y-132122980D01*
X68756809Y-132122980D01*
X68899666Y-132170600D01*
X68994904Y-132265838D01*
X69042523Y-132361076D01*
X69090142Y-132551552D01*
X69090142Y-132694409D01*
X69042523Y-132884885D01*
X68994904Y-132980123D01*
X68899666Y-133075361D01*
X68756809Y-133122980D01*
X68518714Y-133122980D01*
X70042523Y-133122980D02*
X69471095Y-133122980D01*
X69756809Y-133122980D02*
X69756809Y-132122980D01*
X69661571Y-132265838D01*
X69566333Y-132361076D01*
X69471095Y-132408695D01*
X70375857Y-132122980D02*
X70994904Y-132122980D01*
X70661571Y-132503933D01*
X70804428Y-132503933D01*
X70899666Y-132551552D01*
X70947285Y-132599171D01*
X70994904Y-132694409D01*
X70994904Y-132932504D01*
X70947285Y-133027742D01*
X70899666Y-133075361D01*
X70804428Y-133122980D01*
X70518714Y-133122980D01*
X70423476Y-133075361D01*
X70375857Y-133027742D01*
%TO.C,U3*%
X171656780Y-130955504D02*
X172466304Y-130955504D01*
X172561542Y-130907885D01*
X172609161Y-130860266D01*
X172656780Y-130765028D01*
X172656780Y-130574552D01*
X172609161Y-130479314D01*
X172561542Y-130431695D01*
X172466304Y-130384076D01*
X171656780Y-130384076D01*
X171656780Y-130003123D02*
X171656780Y-129384076D01*
X172037733Y-129717409D01*
X172037733Y-129574552D01*
X172085352Y-129479314D01*
X172132971Y-129431695D01*
X172228209Y-129384076D01*
X172466304Y-129384076D01*
X172561542Y-129431695D01*
X172609161Y-129479314D01*
X172656780Y-129574552D01*
X172656780Y-129860266D01*
X172609161Y-129955504D01*
X172561542Y-130003123D01*
X191556780Y-132836457D02*
X191556780Y-132169790D01*
X192556780Y-132598361D01*
X191890114Y-131360266D02*
X192556780Y-131360266D01*
X191509161Y-131598361D02*
X192223447Y-131836457D01*
X192223447Y-131217409D01*
X192556780Y-130360266D02*
X192556780Y-130836457D01*
X191556780Y-130836457D01*
X192509161Y-130074552D02*
X192556780Y-129931695D01*
X192556780Y-129693600D01*
X192509161Y-129598361D01*
X192461542Y-129550742D01*
X192366304Y-129503123D01*
X192271066Y-129503123D01*
X192175828Y-129550742D01*
X192128209Y-129598361D01*
X192080590Y-129693600D01*
X192032971Y-129884076D01*
X191985352Y-129979314D01*
X191937733Y-130026933D01*
X191842495Y-130074552D01*
X191747257Y-130074552D01*
X191652019Y-130026933D01*
X191604400Y-129979314D01*
X191556780Y-129884076D01*
X191556780Y-129645980D01*
X191604400Y-129503123D01*
X191556780Y-129169790D02*
X191556780Y-128550742D01*
X191937733Y-128884076D01*
X191937733Y-128741219D01*
X191985352Y-128645980D01*
X192032971Y-128598361D01*
X192128209Y-128550742D01*
X192366304Y-128550742D01*
X192461542Y-128598361D01*
X192509161Y-128645980D01*
X192556780Y-128741219D01*
X192556780Y-129026933D01*
X192509161Y-129122171D01*
X192461542Y-129169790D01*
X191652019Y-128169790D02*
X191604400Y-128122171D01*
X191556780Y-128026933D01*
X191556780Y-127788838D01*
X191604400Y-127693600D01*
X191652019Y-127645980D01*
X191747257Y-127598361D01*
X191842495Y-127598361D01*
X191985352Y-127645980D01*
X192556780Y-128217409D01*
X192556780Y-127598361D01*
%TO.C,D50*%
X199553580Y-132231085D02*
X198553580Y-132231085D01*
X198553580Y-131992990D01*
X198601200Y-131850133D01*
X198696438Y-131754895D01*
X198791676Y-131707276D01*
X198982152Y-131659657D01*
X199125009Y-131659657D01*
X199315485Y-131707276D01*
X199410723Y-131754895D01*
X199505961Y-131850133D01*
X199553580Y-131992990D01*
X199553580Y-132231085D01*
X198553580Y-130754895D02*
X198553580Y-131231085D01*
X199029771Y-131278704D01*
X198982152Y-131231085D01*
X198934533Y-131135847D01*
X198934533Y-130897752D01*
X198982152Y-130802514D01*
X199029771Y-130754895D01*
X199125009Y-130707276D01*
X199363104Y-130707276D01*
X199458342Y-130754895D01*
X199505961Y-130802514D01*
X199553580Y-130897752D01*
X199553580Y-131135847D01*
X199505961Y-131231085D01*
X199458342Y-131278704D01*
X198553580Y-130088228D02*
X198553580Y-129992990D01*
X198601200Y-129897752D01*
X198648819Y-129850133D01*
X198744057Y-129802514D01*
X198934533Y-129754895D01*
X199172628Y-129754895D01*
X199363104Y-129802514D01*
X199458342Y-129850133D01*
X199505961Y-129897752D01*
X199553580Y-129992990D01*
X199553580Y-130088228D01*
X199505961Y-130183466D01*
X199458342Y-130231085D01*
X199363104Y-130278704D01*
X199172628Y-130326323D01*
X198934533Y-130326323D01*
X198744057Y-130278704D01*
X198648819Y-130231085D01*
X198601200Y-130183466D01*
X198553580Y-130088228D01*
%TO.C,D49*%
X142098780Y-110615685D02*
X141098780Y-110615685D01*
X141098780Y-110377590D01*
X141146400Y-110234733D01*
X141241638Y-110139495D01*
X141336876Y-110091876D01*
X141527352Y-110044257D01*
X141670209Y-110044257D01*
X141860685Y-110091876D01*
X141955923Y-110139495D01*
X142051161Y-110234733D01*
X142098780Y-110377590D01*
X142098780Y-110615685D01*
X141432114Y-109187114D02*
X142098780Y-109187114D01*
X141051161Y-109425209D02*
X141765447Y-109663304D01*
X141765447Y-109044257D01*
X142098780Y-108615685D02*
X142098780Y-108425209D01*
X142051161Y-108329971D01*
X142003542Y-108282352D01*
X141860685Y-108187114D01*
X141670209Y-108139495D01*
X141289257Y-108139495D01*
X141194019Y-108187114D01*
X141146400Y-108234733D01*
X141098780Y-108329971D01*
X141098780Y-108520447D01*
X141146400Y-108615685D01*
X141194019Y-108663304D01*
X141289257Y-108710923D01*
X141527352Y-108710923D01*
X141622590Y-108663304D01*
X141670209Y-108615685D01*
X141717828Y-108520447D01*
X141717828Y-108329971D01*
X141670209Y-108234733D01*
X141622590Y-108187114D01*
X141527352Y-108139495D01*
%TO.C,D53*%
X81993114Y-118859180D02*
X81993114Y-117859180D01*
X82231209Y-117859180D01*
X82374066Y-117906800D01*
X82469304Y-118002038D01*
X82516923Y-118097276D01*
X82564542Y-118287752D01*
X82564542Y-118430609D01*
X82516923Y-118621085D01*
X82469304Y-118716323D01*
X82374066Y-118811561D01*
X82231209Y-118859180D01*
X81993114Y-118859180D01*
X83469304Y-117859180D02*
X82993114Y-117859180D01*
X82945495Y-118335371D01*
X82993114Y-118287752D01*
X83088352Y-118240133D01*
X83326447Y-118240133D01*
X83421685Y-118287752D01*
X83469304Y-118335371D01*
X83516923Y-118430609D01*
X83516923Y-118668704D01*
X83469304Y-118763942D01*
X83421685Y-118811561D01*
X83326447Y-118859180D01*
X83088352Y-118859180D01*
X82993114Y-118811561D01*
X82945495Y-118763942D01*
X83850257Y-117859180D02*
X84469304Y-117859180D01*
X84135971Y-118240133D01*
X84278828Y-118240133D01*
X84374066Y-118287752D01*
X84421685Y-118335371D01*
X84469304Y-118430609D01*
X84469304Y-118668704D01*
X84421685Y-118763942D01*
X84374066Y-118811561D01*
X84278828Y-118859180D01*
X83993114Y-118859180D01*
X83897876Y-118811561D01*
X83850257Y-118763942D01*
%TO.C,D4*%
X82621704Y-108775380D02*
X82621704Y-107775380D01*
X82859800Y-107775380D01*
X83002657Y-107823000D01*
X83097895Y-107918238D01*
X83145514Y-108013476D01*
X83193133Y-108203952D01*
X83193133Y-108346809D01*
X83145514Y-108537285D01*
X83097895Y-108632523D01*
X83002657Y-108727761D01*
X82859800Y-108775380D01*
X82621704Y-108775380D01*
X84050276Y-108108714D02*
X84050276Y-108775380D01*
X83812180Y-107727761D02*
X83574085Y-108442047D01*
X84193133Y-108442047D01*
%TO.C,U2*%
X132208780Y-131143704D02*
X133018304Y-131143704D01*
X133113542Y-131096085D01*
X133161161Y-131048466D01*
X133208780Y-130953228D01*
X133208780Y-130762752D01*
X133161161Y-130667514D01*
X133113542Y-130619895D01*
X133018304Y-130572276D01*
X132208780Y-130572276D01*
X132304019Y-130143704D02*
X132256400Y-130096085D01*
X132208780Y-130000847D01*
X132208780Y-129762752D01*
X132256400Y-129667514D01*
X132304019Y-129619895D01*
X132399257Y-129572276D01*
X132494495Y-129572276D01*
X132637352Y-129619895D01*
X133208780Y-130191323D01*
X133208780Y-129572276D01*
X142179180Y-132988857D02*
X142179180Y-132322190D01*
X143179180Y-132750761D01*
X142512514Y-131512666D02*
X143179180Y-131512666D01*
X142131561Y-131750761D02*
X142845847Y-131988857D01*
X142845847Y-131369809D01*
X143179180Y-130512666D02*
X143179180Y-130988857D01*
X142179180Y-130988857D01*
X143131561Y-130226952D02*
X143179180Y-130084095D01*
X143179180Y-129846000D01*
X143131561Y-129750761D01*
X143083942Y-129703142D01*
X142988704Y-129655523D01*
X142893466Y-129655523D01*
X142798228Y-129703142D01*
X142750609Y-129750761D01*
X142702990Y-129846000D01*
X142655371Y-130036476D01*
X142607752Y-130131714D01*
X142560133Y-130179333D01*
X142464895Y-130226952D01*
X142369657Y-130226952D01*
X142274419Y-130179333D01*
X142226800Y-130131714D01*
X142179180Y-130036476D01*
X142179180Y-129798380D01*
X142226800Y-129655523D01*
X142179180Y-129322190D02*
X142179180Y-128703142D01*
X142560133Y-129036476D01*
X142560133Y-128893619D01*
X142607752Y-128798380D01*
X142655371Y-128750761D01*
X142750609Y-128703142D01*
X142988704Y-128703142D01*
X143083942Y-128750761D01*
X143131561Y-128798380D01*
X143179180Y-128893619D01*
X143179180Y-129179333D01*
X143131561Y-129274571D01*
X143083942Y-129322190D01*
X142274419Y-128322190D02*
X142226800Y-128274571D01*
X142179180Y-128179333D01*
X142179180Y-127941238D01*
X142226800Y-127846000D01*
X142274419Y-127798380D01*
X142369657Y-127750761D01*
X142464895Y-127750761D01*
X142607752Y-127798380D01*
X143179180Y-128369809D01*
X143179180Y-127750761D01*
%TO.C,D10*%
X68641714Y-122607180D02*
X68641714Y-121607180D01*
X68879809Y-121607180D01*
X69022666Y-121654800D01*
X69117904Y-121750038D01*
X69165523Y-121845276D01*
X69213142Y-122035752D01*
X69213142Y-122178609D01*
X69165523Y-122369085D01*
X69117904Y-122464323D01*
X69022666Y-122559561D01*
X68879809Y-122607180D01*
X68641714Y-122607180D01*
X70165523Y-122607180D02*
X69594095Y-122607180D01*
X69879809Y-122607180D02*
X69879809Y-121607180D01*
X69784571Y-121750038D01*
X69689333Y-121845276D01*
X69594095Y-121892895D01*
X70784571Y-121607180D02*
X70879809Y-121607180D01*
X70975047Y-121654800D01*
X71022666Y-121702419D01*
X71070285Y-121797657D01*
X71117904Y-121988133D01*
X71117904Y-122226228D01*
X71070285Y-122416704D01*
X71022666Y-122511942D01*
X70975047Y-122559561D01*
X70879809Y-122607180D01*
X70784571Y-122607180D01*
X70689333Y-122559561D01*
X70641714Y-122511942D01*
X70594095Y-122416704D01*
X70546476Y-122226228D01*
X70546476Y-121988133D01*
X70594095Y-121797657D01*
X70641714Y-121702419D01*
X70689333Y-121654800D01*
X70784571Y-121607180D01*
%TO.C,D42*%
X79630914Y-128968380D02*
X79630914Y-127968380D01*
X79869009Y-127968380D01*
X80011866Y-128016000D01*
X80107104Y-128111238D01*
X80154723Y-128206476D01*
X80202342Y-128396952D01*
X80202342Y-128539809D01*
X80154723Y-128730285D01*
X80107104Y-128825523D01*
X80011866Y-128920761D01*
X79869009Y-128968380D01*
X79630914Y-128968380D01*
X81059485Y-128301714D02*
X81059485Y-128968380D01*
X80821390Y-127920761D02*
X80583295Y-128635047D01*
X81202342Y-128635047D01*
X81535676Y-128063619D02*
X81583295Y-128016000D01*
X81678533Y-127968380D01*
X81916628Y-127968380D01*
X82011866Y-128016000D01*
X82059485Y-128063619D01*
X82107104Y-128158857D01*
X82107104Y-128254095D01*
X82059485Y-128396952D01*
X81488057Y-128968380D01*
X82107104Y-128968380D01*
%TO.C,D26*%
X162266380Y-132485085D02*
X161266380Y-132485085D01*
X161266380Y-132246990D01*
X161314000Y-132104133D01*
X161409238Y-132008895D01*
X161504476Y-131961276D01*
X161694952Y-131913657D01*
X161837809Y-131913657D01*
X162028285Y-131961276D01*
X162123523Y-132008895D01*
X162218761Y-132104133D01*
X162266380Y-132246990D01*
X162266380Y-132485085D01*
X161361619Y-131532704D02*
X161314000Y-131485085D01*
X161266380Y-131389847D01*
X161266380Y-131151752D01*
X161314000Y-131056514D01*
X161361619Y-131008895D01*
X161456857Y-130961276D01*
X161552095Y-130961276D01*
X161694952Y-131008895D01*
X162266380Y-131580323D01*
X162266380Y-130961276D01*
X161266380Y-130104133D02*
X161266380Y-130294609D01*
X161314000Y-130389847D01*
X161361619Y-130437466D01*
X161504476Y-130532704D01*
X161694952Y-130580323D01*
X162075904Y-130580323D01*
X162171142Y-130532704D01*
X162218761Y-130485085D01*
X162266380Y-130389847D01*
X162266380Y-130199371D01*
X162218761Y-130104133D01*
X162171142Y-130056514D01*
X162075904Y-130008895D01*
X161837809Y-130008895D01*
X161742571Y-130056514D01*
X161694952Y-130104133D01*
X161647333Y-130199371D01*
X161647333Y-130389847D01*
X161694952Y-130485085D01*
X161742571Y-130532704D01*
X161837809Y-130580323D01*
%TO.C,D33*%
X164552380Y-110285485D02*
X163552380Y-110285485D01*
X163552380Y-110047390D01*
X163600000Y-109904533D01*
X163695238Y-109809295D01*
X163790476Y-109761676D01*
X163980952Y-109714057D01*
X164123809Y-109714057D01*
X164314285Y-109761676D01*
X164409523Y-109809295D01*
X164504761Y-109904533D01*
X164552380Y-110047390D01*
X164552380Y-110285485D01*
X163552380Y-109380723D02*
X163552380Y-108761676D01*
X163933333Y-109095009D01*
X163933333Y-108952152D01*
X163980952Y-108856914D01*
X164028571Y-108809295D01*
X164123809Y-108761676D01*
X164361904Y-108761676D01*
X164457142Y-108809295D01*
X164504761Y-108856914D01*
X164552380Y-108952152D01*
X164552380Y-109237866D01*
X164504761Y-109333104D01*
X164457142Y-109380723D01*
X163552380Y-108428342D02*
X163552380Y-107809295D01*
X163933333Y-108142628D01*
X163933333Y-107999771D01*
X163980952Y-107904533D01*
X164028571Y-107856914D01*
X164123809Y-107809295D01*
X164361904Y-107809295D01*
X164457142Y-107856914D01*
X164504761Y-107904533D01*
X164552380Y-107999771D01*
X164552380Y-108285485D01*
X164504761Y-108380723D01*
X164457142Y-108428342D01*
%TO.C,U5*%
X215190580Y-131600904D02*
X216000104Y-131600904D01*
X216095342Y-131553285D01*
X216142961Y-131505666D01*
X216190580Y-131410428D01*
X216190580Y-131219952D01*
X216142961Y-131124714D01*
X216095342Y-131077095D01*
X216000104Y-131029476D01*
X215190580Y-131029476D01*
X215190580Y-130077095D02*
X215190580Y-130553285D01*
X215666771Y-130600904D01*
X215619152Y-130553285D01*
X215571533Y-130458047D01*
X215571533Y-130219952D01*
X215619152Y-130124714D01*
X215666771Y-130077095D01*
X215762009Y-130029476D01*
X216000104Y-130029476D01*
X216095342Y-130077095D01*
X216142961Y-130124714D01*
X216190580Y-130219952D01*
X216190580Y-130458047D01*
X216142961Y-130553285D01*
X216095342Y-130600904D01*
X227548580Y-133369857D02*
X227548580Y-132703190D01*
X228548580Y-133131761D01*
X227881914Y-131893666D02*
X228548580Y-131893666D01*
X227500961Y-132131761D02*
X228215247Y-132369857D01*
X228215247Y-131750809D01*
X228548580Y-130893666D02*
X228548580Y-131369857D01*
X227548580Y-131369857D01*
X228500961Y-130607952D02*
X228548580Y-130465095D01*
X228548580Y-130227000D01*
X228500961Y-130131761D01*
X228453342Y-130084142D01*
X228358104Y-130036523D01*
X228262866Y-130036523D01*
X228167628Y-130084142D01*
X228120009Y-130131761D01*
X228072390Y-130227000D01*
X228024771Y-130417476D01*
X227977152Y-130512714D01*
X227929533Y-130560333D01*
X227834295Y-130607952D01*
X227739057Y-130607952D01*
X227643819Y-130560333D01*
X227596200Y-130512714D01*
X227548580Y-130417476D01*
X227548580Y-130179380D01*
X227596200Y-130036523D01*
X227548580Y-129703190D02*
X227548580Y-129084142D01*
X227929533Y-129417476D01*
X227929533Y-129274619D01*
X227977152Y-129179380D01*
X228024771Y-129131761D01*
X228120009Y-129084142D01*
X228358104Y-129084142D01*
X228453342Y-129131761D01*
X228500961Y-129179380D01*
X228548580Y-129274619D01*
X228548580Y-129560333D01*
X228500961Y-129655571D01*
X228453342Y-129703190D01*
X227643819Y-128703190D02*
X227596200Y-128655571D01*
X227548580Y-128560333D01*
X227548580Y-128322238D01*
X227596200Y-128227000D01*
X227643819Y-128179380D01*
X227739057Y-128131761D01*
X227834295Y-128131761D01*
X227977152Y-128179380D01*
X228548580Y-128750809D01*
X228548580Y-128131761D01*
%TO.C,D34*%
X132065780Y-110412485D02*
X131065780Y-110412485D01*
X131065780Y-110174390D01*
X131113400Y-110031533D01*
X131208638Y-109936295D01*
X131303876Y-109888676D01*
X131494352Y-109841057D01*
X131637209Y-109841057D01*
X131827685Y-109888676D01*
X131922923Y-109936295D01*
X132018161Y-110031533D01*
X132065780Y-110174390D01*
X132065780Y-110412485D01*
X131065780Y-109507723D02*
X131065780Y-108888676D01*
X131446733Y-109222009D01*
X131446733Y-109079152D01*
X131494352Y-108983914D01*
X131541971Y-108936295D01*
X131637209Y-108888676D01*
X131875304Y-108888676D01*
X131970542Y-108936295D01*
X132018161Y-108983914D01*
X132065780Y-109079152D01*
X132065780Y-109364866D01*
X132018161Y-109460104D01*
X131970542Y-109507723D01*
X131399114Y-108031533D02*
X132065780Y-108031533D01*
X131018161Y-108269628D02*
X131732447Y-108507723D01*
X131732447Y-107888676D01*
D11*
%TO.C,U4*%
X198095000Y-98415000D02*
X215995000Y-98415000D01*
X198095000Y-93915000D02*
X198095000Y-95165000D01*
X198095000Y-97165000D02*
X198095000Y-98415000D01*
X215995000Y-93915000D02*
X198095000Y-93915000D01*
X215995000Y-98415000D02*
X215995000Y-93915000D01*
X198095000Y-97165000D02*
G75*
G03*
X198095000Y-95165000I0J1000000D01*
G01*
%TO.C,D28*%
X104640800Y-114427600D02*
X104640800Y-114757600D01*
X103620800Y-114757600D02*
X103620800Y-111817600D01*
X99200800Y-111817600D02*
X99200800Y-112147600D01*
X103860800Y-114757600D02*
X103860800Y-111817600D01*
X104640800Y-114757600D02*
X99200800Y-114757600D01*
X99200800Y-114757600D02*
X99200800Y-114427600D01*
X104640800Y-111817600D02*
X99200800Y-111817600D01*
X104640800Y-112147600D02*
X104640800Y-111817600D01*
X103740800Y-114757600D02*
X103740800Y-111817600D01*
%TO.C,D47*%
X143122800Y-111664200D02*
X143452800Y-111664200D01*
X146062800Y-107124200D02*
X143122800Y-107124200D01*
X145732800Y-106224200D02*
X146062800Y-106224200D01*
X143122800Y-106224200D02*
X143122800Y-111664200D01*
X146062800Y-107244200D02*
X143122800Y-107244200D01*
X143452800Y-106224200D02*
X143122800Y-106224200D01*
X146062800Y-111664200D02*
X145732800Y-111664200D01*
X146062800Y-106224200D02*
X146062800Y-111664200D01*
X146062800Y-107004200D02*
X143122800Y-107004200D01*
%TO.C,D22*%
X169208600Y-106198800D02*
X169208600Y-111638800D01*
X172148600Y-106978800D02*
X169208600Y-106978800D01*
X172148600Y-111638800D02*
X171818600Y-111638800D01*
X169538600Y-106198800D02*
X169208600Y-106198800D01*
X172148600Y-107218800D02*
X169208600Y-107218800D01*
X172148600Y-106198800D02*
X172148600Y-111638800D01*
X171818600Y-106198800D02*
X172148600Y-106198800D01*
X169208600Y-111638800D02*
X169538600Y-111638800D01*
X172148600Y-107098800D02*
X169208600Y-107098800D01*
%TO.C,D1*%
X107180800Y-105645200D02*
X107180800Y-105315200D01*
X106280800Y-108255200D02*
X106280800Y-105315200D01*
X101740800Y-105315200D02*
X101740800Y-105645200D01*
X107180800Y-108255200D02*
X101740800Y-108255200D01*
X106400800Y-108255200D02*
X106400800Y-105315200D01*
X107180800Y-105315200D02*
X101740800Y-105315200D01*
X107180800Y-107925200D02*
X107180800Y-108255200D01*
X106160800Y-108255200D02*
X106160800Y-105315200D01*
X101740800Y-108255200D02*
X101740800Y-107925200D01*
%TO.C,D44*%
X83166200Y-123255000D02*
X83166200Y-120315000D01*
X83946200Y-123255000D02*
X78506200Y-123255000D01*
X82926200Y-123255000D02*
X82926200Y-120315000D01*
X78506200Y-120315000D02*
X78506200Y-120645000D01*
X78506200Y-123255000D02*
X78506200Y-122925000D01*
X83946200Y-122925000D02*
X83946200Y-123255000D01*
X83046200Y-123255000D02*
X83046200Y-120315000D01*
X83946200Y-120315000D02*
X78506200Y-120315000D01*
X83946200Y-120645000D02*
X83946200Y-120315000D01*
%TO.C,D12*%
X66705000Y-126655000D02*
X66705000Y-126985000D01*
X67605000Y-124045000D02*
X67605000Y-126985000D01*
X66705000Y-124045000D02*
X72145000Y-124045000D01*
X72145000Y-124045000D02*
X72145000Y-124375000D01*
X72145000Y-126985000D02*
X72145000Y-126655000D01*
X66705000Y-124375000D02*
X66705000Y-124045000D01*
X67485000Y-124045000D02*
X67485000Y-126985000D01*
X67725000Y-124045000D02*
X67725000Y-126985000D01*
X66705000Y-126985000D02*
X72145000Y-126985000D01*
%TO.C,D25*%
X160134400Y-128986600D02*
X157194400Y-128986600D01*
X159804400Y-127966600D02*
X160134400Y-127966600D01*
X157194400Y-133406600D02*
X157524400Y-133406600D01*
X157524400Y-127966600D02*
X157194400Y-127966600D01*
X160134400Y-127966600D02*
X160134400Y-133406600D01*
X160134400Y-128746600D02*
X157194400Y-128746600D01*
X160134400Y-133406600D02*
X159804400Y-133406600D01*
X160134400Y-128866600D02*
X157194400Y-128866600D01*
X157194400Y-127966600D02*
X157194400Y-133406600D01*
%TO.C,D41*%
X194680000Y-103845000D02*
X195010000Y-103845000D01*
X197290000Y-98405000D02*
X197620000Y-98405000D01*
X197620000Y-99425000D02*
X194680000Y-99425000D01*
X195010000Y-98405000D02*
X194680000Y-98405000D01*
X197620000Y-103845000D02*
X197290000Y-103845000D01*
X197620000Y-99305000D02*
X194680000Y-99305000D01*
X194680000Y-98405000D02*
X194680000Y-103845000D01*
X197620000Y-98405000D02*
X197620000Y-103845000D01*
X197620000Y-99185000D02*
X194680000Y-99185000D01*
%TO.C,D52*%
X139509600Y-106249600D02*
X139509600Y-111689600D01*
X136569600Y-111689600D02*
X136899600Y-111689600D01*
X136899600Y-106249600D02*
X136569600Y-106249600D01*
X136569600Y-106249600D02*
X136569600Y-111689600D01*
X139179600Y-106249600D02*
X139509600Y-106249600D01*
X139509600Y-107269600D02*
X136569600Y-107269600D01*
X139509600Y-107029600D02*
X136569600Y-107029600D01*
X139509600Y-111689600D02*
X139179600Y-111689600D01*
X139509600Y-107149600D02*
X136569600Y-107149600D01*
%TO.C,D6*%
X104640800Y-118472400D02*
X99200800Y-118472400D01*
X99200800Y-121412400D02*
X99200800Y-121082400D01*
X104640800Y-121412400D02*
X99200800Y-121412400D01*
X103860800Y-121412400D02*
X103860800Y-118472400D01*
X103740800Y-121412400D02*
X103740800Y-118472400D01*
X104640800Y-118802400D02*
X104640800Y-118472400D01*
X103620800Y-121412400D02*
X103620800Y-118472400D01*
X99200800Y-118472400D02*
X99200800Y-118802400D01*
X104640800Y-121082400D02*
X104640800Y-121412400D01*
%TO.C,D8*%
X67750000Y-113680000D02*
X67750000Y-116620000D01*
X67630000Y-113680000D02*
X67630000Y-116620000D01*
X66730000Y-114010000D02*
X66730000Y-113680000D01*
X72170000Y-116620000D02*
X72170000Y-116290000D01*
X67510000Y-113680000D02*
X67510000Y-116620000D01*
X66730000Y-116620000D02*
X72170000Y-116620000D01*
X66730000Y-113680000D02*
X72170000Y-113680000D01*
X66730000Y-116290000D02*
X66730000Y-116620000D01*
X72170000Y-113680000D02*
X72170000Y-114010000D01*
%TO.C,D31*%
X85553800Y-113349000D02*
X85553800Y-110409000D01*
X85313800Y-113349000D02*
X85313800Y-110409000D01*
X86333800Y-113349000D02*
X80893800Y-113349000D01*
X80893800Y-113349000D02*
X80893800Y-113019000D01*
X86333800Y-110409000D02*
X80893800Y-110409000D01*
X86333800Y-110739000D02*
X86333800Y-110409000D01*
X85433800Y-113349000D02*
X85433800Y-110409000D01*
X80893800Y-110409000D02*
X80893800Y-110739000D01*
X86333800Y-113019000D02*
X86333800Y-113349000D01*
%TO.C,D16*%
X102253200Y-134341200D02*
X102253200Y-134671200D01*
X96813200Y-131731200D02*
X96813200Y-132061200D01*
X102253200Y-131731200D02*
X96813200Y-131731200D01*
X101233200Y-134671200D02*
X101233200Y-131731200D01*
X96813200Y-134671200D02*
X96813200Y-134341200D01*
X102253200Y-132061200D02*
X102253200Y-131731200D01*
X101473200Y-134671200D02*
X101473200Y-131731200D01*
X101353200Y-134671200D02*
X101353200Y-131731200D01*
X102253200Y-134671200D02*
X96813200Y-134671200D01*
%TO.C,D46*%
X152616000Y-107124200D02*
X149676000Y-107124200D01*
X152286000Y-106224200D02*
X152616000Y-106224200D01*
X152616000Y-107004200D02*
X149676000Y-107004200D01*
X149676000Y-111664200D02*
X150006000Y-111664200D01*
X150006000Y-106224200D02*
X149676000Y-106224200D01*
X152616000Y-111664200D02*
X152286000Y-111664200D01*
X152616000Y-106224200D02*
X152616000Y-111664200D01*
X149676000Y-106224200D02*
X149676000Y-111664200D01*
X152616000Y-107244200D02*
X149676000Y-107244200D01*
%TO.C,D55*%
X106451600Y-111531800D02*
X106451600Y-108591800D01*
X107231600Y-111201800D02*
X107231600Y-111531800D01*
X101791600Y-108591800D02*
X101791600Y-108921800D01*
X106211600Y-111531800D02*
X106211600Y-108591800D01*
X106331600Y-111531800D02*
X106331600Y-108591800D01*
X107231600Y-111531800D02*
X101791600Y-111531800D01*
X101791600Y-111531800D02*
X101791600Y-111201800D01*
X107231600Y-108591800D02*
X101791600Y-108591800D01*
X107231600Y-108921800D02*
X107231600Y-108591800D01*
%TO.C,D30*%
X85313800Y-106541800D02*
X85313800Y-103601800D01*
X80893800Y-106541800D02*
X80893800Y-106211800D01*
X86333800Y-106211800D02*
X86333800Y-106541800D01*
X86333800Y-103601800D02*
X80893800Y-103601800D01*
X80893800Y-103601800D02*
X80893800Y-103931800D01*
X85553800Y-106541800D02*
X85553800Y-103601800D01*
X86333800Y-103931800D02*
X86333800Y-103601800D01*
X85433800Y-106541800D02*
X85433800Y-103601800D01*
X86333800Y-106541800D02*
X80893800Y-106541800D01*
%TO.C,D20*%
X172815200Y-106173400D02*
X172485200Y-106173400D01*
X175095200Y-106173400D02*
X175425200Y-106173400D01*
X175425200Y-107073400D02*
X172485200Y-107073400D01*
X172485200Y-106173400D02*
X172485200Y-111613400D01*
X175425200Y-106173400D02*
X175425200Y-111613400D01*
X175425200Y-107193400D02*
X172485200Y-107193400D01*
X175425200Y-106953400D02*
X172485200Y-106953400D01*
X175425200Y-111613400D02*
X175095200Y-111613400D01*
X172485200Y-111613400D02*
X172815200Y-111613400D01*
%TO.C,D18*%
X177285600Y-106224200D02*
X176955600Y-106224200D01*
X179565600Y-106224200D02*
X179895600Y-106224200D01*
X176955600Y-106224200D02*
X176955600Y-111664200D01*
X179895600Y-107004200D02*
X176955600Y-107004200D01*
X179895600Y-111664200D02*
X179565600Y-111664200D01*
X179895600Y-106224200D02*
X179895600Y-111664200D01*
X179895600Y-107244200D02*
X176955600Y-107244200D01*
X179895600Y-107124200D02*
X176955600Y-107124200D01*
X176955600Y-111664200D02*
X177285600Y-111664200D01*
%TO.C,D15*%
X104793200Y-124486000D02*
X104793200Y-124816000D01*
X99353200Y-121876000D02*
X99353200Y-122206000D01*
X104793200Y-122206000D02*
X104793200Y-121876000D01*
X104793200Y-124816000D02*
X99353200Y-124816000D01*
X103893200Y-124816000D02*
X103893200Y-121876000D01*
X104793200Y-121876000D02*
X99353200Y-121876000D01*
X103773200Y-124816000D02*
X103773200Y-121876000D01*
X104013200Y-124816000D02*
X104013200Y-121876000D01*
X99353200Y-124816000D02*
X99353200Y-124486000D01*
%TO.C,D43*%
X99200800Y-118110400D02*
X99200800Y-117780400D01*
X104640800Y-117780400D02*
X104640800Y-118110400D01*
X104640800Y-115170400D02*
X99200800Y-115170400D01*
X99200800Y-115170400D02*
X99200800Y-115500400D01*
X104640800Y-115500400D02*
X104640800Y-115170400D01*
X103740800Y-118110400D02*
X103740800Y-115170400D01*
X103860800Y-118110400D02*
X103860800Y-115170400D01*
X103620800Y-118110400D02*
X103620800Y-115170400D01*
X104640800Y-118110400D02*
X99200800Y-118110400D01*
%TO.C,J5*%
X77280000Y-99650000D02*
X77280000Y-100760000D01*
X76923810Y-89560000D02*
X76923810Y-98190000D01*
X76805715Y-89560000D02*
X76805715Y-98190000D01*
X69600000Y-89560000D02*
X69600000Y-98190000D01*
X64460000Y-89560000D02*
X64460000Y-98190000D01*
X67060000Y-89560000D02*
X67060000Y-98190000D01*
X75624765Y-89560000D02*
X75624765Y-98190000D01*
X77280000Y-100760000D02*
X75950000Y-100760000D01*
X75860955Y-89560000D02*
X75860955Y-98190000D01*
X77280000Y-89560000D02*
X77280000Y-98190000D01*
X66150000Y-98190000D02*
X66150000Y-98600000D01*
X77160000Y-89560000D02*
X77160000Y-98190000D01*
X75034290Y-89560000D02*
X75034290Y-98190000D01*
X72140000Y-89560000D02*
X72140000Y-98190000D01*
X75742860Y-89560000D02*
X75742860Y-98190000D01*
X77280000Y-98190000D02*
X64460000Y-98190000D01*
X76097145Y-89560000D02*
X76097145Y-98190000D01*
X70510000Y-98190000D02*
X70510000Y-98600000D01*
X77041905Y-89560000D02*
X77041905Y-98190000D01*
X73050000Y-98190000D02*
X73050000Y-98600000D01*
X75979050Y-89560000D02*
X75979050Y-98190000D01*
X74798100Y-89560000D02*
X74798100Y-98190000D01*
X76333335Y-89560000D02*
X76333335Y-98190000D01*
X77280000Y-89560000D02*
X64460000Y-89560000D01*
X76451430Y-89560000D02*
X76451430Y-98190000D01*
X75590000Y-98190000D02*
X75590000Y-98540000D01*
X74680000Y-89560000D02*
X74680000Y-98190000D01*
X65430000Y-98190000D02*
X65430000Y-98600000D01*
X75506670Y-89560000D02*
X75506670Y-98190000D01*
X75270480Y-89560000D02*
X75270480Y-98190000D01*
X71230000Y-98190000D02*
X71230000Y-98600000D01*
X67970000Y-98190000D02*
X67970000Y-98600000D01*
X75152385Y-89560000D02*
X75152385Y-98190000D01*
X68690000Y-98190000D02*
X68690000Y-98600000D01*
X76215240Y-89560000D02*
X76215240Y-98190000D01*
X74916195Y-89560000D02*
X74916195Y-98190000D01*
X76569525Y-89560000D02*
X76569525Y-98190000D01*
X76310000Y-98190000D02*
X76310000Y-98540000D01*
X73770000Y-98190000D02*
X73770000Y-98600000D01*
X75388575Y-89560000D02*
X75388575Y-98190000D01*
X76687620Y-89560000D02*
X76687620Y-98190000D01*
%TO.C,D35*%
X156781600Y-128815800D02*
X153841600Y-128815800D01*
X156781600Y-133355800D02*
X156451600Y-133355800D01*
X154171600Y-127915800D02*
X153841600Y-127915800D01*
X156451600Y-127915800D02*
X156781600Y-127915800D01*
X156781600Y-128935800D02*
X153841600Y-128935800D01*
X156781600Y-127915800D02*
X156781600Y-133355800D01*
X153841600Y-127915800D02*
X153841600Y-133355800D01*
X153841600Y-133355800D02*
X154171600Y-133355800D01*
X156781600Y-128695800D02*
X153841600Y-128695800D01*
%TO.C,D56*%
X78506200Y-130271800D02*
X78506200Y-130601800D01*
X83046200Y-133211800D02*
X83046200Y-130271800D01*
X78506200Y-133211800D02*
X78506200Y-132881800D01*
X83946200Y-130601800D02*
X83946200Y-130271800D01*
X83166200Y-133211800D02*
X83166200Y-130271800D01*
X83946200Y-133211800D02*
X78506200Y-133211800D01*
X83946200Y-132881800D02*
X83946200Y-133211800D01*
X82926200Y-133211800D02*
X82926200Y-130271800D01*
X83946200Y-130271800D02*
X78506200Y-130271800D01*
%TO.C,D5*%
X83946200Y-126176200D02*
X83946200Y-126506200D01*
X78506200Y-123566200D02*
X78506200Y-123896200D01*
X83946200Y-123896200D02*
X83946200Y-123566200D01*
X83946200Y-123566200D02*
X78506200Y-123566200D01*
X83946200Y-126506200D02*
X78506200Y-126506200D01*
X83046200Y-126506200D02*
X83046200Y-123566200D01*
X82926200Y-126506200D02*
X82926200Y-123566200D01*
X83166200Y-126506200D02*
X83166200Y-123566200D01*
X78506200Y-126506200D02*
X78506200Y-126176200D01*
%TO.C,D32*%
X159505800Y-111664200D02*
X159835800Y-111664200D01*
X162445800Y-107004200D02*
X159505800Y-107004200D01*
X162445800Y-107244200D02*
X159505800Y-107244200D01*
X159835800Y-106224200D02*
X159505800Y-106224200D01*
X162445800Y-107124200D02*
X159505800Y-107124200D01*
X162445800Y-106224200D02*
X162445800Y-111664200D01*
X162115800Y-106224200D02*
X162445800Y-106224200D01*
X159505800Y-106224200D02*
X159505800Y-111664200D01*
X162445800Y-111664200D02*
X162115800Y-111664200D01*
%TO.C,J1*%
X62265240Y-89635000D02*
X62265240Y-98265000D01*
X62360000Y-98265000D02*
X62360000Y-98615000D01*
X61556670Y-89635000D02*
X61556670Y-98265000D01*
X61674765Y-89635000D02*
X61674765Y-98265000D01*
X63330000Y-98265000D02*
X58130000Y-98265000D01*
X62737620Y-89635000D02*
X62737620Y-98265000D01*
X62029050Y-89635000D02*
X62029050Y-98265000D01*
X61640000Y-98265000D02*
X61640000Y-98615000D01*
X61202385Y-89635000D02*
X61202385Y-98265000D01*
X60730000Y-89635000D02*
X60730000Y-98265000D01*
X62501430Y-89635000D02*
X62501430Y-98265000D01*
X59820000Y-98265000D02*
X59820000Y-98675000D01*
X62973810Y-89635000D02*
X62973810Y-98265000D01*
X63330000Y-89635000D02*
X63330000Y-98265000D01*
X62619525Y-89635000D02*
X62619525Y-98265000D01*
X63210000Y-89635000D02*
X63210000Y-98265000D01*
X63330000Y-100835000D02*
X62000000Y-100835000D01*
X59100000Y-98265000D02*
X59100000Y-98675000D01*
X61438575Y-89635000D02*
X61438575Y-98265000D01*
X61320480Y-89635000D02*
X61320480Y-98265000D01*
X60848100Y-89635000D02*
X60848100Y-98265000D01*
X61792860Y-89635000D02*
X61792860Y-98265000D01*
X62147145Y-89635000D02*
X62147145Y-98265000D01*
X63091905Y-89635000D02*
X63091905Y-98265000D01*
X61910955Y-89635000D02*
X61910955Y-98265000D01*
X63330000Y-99725000D02*
X63330000Y-100835000D01*
X62383335Y-89635000D02*
X62383335Y-98265000D01*
X60966195Y-89635000D02*
X60966195Y-98265000D01*
X58130000Y-89635000D02*
X58130000Y-98265000D01*
X62855715Y-89635000D02*
X62855715Y-98265000D01*
X63330000Y-89635000D02*
X58130000Y-89635000D01*
X61084290Y-89635000D02*
X61084290Y-98265000D01*
%TO.C,D9*%
X72195000Y-117205000D02*
X72195000Y-117535000D01*
X66755000Y-117535000D02*
X66755000Y-117205000D01*
X66755000Y-117205000D02*
X72195000Y-117205000D01*
X66755000Y-120145000D02*
X72195000Y-120145000D01*
X66755000Y-119815000D02*
X66755000Y-120145000D01*
X67655000Y-117205000D02*
X67655000Y-120145000D01*
X67535000Y-117205000D02*
X67535000Y-120145000D01*
X72195000Y-120145000D02*
X72195000Y-119815000D01*
X67775000Y-117205000D02*
X67775000Y-120145000D01*
%TO.C,D51*%
X133623000Y-106224200D02*
X133293000Y-106224200D01*
X135903000Y-106224200D02*
X136233000Y-106224200D01*
X133293000Y-106224200D02*
X133293000Y-111664200D01*
X136233000Y-107244200D02*
X133293000Y-107244200D01*
X136233000Y-107124200D02*
X133293000Y-107124200D01*
X136233000Y-106224200D02*
X136233000Y-111664200D01*
X136233000Y-111664200D02*
X135903000Y-111664200D01*
X133293000Y-111664200D02*
X133623000Y-111664200D01*
X136233000Y-107004200D02*
X133293000Y-107004200D01*
%TO.C,D19*%
X177806400Y-117151600D02*
X177806400Y-120091600D01*
X177026400Y-117481600D02*
X177026400Y-117151600D01*
X182466400Y-117151600D02*
X182466400Y-117481600D01*
X177026400Y-119761600D02*
X177026400Y-120091600D01*
X178046400Y-117151600D02*
X178046400Y-120091600D01*
X177026400Y-117151600D02*
X182466400Y-117151600D01*
X177926400Y-117151600D02*
X177926400Y-120091600D01*
X177026400Y-120091600D02*
X182466400Y-120091600D01*
X182466400Y-120091600D02*
X182466400Y-119761600D01*
%TO.C,D29*%
X102278600Y-127813400D02*
X102278600Y-128143400D01*
X102278600Y-125203400D02*
X96838600Y-125203400D01*
X102278600Y-125533400D02*
X102278600Y-125203400D01*
X101258600Y-128143400D02*
X101258600Y-125203400D01*
X101498600Y-128143400D02*
X101498600Y-125203400D01*
X101378600Y-128143400D02*
X101378600Y-125203400D01*
X102278600Y-128143400D02*
X96838600Y-128143400D01*
X96838600Y-125203400D02*
X96838600Y-125533400D01*
X96838600Y-128143400D02*
X96838600Y-127813400D01*
%TO.C,D39*%
X186830800Y-100076400D02*
X192270800Y-100076400D01*
X187610800Y-97136400D02*
X187610800Y-100076400D01*
X192270800Y-97136400D02*
X192270800Y-97466400D01*
X186830800Y-97136400D02*
X192270800Y-97136400D01*
X186830800Y-97466400D02*
X186830800Y-97136400D01*
X187850800Y-97136400D02*
X187850800Y-100076400D01*
X186830800Y-99746400D02*
X186830800Y-100076400D01*
X192270800Y-100076400D02*
X192270800Y-99746400D01*
X187730800Y-97136400D02*
X187730800Y-100076400D01*
%TO.C,D40*%
X129629000Y-106224200D02*
X129629000Y-111664200D01*
X129299000Y-106224200D02*
X129629000Y-106224200D01*
X127019000Y-106224200D02*
X126689000Y-106224200D01*
X129629000Y-111664200D02*
X129299000Y-111664200D01*
X126689000Y-106224200D02*
X126689000Y-111664200D01*
X129629000Y-107124200D02*
X126689000Y-107124200D01*
X129629000Y-107244200D02*
X126689000Y-107244200D01*
X129629000Y-107004200D02*
X126689000Y-107004200D01*
X126689000Y-111664200D02*
X127019000Y-111664200D01*
%TO.C,J2*%
X158990000Y-90010000D02*
X158990000Y-98640000D01*
X136130000Y-90010000D02*
X136130000Y-98640000D01*
X176830000Y-100100000D02*
X176830000Y-101210000D01*
X167520000Y-98640000D02*
X167520000Y-99050000D01*
X173320000Y-98640000D02*
X173320000Y-99050000D01*
X175056670Y-90010000D02*
X175056670Y-98640000D01*
X175529050Y-90010000D02*
X175529050Y-98640000D01*
X146290000Y-90010000D02*
X146290000Y-98640000D01*
X144660000Y-98640000D02*
X144660000Y-99050000D01*
X176830000Y-90010000D02*
X176830000Y-98640000D01*
X175883335Y-90010000D02*
X175883335Y-98640000D01*
X160620000Y-98640000D02*
X160620000Y-99050000D01*
X141210000Y-90010000D02*
X141210000Y-98640000D01*
X150460000Y-98640000D02*
X150460000Y-99050000D01*
X137040000Y-98640000D02*
X137040000Y-99050000D01*
X176237620Y-90010000D02*
X176237620Y-98640000D01*
X145380000Y-98640000D02*
X145380000Y-99050000D01*
X142840000Y-98640000D02*
X142840000Y-99050000D01*
X151370000Y-90010000D02*
X151370000Y-98640000D01*
X149740000Y-98640000D02*
X149740000Y-99050000D01*
X170060000Y-98640000D02*
X170060000Y-99050000D01*
X164980000Y-98640000D02*
X164980000Y-99050000D01*
X165700000Y-98640000D02*
X165700000Y-99050000D01*
X143750000Y-90010000D02*
X143750000Y-98640000D01*
X142120000Y-98640000D02*
X142120000Y-99050000D01*
X171690000Y-90010000D02*
X171690000Y-98640000D01*
X138670000Y-90010000D02*
X138670000Y-98640000D01*
X175647145Y-90010000D02*
X175647145Y-98640000D01*
X175860000Y-98640000D02*
X175860000Y-98990000D01*
X174348100Y-90010000D02*
X174348100Y-98640000D01*
X164070000Y-90010000D02*
X164070000Y-98640000D01*
X155540000Y-98640000D02*
X155540000Y-99050000D01*
X174820480Y-90010000D02*
X174820480Y-98640000D01*
X176001430Y-90010000D02*
X176001430Y-98640000D01*
X176830000Y-98640000D02*
X133530000Y-98640000D01*
X175410955Y-90010000D02*
X175410955Y-98640000D01*
X172600000Y-98640000D02*
X172600000Y-99050000D01*
X168240000Y-98640000D02*
X168240000Y-99050000D01*
X153000000Y-98640000D02*
X153000000Y-99050000D01*
X169150000Y-90010000D02*
X169150000Y-98640000D01*
X174702385Y-90010000D02*
X174702385Y-98640000D01*
X170780000Y-98640000D02*
X170780000Y-99050000D01*
X154820000Y-98640000D02*
X154820000Y-99050000D01*
X156450000Y-90010000D02*
X156450000Y-98640000D01*
X153910000Y-90010000D02*
X153910000Y-98640000D01*
X176830000Y-101210000D02*
X175500000Y-101210000D01*
X176830000Y-90010000D02*
X133530000Y-90010000D01*
X174230000Y-90010000D02*
X174230000Y-98640000D01*
X147920000Y-98640000D02*
X147920000Y-99050000D01*
X176473810Y-90010000D02*
X176473810Y-98640000D01*
X166610000Y-90010000D02*
X166610000Y-98640000D01*
X134500000Y-98640000D02*
X134500000Y-99050000D01*
X147200000Y-98640000D02*
X147200000Y-99050000D01*
X140300000Y-98640000D02*
X140300000Y-99050000D01*
X162440000Y-98640000D02*
X162440000Y-99050000D01*
X161530000Y-90010000D02*
X161530000Y-98640000D01*
X137760000Y-98640000D02*
X137760000Y-99050000D01*
X157360000Y-98640000D02*
X157360000Y-99050000D01*
X148830000Y-90010000D02*
X148830000Y-98640000D01*
X176119525Y-90010000D02*
X176119525Y-98640000D01*
X152280000Y-98640000D02*
X152280000Y-99050000D01*
X174584290Y-90010000D02*
X174584290Y-98640000D01*
X174938575Y-90010000D02*
X174938575Y-98640000D01*
X176355715Y-90010000D02*
X176355715Y-98640000D01*
X158080000Y-98640000D02*
X158080000Y-99050000D01*
X175765240Y-90010000D02*
X175765240Y-98640000D01*
X176591905Y-90010000D02*
X176591905Y-98640000D01*
X174466195Y-90010000D02*
X174466195Y-98640000D01*
X175174765Y-90010000D02*
X175174765Y-98640000D01*
X176710000Y-90010000D02*
X176710000Y-98640000D01*
X139580000Y-98640000D02*
X139580000Y-99050000D01*
X135220000Y-98640000D02*
X135220000Y-99050000D01*
X175140000Y-98640000D02*
X175140000Y-98990000D01*
X163160000Y-98640000D02*
X163160000Y-99050000D01*
X133530000Y-90010000D02*
X133530000Y-98640000D01*
X159900000Y-98640000D02*
X159900000Y-99050000D01*
X175292860Y-90010000D02*
X175292860Y-98640000D01*
%TO.C,D45*%
X149314000Y-107124200D02*
X146374000Y-107124200D01*
X146374000Y-106224200D02*
X146374000Y-111664200D01*
X146374000Y-111664200D02*
X146704000Y-111664200D01*
X149314000Y-107004200D02*
X146374000Y-107004200D01*
X146704000Y-106224200D02*
X146374000Y-106224200D01*
X148984000Y-106224200D02*
X149314000Y-106224200D01*
X149314000Y-107244200D02*
X146374000Y-107244200D01*
X149314000Y-111664200D02*
X148984000Y-111664200D01*
X149314000Y-106224200D02*
X149314000Y-111664200D01*
%TO.C,J4*%
X101834800Y-98600000D02*
X101834800Y-99010000D01*
X108484800Y-89970000D02*
X108484800Y-98600000D01*
X100014800Y-98600000D02*
X100014800Y-99010000D01*
X107634800Y-98600000D02*
X107634800Y-98950000D01*
X106122900Y-89970000D02*
X106122900Y-98600000D01*
X97474800Y-98600000D02*
X97474800Y-99010000D01*
X108130515Y-89970000D02*
X108130515Y-98600000D01*
X106477185Y-89970000D02*
X106477185Y-98600000D01*
X96754800Y-98600000D02*
X96754800Y-99010000D01*
X108604800Y-89970000D02*
X108604800Y-98600000D01*
X100924800Y-89970000D02*
X100924800Y-98600000D01*
X108604800Y-98600000D02*
X95784800Y-98600000D01*
X107776230Y-89970000D02*
X107776230Y-98600000D01*
X102554800Y-98600000D02*
X102554800Y-99010000D01*
X108366705Y-89970000D02*
X108366705Y-98600000D01*
X107067660Y-89970000D02*
X107067660Y-98600000D01*
X108604800Y-89970000D02*
X95784800Y-89970000D01*
X107303850Y-89970000D02*
X107303850Y-98600000D01*
X108604800Y-100060000D02*
X108604800Y-101170000D01*
X106949565Y-89970000D02*
X106949565Y-98600000D01*
X106004800Y-89970000D02*
X106004800Y-98600000D01*
X104374800Y-98600000D02*
X104374800Y-99010000D01*
X108604800Y-101170000D02*
X107274800Y-101170000D01*
X99294800Y-98600000D02*
X99294800Y-99010000D01*
X107658135Y-89970000D02*
X107658135Y-98600000D01*
X98384800Y-89970000D02*
X98384800Y-98600000D01*
X103464800Y-89970000D02*
X103464800Y-98600000D01*
X106713375Y-89970000D02*
X106713375Y-98600000D01*
X106914800Y-98600000D02*
X106914800Y-98950000D01*
X106831470Y-89970000D02*
X106831470Y-98600000D01*
X106359090Y-89970000D02*
X106359090Y-98600000D01*
X107421945Y-89970000D02*
X107421945Y-98600000D01*
X105094800Y-98600000D02*
X105094800Y-99010000D01*
X95784800Y-89970000D02*
X95784800Y-98600000D01*
X108012420Y-89970000D02*
X108012420Y-98600000D01*
X107185755Y-89970000D02*
X107185755Y-98600000D01*
X107540040Y-89970000D02*
X107540040Y-98600000D01*
X107894325Y-89970000D02*
X107894325Y-98600000D01*
X106595280Y-89970000D02*
X106595280Y-98600000D01*
X108248610Y-89970000D02*
X108248610Y-98600000D01*
X106240995Y-89970000D02*
X106240995Y-98600000D01*
%TO.C,D7*%
X72169200Y-110151400D02*
X72169200Y-110481400D01*
X72169200Y-113091400D02*
X72169200Y-112761400D01*
X66729200Y-110481400D02*
X66729200Y-110151400D01*
X66729200Y-113091400D02*
X72169200Y-113091400D01*
X67749200Y-110151400D02*
X67749200Y-113091400D01*
X67629200Y-110151400D02*
X67629200Y-113091400D01*
X67509200Y-110151400D02*
X67509200Y-113091400D01*
X66729200Y-110151400D02*
X72169200Y-110151400D01*
X66729200Y-112761400D02*
X66729200Y-113091400D01*
%TO.C,D36*%
X156203800Y-106224200D02*
X156203800Y-111664200D01*
X159143800Y-107244200D02*
X156203800Y-107244200D01*
X159143800Y-107004200D02*
X156203800Y-107004200D01*
X158813800Y-106224200D02*
X159143800Y-106224200D01*
X156533800Y-106224200D02*
X156203800Y-106224200D01*
X159143800Y-111664200D02*
X158813800Y-111664200D01*
X156203800Y-111664200D02*
X156533800Y-111664200D01*
X159143800Y-106224200D02*
X159143800Y-111664200D01*
X159143800Y-107124200D02*
X156203800Y-107124200D01*
%TO.C,D27*%
X86333800Y-113660200D02*
X80893800Y-113660200D01*
X85553800Y-116600200D02*
X85553800Y-113660200D01*
X86333800Y-116600200D02*
X80893800Y-116600200D01*
X80893800Y-116600200D02*
X80893800Y-116270200D01*
X80893800Y-113660200D02*
X80893800Y-113990200D01*
X86333800Y-113990200D02*
X86333800Y-113660200D01*
X85433800Y-116600200D02*
X85433800Y-113660200D01*
X85313800Y-116600200D02*
X85313800Y-113660200D01*
X86333800Y-116270200D02*
X86333800Y-116600200D01*
%TO.C,D17*%
X91720000Y-94645000D02*
X91720000Y-91705000D01*
X91840000Y-94645000D02*
X91840000Y-91705000D01*
X92620000Y-94315000D02*
X92620000Y-94645000D01*
X92620000Y-94645000D02*
X87180000Y-94645000D01*
X87180000Y-91705000D02*
X87180000Y-92035000D01*
X91600000Y-94645000D02*
X91600000Y-91705000D01*
X92620000Y-92035000D02*
X92620000Y-91705000D01*
X87180000Y-94645000D02*
X87180000Y-94315000D01*
X92620000Y-91705000D02*
X87180000Y-91705000D01*
%TO.C,D38*%
X155562600Y-106224200D02*
X155892600Y-106224200D01*
X155892600Y-107124200D02*
X152952600Y-107124200D01*
X155892600Y-111664200D02*
X155562600Y-111664200D01*
X155892600Y-107004200D02*
X152952600Y-107004200D01*
X155892600Y-106224200D02*
X155892600Y-111664200D01*
X153282600Y-106224200D02*
X152952600Y-106224200D01*
X152952600Y-111664200D02*
X153282600Y-111664200D01*
X155892600Y-107244200D02*
X152952600Y-107244200D01*
X152952600Y-106224200D02*
X152952600Y-111664200D01*
%TO.C,D14*%
X66505000Y-137265000D02*
X66505000Y-137595000D01*
X67405000Y-134655000D02*
X67405000Y-137595000D01*
X66505000Y-134985000D02*
X66505000Y-134655000D01*
X66505000Y-137595000D02*
X71945000Y-137595000D01*
X71945000Y-137595000D02*
X71945000Y-137265000D01*
X67525000Y-134655000D02*
X67525000Y-137595000D01*
X66505000Y-134655000D02*
X71945000Y-134655000D01*
X71945000Y-134655000D02*
X71945000Y-134985000D01*
X67285000Y-134655000D02*
X67285000Y-137595000D01*
%TO.C,D37*%
X192270800Y-96622000D02*
X192270800Y-96292000D01*
X192270800Y-93682000D02*
X192270800Y-94012000D01*
X186830800Y-94012000D02*
X186830800Y-93682000D01*
X187610800Y-93682000D02*
X187610800Y-96622000D01*
X187730800Y-93682000D02*
X187730800Y-96622000D01*
X186830800Y-96292000D02*
X186830800Y-96622000D01*
X187850800Y-93682000D02*
X187850800Y-96622000D01*
X186830800Y-96622000D02*
X192270800Y-96622000D01*
X186830800Y-93682000D02*
X192270800Y-93682000D01*
%TO.C,D23*%
X153479600Y-127966600D02*
X153479600Y-133406600D01*
X150869600Y-127966600D02*
X150539600Y-127966600D01*
X153479600Y-128986600D02*
X150539600Y-128986600D01*
X153479600Y-128746600D02*
X150539600Y-128746600D01*
X153479600Y-128866600D02*
X150539600Y-128866600D01*
X150539600Y-133406600D02*
X150869600Y-133406600D01*
X150539600Y-127966600D02*
X150539600Y-133406600D01*
X153479600Y-133406600D02*
X153149600Y-133406600D01*
X153149600Y-127966600D02*
X153479600Y-127966600D01*
%TO.C,D2*%
X78506200Y-136564600D02*
X78506200Y-136234600D01*
X82926200Y-136564600D02*
X82926200Y-133624600D01*
X78506200Y-133624600D02*
X78506200Y-133954600D01*
X83946200Y-133624600D02*
X78506200Y-133624600D01*
X83166200Y-136564600D02*
X83166200Y-133624600D01*
X83946200Y-133954600D02*
X83946200Y-133624600D01*
X83946200Y-136564600D02*
X78506200Y-136564600D01*
X83946200Y-136234600D02*
X83946200Y-136564600D01*
X83046200Y-136564600D02*
X83046200Y-133624600D01*
%TO.C,J3*%
X228890000Y-98315000D02*
X228890000Y-98725000D01*
X241860955Y-89685000D02*
X241860955Y-98315000D01*
X242333335Y-89685000D02*
X242333335Y-98315000D01*
X225440000Y-89685000D02*
X225440000Y-98315000D01*
X242097145Y-89685000D02*
X242097145Y-98315000D01*
X233970000Y-98315000D02*
X233970000Y-98725000D01*
X243280000Y-98315000D02*
X222840000Y-98315000D01*
X231430000Y-98315000D02*
X231430000Y-98725000D01*
X227070000Y-98315000D02*
X227070000Y-98725000D01*
X240798100Y-89685000D02*
X240798100Y-98315000D01*
X236510000Y-98315000D02*
X236510000Y-98725000D01*
X242310000Y-98315000D02*
X242310000Y-98665000D01*
X226350000Y-98315000D02*
X226350000Y-98725000D01*
X241742860Y-89685000D02*
X241742860Y-98315000D01*
X241979050Y-89685000D02*
X241979050Y-98315000D01*
X241270480Y-89685000D02*
X241270480Y-98315000D01*
X222840000Y-89685000D02*
X222840000Y-98315000D01*
X224530000Y-98315000D02*
X224530000Y-98725000D01*
X241506670Y-89685000D02*
X241506670Y-98315000D01*
X233060000Y-89685000D02*
X233060000Y-98315000D01*
X238140000Y-89685000D02*
X238140000Y-98315000D01*
X235600000Y-89685000D02*
X235600000Y-98315000D01*
X242805715Y-89685000D02*
X242805715Y-98315000D01*
X242215240Y-89685000D02*
X242215240Y-98315000D01*
X243160000Y-89685000D02*
X243160000Y-98315000D01*
X242569525Y-89685000D02*
X242569525Y-98315000D01*
X234690000Y-98315000D02*
X234690000Y-98725000D01*
X243041905Y-89685000D02*
X243041905Y-98315000D01*
X243280000Y-89685000D02*
X222840000Y-89685000D01*
X242451430Y-89685000D02*
X242451430Y-98315000D01*
X242923810Y-89685000D02*
X242923810Y-98315000D01*
X243280000Y-100885000D02*
X241950000Y-100885000D01*
X240916195Y-89685000D02*
X240916195Y-98315000D01*
X243280000Y-89685000D02*
X243280000Y-98315000D01*
X239050000Y-98315000D02*
X239050000Y-98725000D01*
X242687620Y-89685000D02*
X242687620Y-98315000D01*
X243280000Y-99775000D02*
X243280000Y-100885000D01*
X227980000Y-89685000D02*
X227980000Y-98315000D01*
X223810000Y-98315000D02*
X223810000Y-98725000D01*
X232150000Y-98315000D02*
X232150000Y-98725000D01*
X241034290Y-89685000D02*
X241034290Y-98315000D01*
X237230000Y-98315000D02*
X237230000Y-98725000D01*
X239770000Y-98315000D02*
X239770000Y-98725000D01*
X240680000Y-89685000D02*
X240680000Y-98315000D01*
X241152385Y-89685000D02*
X241152385Y-98315000D01*
X230520000Y-89685000D02*
X230520000Y-98315000D01*
X241590000Y-98315000D02*
X241590000Y-98665000D01*
X241624765Y-89685000D02*
X241624765Y-98315000D01*
X229610000Y-98315000D02*
X229610000Y-98725000D01*
X241388575Y-89685000D02*
X241388575Y-98315000D01*
%TO.C,D21*%
X183223000Y-107244200D02*
X180283000Y-107244200D01*
X183223000Y-106224200D02*
X183223000Y-111664200D01*
X182893000Y-106224200D02*
X183223000Y-106224200D01*
X183223000Y-107004200D02*
X180283000Y-107004200D01*
X183223000Y-107124200D02*
X180283000Y-107124200D01*
X180283000Y-111664200D02*
X180613000Y-111664200D01*
X183223000Y-111664200D02*
X182893000Y-111664200D01*
X180613000Y-106224200D02*
X180283000Y-106224200D01*
X180283000Y-106224200D02*
X180283000Y-111664200D01*
%TO.C,U1*%
X247520000Y-132565000D02*
X247520000Y-128065000D01*
X247520000Y-128065000D02*
X229620000Y-128065000D01*
X229620000Y-128065000D02*
X229620000Y-129315000D01*
X229620000Y-132565000D02*
X247520000Y-132565000D01*
X229620000Y-131315000D02*
X229620000Y-132565000D01*
X229620000Y-131315000D02*
G75*
G03*
X229620000Y-129315000I0J1000000D01*
G01*
%TO.C,D11*%
X67485000Y-127855000D02*
X67485000Y-130795000D01*
X67605000Y-127855000D02*
X67605000Y-130795000D01*
X66705000Y-130465000D02*
X66705000Y-130795000D01*
X66705000Y-128185000D02*
X66705000Y-127855000D01*
X72145000Y-130795000D02*
X72145000Y-130465000D01*
X67725000Y-127855000D02*
X67725000Y-130795000D01*
X66705000Y-127855000D02*
X72145000Y-127855000D01*
X72145000Y-127855000D02*
X72145000Y-128185000D01*
X66705000Y-130795000D02*
X72145000Y-130795000D01*
%TO.C,D48*%
X205352600Y-128144400D02*
X205022600Y-128144400D01*
X207962600Y-128924400D02*
X205022600Y-128924400D01*
X205022600Y-133584400D02*
X205352600Y-133584400D01*
X207962600Y-129044400D02*
X205022600Y-129044400D01*
X207962600Y-128144400D02*
X207962600Y-133584400D01*
X207632600Y-128144400D02*
X207962600Y-128144400D01*
X205022600Y-128144400D02*
X205022600Y-133584400D01*
X207962600Y-133584400D02*
X207632600Y-133584400D01*
X207962600Y-129164400D02*
X205022600Y-129164400D01*
%TO.C,D54*%
X102227800Y-138100200D02*
X96787800Y-138100200D01*
X102227800Y-135160200D02*
X96787800Y-135160200D01*
X101207800Y-138100200D02*
X101207800Y-135160200D01*
X102227800Y-135490200D02*
X102227800Y-135160200D01*
X96787800Y-135160200D02*
X96787800Y-135490200D01*
X96787800Y-138100200D02*
X96787800Y-137770200D01*
X102227800Y-137770200D02*
X102227800Y-138100200D01*
X101447800Y-138100200D02*
X101447800Y-135160200D01*
X101327800Y-138100200D02*
X101327800Y-135160200D01*
%TO.C,D3*%
X101498600Y-131420000D02*
X101498600Y-128480000D01*
X96838600Y-131420000D02*
X96838600Y-131090000D01*
X102278600Y-131090000D02*
X102278600Y-131420000D01*
X102278600Y-131420000D02*
X96838600Y-131420000D01*
X101378600Y-131420000D02*
X101378600Y-128480000D01*
X101258600Y-131420000D02*
X101258600Y-128480000D01*
X102278600Y-128480000D02*
X96838600Y-128480000D01*
X102278600Y-128810000D02*
X102278600Y-128480000D01*
X96838600Y-128480000D02*
X96838600Y-128810000D01*
%TO.C,D24*%
X165906600Y-106198800D02*
X165906600Y-111638800D01*
X166236600Y-106198800D02*
X165906600Y-106198800D01*
X168516600Y-106198800D02*
X168846600Y-106198800D01*
X168846600Y-111638800D02*
X168516600Y-111638800D01*
X168846600Y-107098800D02*
X165906600Y-107098800D01*
X165906600Y-111638800D02*
X166236600Y-111638800D01*
X168846600Y-106198800D02*
X168846600Y-111638800D01*
X168846600Y-106978800D02*
X165906600Y-106978800D01*
X168846600Y-107218800D02*
X165906600Y-107218800D01*
%TO.C,D13*%
X67728200Y-131251400D02*
X67728200Y-134191400D01*
X66708200Y-133861400D02*
X66708200Y-134191400D01*
X66708200Y-131251400D02*
X72148200Y-131251400D01*
X67488200Y-131251400D02*
X67488200Y-134191400D01*
X72148200Y-134191400D02*
X72148200Y-133861400D01*
X66708200Y-134191400D02*
X72148200Y-134191400D01*
X72148200Y-131251400D02*
X72148200Y-131581400D01*
X67608200Y-131251400D02*
X67608200Y-134191400D01*
X66708200Y-131581400D02*
X66708200Y-131251400D01*
%TO.C,U3*%
X173204400Y-127943600D02*
X173204400Y-129193600D01*
X191104400Y-127943600D02*
X173204400Y-127943600D01*
X173204400Y-131193600D02*
X173204400Y-132443600D01*
X173204400Y-132443600D02*
X191104400Y-132443600D01*
X191104400Y-132443600D02*
X191104400Y-127943600D01*
X173204400Y-131193600D02*
G75*
G03*
X173204400Y-129193600I0J1000000D01*
G01*
%TO.C,D50*%
X197631200Y-127915800D02*
X197631200Y-133355800D01*
X200241200Y-127915800D02*
X200571200Y-127915800D01*
X197631200Y-133355800D02*
X197961200Y-133355800D01*
X200571200Y-127915800D02*
X200571200Y-133355800D01*
X197961200Y-127915800D02*
X197631200Y-127915800D01*
X200571200Y-133355800D02*
X200241200Y-133355800D01*
X200571200Y-128935800D02*
X197631200Y-128935800D01*
X200571200Y-128695800D02*
X197631200Y-128695800D01*
X200571200Y-128815800D02*
X197631200Y-128815800D01*
%TO.C,D49*%
X140176200Y-106249600D02*
X139846200Y-106249600D01*
X142786200Y-106249600D02*
X142786200Y-111689600D01*
X142786200Y-107269600D02*
X139846200Y-107269600D01*
X142786200Y-111689600D02*
X142456200Y-111689600D01*
X139846200Y-106249600D02*
X139846200Y-111689600D01*
X142786200Y-107029600D02*
X139846200Y-107029600D01*
X142456200Y-106249600D02*
X142786200Y-106249600D01*
X139846200Y-111689600D02*
X140176200Y-111689600D01*
X142786200Y-107149600D02*
X139846200Y-107149600D01*
%TO.C,D53*%
X80893800Y-116911400D02*
X80893800Y-117241400D01*
X85553800Y-119851400D02*
X85553800Y-116911400D01*
X86333800Y-117241400D02*
X86333800Y-116911400D01*
X86333800Y-116911400D02*
X80893800Y-116911400D01*
X86333800Y-119521400D02*
X86333800Y-119851400D01*
X86333800Y-119851400D02*
X80893800Y-119851400D01*
X80893800Y-119851400D02*
X80893800Y-119521400D01*
X85433800Y-119851400D02*
X85433800Y-116911400D01*
X85313800Y-119851400D02*
X85313800Y-116911400D01*
%TO.C,D4*%
X80893800Y-109945400D02*
X80893800Y-109615400D01*
X86333800Y-107005400D02*
X80893800Y-107005400D01*
X86333800Y-109615400D02*
X86333800Y-109945400D01*
X86333800Y-109945400D02*
X80893800Y-109945400D01*
X86333800Y-107335400D02*
X86333800Y-107005400D01*
X85313800Y-109945400D02*
X85313800Y-107005400D01*
X80893800Y-107005400D02*
X80893800Y-107335400D01*
X85553800Y-109945400D02*
X85553800Y-107005400D01*
X85433800Y-109945400D02*
X85433800Y-107005400D01*
%TO.C,U2*%
X123826800Y-132596000D02*
X141726800Y-132596000D01*
X141726800Y-132596000D02*
X141726800Y-128096000D01*
X123826800Y-128096000D02*
X123826800Y-129346000D01*
X141726800Y-128096000D02*
X123826800Y-128096000D01*
X123826800Y-131346000D02*
X123826800Y-132596000D01*
X123826800Y-131346000D02*
G75*
G03*
X123826800Y-129346000I0J1000000D01*
G01*
%TO.C,D10*%
X66755000Y-120608600D02*
X72195000Y-120608600D01*
X67655000Y-120608600D02*
X67655000Y-123548600D01*
X67775000Y-120608600D02*
X67775000Y-123548600D01*
X72195000Y-120608600D02*
X72195000Y-120938600D01*
X66755000Y-123548600D02*
X72195000Y-123548600D01*
X67535000Y-120608600D02*
X67535000Y-123548600D01*
X66755000Y-120938600D02*
X66755000Y-120608600D01*
X72195000Y-123548600D02*
X72195000Y-123218600D01*
X66755000Y-123218600D02*
X66755000Y-123548600D01*
%TO.C,D42*%
X83046200Y-129757400D02*
X83046200Y-126817400D01*
X82926200Y-129757400D02*
X82926200Y-126817400D01*
X83946200Y-129427400D02*
X83946200Y-129757400D01*
X78506200Y-129757400D02*
X78506200Y-129427400D01*
X83946200Y-126817400D02*
X78506200Y-126817400D01*
X83166200Y-129757400D02*
X83166200Y-126817400D01*
X83946200Y-129757400D02*
X78506200Y-129757400D01*
X83946200Y-127147400D02*
X83946200Y-126817400D01*
X78506200Y-126817400D02*
X78506200Y-127147400D01*
%TO.C,D26*%
X163436400Y-128746600D02*
X160496400Y-128746600D01*
X160496400Y-127966600D02*
X160496400Y-133406600D01*
X163436400Y-128986600D02*
X160496400Y-128986600D01*
X163436400Y-128866600D02*
X160496400Y-128866600D01*
X160826400Y-127966600D02*
X160496400Y-127966600D01*
X163436400Y-133406600D02*
X163106400Y-133406600D01*
X163436400Y-127966600D02*
X163436400Y-133406600D01*
X163106400Y-127966600D02*
X163436400Y-127966600D01*
X160496400Y-133406600D02*
X160826400Y-133406600D01*
%TO.C,D33*%
X163036200Y-106198800D02*
X162706200Y-106198800D01*
X165646200Y-111638800D02*
X165316200Y-111638800D01*
X162706200Y-106198800D02*
X162706200Y-111638800D01*
X165646200Y-106198800D02*
X165646200Y-111638800D01*
X162706200Y-111638800D02*
X163036200Y-111638800D01*
X165646200Y-107098800D02*
X162706200Y-107098800D01*
X165316200Y-106198800D02*
X165646200Y-106198800D01*
X165646200Y-106978800D02*
X162706200Y-106978800D01*
X165646200Y-107218800D02*
X162706200Y-107218800D01*
%TO.C,U5*%
X227096200Y-128477000D02*
X209196200Y-128477000D01*
X209196200Y-131727000D02*
X209196200Y-132977000D01*
X209196200Y-132977000D02*
X227096200Y-132977000D01*
X227096200Y-132977000D02*
X227096200Y-128477000D01*
X209196200Y-128477000D02*
X209196200Y-129727000D01*
X209196200Y-131727000D02*
G75*
G03*
X209196200Y-129727000I0J1000000D01*
G01*
%TO.C,D34*%
X130016400Y-111664200D02*
X130346400Y-111664200D01*
X130016400Y-106224200D02*
X130016400Y-111664200D01*
X132956400Y-107004200D02*
X130016400Y-107004200D01*
X130346400Y-106224200D02*
X130016400Y-106224200D01*
X132956400Y-111664200D02*
X132626400Y-111664200D01*
X132956400Y-107124200D02*
X130016400Y-107124200D01*
X132626400Y-106224200D02*
X132956400Y-106224200D01*
X132956400Y-106224200D02*
X132956400Y-111664200D01*
X132956400Y-107244200D02*
X130016400Y-107244200D01*
%TD*%
M02*
