M48
; DRILL file {KiCad 6.0.2+dfsg-1} date Mon 30 May 2022 16:29:02 BST
; FORMAT={-:-/ absolute / inch / decimal}
; #@! TF.CreationDate,2022-05-30T16:29:02+01:00
; #@! TF.GenerationSoftware,Kicad,Pcbnew,6.0.2+dfsg-1
; #@! TF.FileFunction,Plated,1,2,PTH
FMAT,2
INCH
; #@! TA.AperFunction,Plated,PTH,ViaDrill
T1C0.0157
; #@! TA.AperFunction,Plated,PTH,ComponentDrill
T2C0.0315
; #@! TA.AperFunction,Plated,PTH,ComponentDrill
T3C0.0354
; #@! TA.AperFunction,Plated,PTH,ComponentDrill
T4C0.0394
; #@! TA.AperFunction,Plated,PTH,ComponentDrill
T5C0.1378
%
G90
G05
T1
X2.13Y-4.09
X2.1636Y-5.4331
X2.2Y-5.18
X2.22Y-4.88
X2.3726Y-3.8601
X2.4136Y-5.3351
X2.4466Y-5.4251
X2.5376Y-3.9671
X2.66Y-5.4
X2.71Y-5.23
X2.7556Y-4.2361
X2.7976Y-5.0011
X2.84Y-4.48
X2.85Y-4.12
X3.01Y-5.1
X3.0331Y-4.2341
X3.04Y-5.23
X3.35Y-5.11
X3.4Y-5.23
X3.43Y-4.47
X3.49Y-4.12
X3.5146Y-5.2231
X3.52Y-4.89
X3.52Y-5.36
X3.53Y-4.2
X3.5326Y-4.7141
X3.57Y-3.99
X3.63Y-5.12
X3.65Y-3.72
X3.66Y-4.31
X3.7186Y-4.5101
X3.7826Y-4.1191
X3.8466Y-5.0461
X3.87Y-5.25
X3.87Y-5.38
X3.9086Y-4.5171
X3.93Y-5.1
X3.9516Y-5.2961
X3.98Y-5.2
X4.0Y-4.59
X4.0356Y-4.2741
X4.16Y-4.0
X4.17Y-4.21
X4.19Y-5.21
X4.22Y-5.39
X4.2496Y-4.0781
X4.2496Y-5.0821
X4.29Y-4.9
X4.2956Y-4.6411
X4.2986Y-5.2931
X4.31Y-5.16
X4.3726Y-4.6681
X4.3816Y-5.4101
X4.39Y-5.09
X4.44Y-5.29
X4.46Y-4.48
X4.47Y-4.29
X4.48Y-3.98
X4.48Y-4.19
X4.4806Y-5.3721
X4.4856Y-4.7161
X4.4866Y-5.1901
X4.53Y-4.98
X4.5356Y-5.3132
X4.5446Y-5.0691
X4.5446Y-5.1191
X4.5546Y-4.7981
X4.5576Y-4.8521
X4.56Y-5.2
X4.5721Y-5.2761
X4.6292Y-4.0667
X4.6292Y-4.7144
X4.6292Y-4.7561
X4.6316Y-4.1161
X4.6316Y-4.6751
X4.6326Y-5.0301
X4.6336Y-4.2561
X4.6346Y-5.1591
X4.6566Y-4.3191
X4.6806Y-5.2171
X4.7306Y-5.1281
X4.77Y-5.28
X4.78Y-4.97
X4.8Y-4.76
X4.8116Y-5.1151
X4.8136Y-3.9971
X4.8826Y-4.8491
X4.8886Y-4.7981
X4.9802Y-5.2242
X5.1376Y-5.1351
X5.1956Y-5.1671
X5.2706Y-5.2242
X5.28Y-4.53
X5.3856Y-5.3716
X5.4616Y-4.5951
X5.4646Y-4.2431
X5.5536Y-4.7291
X5.66Y-5.03
X5.7056Y-5.3132
X5.74Y-4.64
X5.7426Y-5.3781
X5.8116Y-4.8981
X5.82Y-4.74
X5.82Y-5.25
X5.8456Y-3.8321
X5.8866Y-3.8731
X5.9Y-5.0
X5.9856Y-5.2201
X6.0126Y-3.7311
X6.02Y-4.85
X6.0206Y-4.5088
X6.0206Y-4.5481
X6.0346Y-4.5951
X6.0706Y-3.8671
X6.08Y-4.28
X6.14Y-3.74
X6.1496Y-4.4861
X6.1556Y-3.8801
X6.19Y-4.84
X6.2366Y-4.3421
X6.2396Y-5.2297
X6.2459Y-4.2386
X6.2716Y-3.8871
X6.2796Y-3.8441
X6.31Y-4.93
X6.3496Y-4.2381
X6.3876Y-4.2041
X6.3896Y-5.3566
X6.4Y-4.39
X6.4096Y-4.2741
X6.4196Y-5.2297
X6.42Y-4.84
X6.48Y-4.99
X6.4801Y-4.301
X6.4886Y-5.0761
X6.53Y-5.17
X6.5366Y-5.0201
X6.5372Y-4.301
X6.5396Y-4.6861
X6.5426Y-4.6341
X6.5437Y-4.5948
X6.5446Y-4.4911
X6.5476Y-4.7421
X6.5486Y-4.5461
X6.55Y-5.27
X6.5506Y-4.8031
X6.58Y-3.84
X6.6176Y-5.1561
X6.6359Y-4.5501
X6.6359Y-4.5991
X6.6446Y-4.7001
X6.65Y-4.23
X6.6596Y-4.6391
X6.6666Y-5.2011
X6.6896Y-4.7061
X6.6946Y-4.7511
X6.7316Y-4.9971
X6.74Y-4.9
X6.7476Y-5.2281
X6.7576Y-4.5361
X6.76Y-4.32
X6.76Y-5.05
X6.7826Y-4.7261
X6.8076Y-4.6591
X6.82Y-4.3121
X6.83Y-4.82
X6.8393Y-4.6208
X6.87Y-4.34
X6.88Y-4.22
X6.9Y-4.7306
X6.93Y-4.85
X6.9536Y-4.7771
X6.9555Y-4.411
X6.97Y-5.17
X7.02Y-4.62
X7.04Y-3.93
X7.07Y-4.72
X7.1Y-4.51
X7.13Y-5.17
X7.16Y-4.62
X7.1981Y-4.5821
X7.2516Y-5.1721
X7.3406Y-4.4481
X7.3429Y-5.0621
X7.36Y-4.78
X7.38Y-4.53
X7.39Y-4.62
X7.4416Y-4.7441
X7.4735Y-4.8163
X7.4836Y-4.5621
X7.4966Y-3.9811
X7.537Y-5.2101
X7.56Y-4.45
X7.5696Y-4.7851
X7.57Y-4.62
X7.58Y-5.0
X7.5886Y-5.0981
X7.5926Y-4.0461
X7.5956Y-4.7431
X7.5976Y-4.9301
X7.6036Y-4.5201
X7.6046Y-4.8641
X7.6316Y-4.3041
X7.6416Y-4.2051
X7.6856Y-4.9571
X7.6896Y-4.0661
X7.6966Y-4.4391
X7.73Y-4.75
X7.74Y-4.63
X7.7596Y-4.8611
X7.8101Y-4.9221
X7.8566Y-4.0581
X7.8726Y-4.7561
X7.8796Y-4.6621
X7.9146Y-4.6011
X7.9156Y-4.7131
X7.9276Y-4.8201
X7.96Y-4.46
X7.9656Y-3.6471
X7.97Y-4.22
X7.98Y-5.0
X8.0Y-4.88
X8.14Y-4.72
X8.1483Y-4.4808
X8.18Y-4.89
X8.2906Y-4.5241
X8.3Y-4.38
X8.3006Y-4.6591
X8.36Y-4.48
X8.43Y-5.07
X8.4326Y-5.1411
X8.4348Y-4.9157
X8.4446Y-5.3761
X8.45Y-3.7
X8.49Y-5.4039
X8.5086Y-4.4091
X8.51Y-3.78
X8.52Y-5.1
X8.55Y-4.31
X8.65Y-4.71
X8.6696Y-4.4811
X8.68Y-5.39
X8.6946Y-4.8431
X8.74Y-5.06
X8.748Y-4.6038
X8.81Y-4.44
X8.83Y-4.81
X8.87Y-3.95
X8.87Y-4.21
X8.9586Y-4.6411
X8.9926Y-4.5511
X9.0396Y-3.7351
X9.0656Y-4.6271
X9.07Y-5.01
X9.13Y-5.27
X9.1446Y-4.4211
X9.16Y-4.8
X9.25Y-4.63
X9.29Y-5.2
X9.3Y-4.05
X9.3146Y-4.8871
X9.47Y-4.52
X9.5386Y-4.1711
X9.5986Y-5.3859
X9.61Y-5.21
X9.63Y-4.07
X9.67Y-4.29
X9.67Y-5.38
X9.69Y-5.09
X9.7076Y-5.1371
X9.72Y-5.21
X9.7296Y-5.4911
X9.82Y-5.15
X9.92Y-4.45
X9.95Y-5.49
X9.99Y-3.79
X10.1526Y-5.4591
T2
X4.9274Y-4.9817
X4.9274Y-5.2817
X5.0274Y-4.9817
X5.0274Y-5.2817
X5.1274Y-4.9817
X5.1274Y-5.2817
X5.2274Y-4.9817
X5.2274Y-5.2817
X5.3274Y-4.9817
X5.3274Y-5.2817
X5.4274Y-4.9817
X5.4274Y-5.2817
X5.5274Y-4.9817
X5.5274Y-5.2817
X6.8714Y-4.9757
X6.8714Y-5.2757
X6.9714Y-4.9757
X6.9714Y-5.2757
X7.0714Y-4.9757
X7.0714Y-5.2757
X7.1714Y-4.9757
X7.1714Y-5.2757
X7.2714Y-4.9757
X7.2714Y-5.2757
X7.3714Y-4.9757
X7.3714Y-5.2757
X7.4714Y-4.9757
X7.4714Y-5.2757
X8.0966Y-3.8761
X8.0966Y-4.1761
X8.1966Y-3.8761
X8.1966Y-4.1761
X8.2884Y-4.9967
X8.2884Y-5.2967
X8.2966Y-3.8761
X8.2966Y-4.1761
X8.3884Y-4.9967
X8.3884Y-5.2967
X8.3966Y-3.8761
X8.3966Y-4.1761
X8.4884Y-4.9967
X8.4884Y-5.2967
X8.4966Y-3.8761
X8.4966Y-4.1761
X8.5884Y-4.9967
X8.5884Y-5.2967
X8.5966Y-3.8761
X8.5966Y-4.1761
X8.6884Y-4.9967
X8.6884Y-5.2967
X8.6966Y-3.8761
X8.6966Y-4.1761
X8.7884Y-4.9967
X8.7884Y-5.2967
X8.8884Y-4.9967
X8.8884Y-5.2967
X9.4294Y-5.0067
X9.4294Y-5.3067
X9.5294Y-5.0067
X9.5294Y-5.3067
X9.6294Y-5.0067
X9.6294Y-5.3067
X9.7294Y-5.0067
X9.7294Y-5.3067
X9.8294Y-5.0067
X9.8294Y-5.3067
X9.9294Y-5.0067
X9.9294Y-5.3067
X10.0294Y-5.0067
X10.0294Y-5.3067
T3
X1.7046Y-5.3211
X1.7126Y-5.1871
X1.8046Y-4.8791
X1.8046Y-5.0291
X1.9066Y-4.5931
X1.9066Y-4.7271
X1.9886Y-4.3171
X1.9906Y-4.4511
X2.0046Y-5.3211
X2.0126Y-5.1871
X2.1046Y-4.8791
X2.1046Y-5.0291
X2.2066Y-4.5931
X2.2066Y-4.7271
X2.2886Y-4.3171
X2.2906Y-4.4511
X2.8616Y-3.6801
X2.8856Y-4.8211
X2.8856Y-4.9491
X2.8856Y-5.0771
X2.8856Y-5.2131
X2.8856Y-5.3451
X2.9796Y-4.1631
X2.9796Y-4.2971
X2.9796Y-4.4311
X2.9796Y-4.5591
X2.9796Y-4.6871
X3.1616Y-3.6801
X3.1856Y-4.8211
X3.1856Y-4.9491
X3.1856Y-5.0771
X3.1856Y-5.2131
X3.1856Y-5.3451
X3.2796Y-4.1631
X3.2796Y-4.2971
X3.2796Y-4.4311
X3.2796Y-4.5591
X3.2796Y-4.6871
X3.7676Y-5.3791
X3.7686Y-5.2441
X3.7696Y-4.9871
X3.7696Y-5.1161
X3.8626Y-4.4601
X3.8626Y-4.5921
X3.8626Y-4.7221
X3.8686Y-4.8561
X3.9626Y-4.2041
X3.9646Y-4.3331
X4.0676Y-5.3791
X4.0686Y-5.2441
X4.0696Y-4.9871
X4.0696Y-5.1161
X4.1626Y-4.4601
X4.1626Y-4.5921
X4.1626Y-4.7221
X4.1686Y-4.8561
X4.2626Y-4.2041
X4.2646Y-4.3331
X5.0456Y-4.1391
X5.0456Y-4.4391
X5.1766Y-4.1391
X5.1766Y-4.4391
X5.3056Y-4.1391
X5.3056Y-4.4391
X5.4346Y-4.1401
X5.4346Y-4.4401
X5.5636Y-4.1401
X5.5636Y-4.4401
X5.6926Y-4.1391
X5.6926Y-4.4391
X5.8206Y-4.1391
X5.8206Y-4.4391
X5.9506Y-4.1391
X5.9506Y-4.4391
X5.9846Y-4.9951
X5.9846Y-5.2951
X6.0796Y-4.1391
X6.0796Y-4.4391
X6.1146Y-4.9931
X6.1146Y-5.2931
X6.2076Y-4.1391
X6.2076Y-4.4391
X6.2466Y-4.9951
X6.2466Y-5.2951
X6.3376Y-4.1391
X6.3376Y-4.4391
X6.3766Y-4.9951
X6.3766Y-5.2951
X6.4636Y-4.1381
X6.4636Y-4.4381
X6.5896Y-4.1381
X6.5896Y-4.4381
X6.7196Y-4.1381
X6.7196Y-4.4381
X6.8486Y-4.1371
X6.8486Y-4.4371
X6.9266Y-4.6701
X7.0246Y-4.1391
X7.0246Y-4.4391
X7.1556Y-4.1391
X7.1556Y-4.4391
X7.2266Y-4.6701
X7.3126Y-3.7461
X7.3126Y-3.8821
X7.6126Y-3.7461
X7.6126Y-3.8821
X7.8186Y-3.8681
X7.8186Y-4.1681
X7.8386Y-4.9931
X7.8386Y-5.2931
X8.1296Y-5.0021
X8.1296Y-5.3021
T4
X1.3968Y-3.9494
X1.4968Y-3.9494
X1.8154Y-3.9324
X1.9154Y-3.9324
X2.0154Y-3.9324
X2.1154Y-3.9324
X2.2154Y-3.9324
X3.8234Y-3.9394
X3.9234Y-3.9394
X4.0234Y-3.9394
X4.1234Y-3.9394
X4.2234Y-3.9394
X5.3094Y-3.9409
X5.4094Y-3.9409
X5.5094Y-3.9409
X5.6094Y-3.9409
X5.7094Y-3.9409
X5.8094Y-3.9409
X5.9094Y-3.9409
X6.0094Y-3.9409
X6.1094Y-3.9409
X6.2094Y-3.9409
X6.3094Y-3.9409
X6.4094Y-3.9409
X6.5094Y-3.9409
X6.6094Y-3.9409
X6.7094Y-3.9409
X6.8094Y-3.9409
X6.9094Y-3.9409
X9.493Y-3.9524
X9.593Y-3.9524
X9.693Y-3.9524
X9.793Y-3.9524
X9.893Y-3.9524
X9.993Y-3.9524
X10.093Y-3.9524
X10.193Y-3.9524
T5
X2.5724Y-4.1641
X7.4306Y-4.1641
T0
M30
